<?xml version="1.0" encoding="utf-8"?>
<!-- Generator: Adobe Illustrator 24.0.1, SVG Export Plug-In . SVG Version: 6.00 Build 0)  -->
<svg version="1.1" id="Camada_1" xmlns="http://www.w3.org/2000/svg" xmlns:xlink="http://www.w3.org/1999/xlink" x="0px" y="0px"
	 viewBox="0 0 60 60" style="enable-background:new 0 0 60 60;" xml:space="preserve">
<style type="text/css">
	.st0{fill:#FFFFFF;}
	.st1{fill:#066C44;}
	.st2{fill:#A2604A;}
	.st3{fill:#89513E;}
	.st4{fill:#076C44;}
	.st5{fill:#966553;}
	.st6{fill:#00A956;}
</style>
<g>
	<path class="st0" d="M6.33,26.17c-0.13,0.53-0.25,1.06-0.42,1.58c-0.05,0.14-0.22,0.3-0.36,0.34c-0.21,0.06-0.23-0.18-0.32-0.32
		c-0.08-0.12-0.2-0.27-0.33-0.31c-0.57-0.21-1.14-0.4-1.72-0.56c-0.15-0.04-0.33,0.06-0.5,0.09c-0.12,0.02-0.27,0.1-0.34,0.05
		c-0.09-0.07-0.14-0.22-0.16-0.35c-0.02-0.1,0.04-0.21,0.06-0.31c0.22-0.87,0.45-1.74,0.67-2.61c0.06-0.23,0.16-0.4,0.39-0.45
		c0.27-0.06,0.55-0.07,0.78,0.15c0.19,0.19,0.15,0.43-0.13,0.57c-0.41,0.21-0.57,0.57-0.62,0.98c-0.02,0.11,0.05,0.3,0.13,0.34
		c0.15,0.09,0.37,0.17,0.53,0.12c0.18-0.06,0.2-0.27,0.04-0.41c-0.15-0.14-0.29-0.28-0.19-0.49c0.11-0.22,0.33-0.22,0.53-0.16
		c0.31,0.1,0.62,0.21,0.9,0.37c0.11,0.06,0.18,0.27,0.16,0.4c-0.01,0.08-0.21,0.17-0.34,0.19c-0.18,0.03-0.34,0.07-0.32,0.27
		c0.01,0.09,0.15,0.22,0.26,0.25c0.3,0.11,0.6,0.22,0.83-0.16c0.09-0.15,0.34-0.08,0.4,0.11c0.03,0.1,0.02,0.21,0.04,0.32
		C6.3,26.17,6.31,26.17,6.33,26.17z"/>
	<path class="st0" d="M3.83,31.39c0.53,0,0.99,0.47,0.98,1.01c-0.01,0.54-0.47,1.02-0.99,1.01c-0.54-0.01-0.99-0.46-1-1.01
		C2.82,31.85,3.27,31.39,3.83,31.39z"/>
	<path class="st1" d="M5.83,22.26c-0.09-0.03-0.11-0.03-0.12-0.04c-0.12-0.17-0.24-0.35-0.36-0.52c0.22-0.05,0.43-0.09,0.64-0.14
		c0.02,0.03,0.05,0.07,0.07,0.09C5.99,21.85,5.92,22.04,5.83,22.26z"/>
	<path class="st1" d="M59.95,29.76c0.02,1.4-0.06,2.81-0.25,4.28c-0.16,1.21-0.41,2.41-0.7,3.59c-0.47,1.95-1.2,3.82-2.08,5.61
		c-1.02,2.07-2.25,4-3.72,5.77c-1.59,1.9-3.35,3.63-5.35,5.09c-1.42,1.04-2.89,1.97-4.46,2.75c-1.9,0.95-3.87,1.68-5.92,2.19
		c-3.5,0.89-7.05,1.17-10.64,0.79c-2.39-0.25-4.72-0.77-6.98-1.6c-2.09-0.76-4.1-1.73-5.98-2.95c-2.21-1.43-4.21-3.11-6-5.02
		c-0.85-0.91-1.59-1.92-2.33-2.92c-1.11-1.51-2.05-3.15-2.82-4.87c-0.82-1.83-1.47-3.71-1.93-5.67C0.22,34.4-0.04,31.96,0,29.5
		c0.04-2.68,0.46-5.31,1.2-7.89c0.62-2.14,1.46-4.18,2.54-6.12c1.51-2.69,3.33-5.13,5.58-7.24c2.8-2.63,5.96-4.67,9.52-6.09
		c2.05-0.82,4.17-1.43,6.35-1.77c2.07-0.32,4.16-0.49,6.26-0.35c2.43,0.17,4.84,0.52,7.18,1.24c2.02,0.62,3.97,1.42,5.82,2.45
		c3.37,1.88,6.3,4.31,8.76,7.31c1.7,2.08,3.11,4.35,4.21,6.82c1.04,2.34,1.79,4.77,2.15,7.31C59.8,26.74,59.93,28.25,59.95,29.76z
		 M51.36,30.12c0.01-11.94-9.57-21.69-21.43-21.64C18.22,8.53,8.62,18.19,8.68,30.24c0.06,11.83,9.48,21.56,21.42,21.53
		C41.88,51.73,51.36,42.06,51.36,30.12z M54.88,26.06c-0.05-0.02-0.08-0.03-0.11-0.04c-0.12-0.04-0.32-0.15-0.36-0.11
		c-0.09,0.1-0.17,0.27-0.16,0.41c0.01,0.25,0.05,0.51,0.13,0.76c0.11,0.35,0.23,0.69,0.38,1.02c0.05,0.09,0.22,0.16,0.33,0.17
		c0.06,0.01,0.14-0.13,0.2-0.21c0.13-0.2,0.23-0.43,0.39-0.6c0.61-0.67,1.26-1.3,1.85-1.98c0.18-0.2,0.28-0.51,0.32-0.78
		c0.06-0.5-0.34-0.87-0.77-0.76c-0.9,0.22-1.76-0.06-2.63-0.2c-0.45-0.07-0.67-0.51-0.5-0.86c0.06-0.14,0.19-0.25,0.33-0.33
		c0.46-0.26,0.93-0.51,1.41-0.73c0.16-0.08,0.4-0.08,0.57-0.03c0.33,0.1,0.55-0.05,0.48-0.4c-0.12-0.59-0.36-1.14-0.76-1.6
		c-0.23-0.26-0.39-0.21-0.53,0.11c-0.09,0.2-0.22,0.41-0.39,0.51c-0.5,0.3-1.03,0.54-1.56,0.79c-0.11,0.05-0.27,0.04-0.4,0.01
		c-0.36-0.09-0.51,0.02-0.46,0.39c0.11,0.62,0.36,1.18,0.78,1.66c0.08,0.09,0.11,0.23,0.14,0.35c0.1,0.42,0.18,0.85,0.3,1.27
		c0.04,0.11,0.2,0.21,0.33,0.24c0.05,0.01,0.17-0.16,0.22-0.26c0.07-0.17,0.16-0.19,0.29-0.09C54.87,24.91,55,25.8,54.88,26.06z
		 M17.66,9.58c-0.53-0.09-0.54-0.08-0.7-0.34c-0.29-0.47-0.58-0.95-0.86-1.43c-0.13-0.24-0.2-0.47-0.1-0.76
		c0.09-0.24-0.09-0.44-0.34-0.37c-0.65,0.18-1.14,0.6-1.49,1.17c-0.13,0.21-0.01,0.36,0.22,0.46c0.2,0.09,0.43,0.21,0.54,0.38
		c0.31,0.46,0.58,0.95,0.85,1.43c0.08,0.15,0.09,0.34,0.12,0.52c0.03,0.15,0.01,0.4,0.08,0.43c0.15,0.06,0.36,0.05,0.5-0.02
		c0.53-0.3,1.04-0.62,1.3-1.21c0.54,0.02,0.97-0.22,1.35-0.55c0.26-0.23,0.2-0.48-0.13-0.57c-0.22-0.07-0.24-0.22-0.09-0.31
		c0.28-0.18,0.59-0.33,0.9-0.46c0.13-0.05,0.23,0.03,0.19,0.22C19.97,8.3,19.94,8.56,20,8.59c0.14,0.07,0.36,0.09,0.5,0.04
		c0.35-0.14,0.69-0.32,1.02-0.51c0.16-0.09,0.31-0.23,0.42-0.38c0.14-0.2,0.05-0.37-0.15-0.46c-0.25-0.11-0.5-0.22-0.7-0.39
		c-0.4-0.33-0.76-0.71-1.16-1.04c-0.33-0.28-0.69-0.53-1.06-0.76c-0.3-0.18-0.67-0.12-0.89,0.1c-0.23,0.24-0.26,0.51-0.18,0.83
		C17.91,6.36,18,6.72,18,7.08C17.96,7.9,18.22,8.78,17.66,9.58z M48.89,45.93c0.16,0.09,0.32,0.16,0.47,0.27
		c0.08,0.05,0.11,0.17,0.16,0.25c-0.08,0.04-0.16,0.11-0.25,0.12c-0.51,0.09-1.02,0.18-1.53,0.26c-0.45,0.07-1.03,0.61-1.11,1.06
		c-0.05,0.28,0.06,0.44,0.34,0.38c0.3-0.07,0.53,0.05,0.73,0.22c0.32,0.27,0.64,0.54,0.91,0.85c0.15,0.16,0.23,0.4,0.28,0.61
		c0.07,0.27,0.23,0.41,0.48,0.27c0.37-0.21,0.64-0.53,0.75-0.95c0.08-0.27-0.07-0.45-0.32-0.4c-0.33,0.06-0.53-0.12-0.71-0.33
		c-0.07-0.08-0.13-0.21-0.12-0.3c0.01-0.05,0.16-0.12,0.26-0.13c0.58-0.09,1.17-0.18,1.76-0.27c0.25-0.04,0.58-0.01,0.68-0.32
		c0.1-0.33-0.18-0.5-0.37-0.69c-0.46-0.44-0.93-0.87-1.39-1.31c-0.18-0.18-0.3-0.41-0.11-0.63c0.17-0.2,0.41-0.14,0.61,0.01
		c0.42,0.31,0.85,0.61,1.24,0.95c0.13,0.11,0.22,0.3,0.28,0.47c0.09,0.25,0.27,0.36,0.47,0.18c0.44-0.4,0.76-0.89,0.9-1.48
		c0.06-0.26-0.09-0.36-0.35-0.35c-0.17,0.01-0.37,0.02-0.51-0.07c-0.42-0.27-0.82-0.57-1.2-0.89c-0.14-0.12-0.21-0.33-0.32-0.49
		c-0.06-0.11-0.11-0.29-0.2-0.32c-0.1-0.03-0.29,0.04-0.36,0.13c-0.29,0.43-0.55,0.88-0.83,1.31c-0.08,0.12-0.17,0.22-0.26,0.33
		c-0.24,0.28-0.53,0.53-0.72,0.84C48.34,45.8,48.52,46.03,48.89,45.93z M9.04,16.25c0.04-0.03,0.08-0.05,0.12-0.08
		c0.33,0.2,0.67,0.37,0.77,0.8c0.06,0.27,0.25,0.36,0.44,0.2c0.43-0.38,0.75-0.85,0.88-1.41c0.06-0.28-0.09-0.39-0.38-0.38
		c-0.18,0-0.38-0.04-0.53-0.13c-0.31-0.18-0.6-0.4-0.89-0.62c-0.34-0.27-0.72-0.52-0.83-1.01c-0.05-0.24-0.27-0.24-0.47-0.13
		c-0.54,0.31-0.76,1.09-0.48,1.65c0.15,0.31,0.32,0.61,0.45,0.92c0.11,0.25,0.04,0.34-0.23,0.31c-0.39-0.04-0.78-0.09-1.17-0.11
		c-0.15-0.01-0.37,0.02-0.43,0.11c-0.23,0.36-0.45,0.75-0.59,1.15c-0.09,0.27,0.1,0.38,0.39,0.36c0.19-0.02,0.44-0.01,0.58,0.1
		c0.47,0.33,0.92,0.69,1.34,1.08c0.16,0.14,0.25,0.38,0.32,0.59c0.08,0.24,0.27,0.35,0.43,0.15c0.24-0.3,0.43-0.65,0.58-1.01
		c0.09-0.22-0.08-0.36-0.32-0.32c-0.36,0.06-0.85-0.25-0.97-0.63c0.08,0,0.15-0.01,0.22,0c0.4,0.07,0.79,0.15,1.18,0.21
		c0.29,0.05,0.41-0.08,0.32-0.37c-0.05-0.15-0.13-0.29-0.21-0.43C9.38,16.91,9.21,16.58,9.04,16.25z M34.73,4.65
		c0.15-0.08,0.23-0.11,0.28-0.15c0.6-0.47,0.59-1.32-0.03-1.75c-0.23-0.15-0.52-0.24-0.79-0.3c-0.51-0.09-1.02-0.15-1.53-0.21
		c-0.16-0.02-0.34-0.02-0.5,0.01c-0.27,0.05-0.33,0.31-0.2,0.55c0.11,0.2,0.2,0.43,0.19,0.64c-0.04,0.57-0.11,1.15-0.21,1.72
		c-0.04,0.2-0.17,0.4-0.3,0.56c-0.2,0.25-0.2,0.48,0.09,0.63c0.48,0.24,1,0.29,1.52,0.22c0.27-0.04,0.39-0.3,0.22-0.5
		c-0.21-0.26-0.2-0.53-0.15-0.82c0.02-0.11,0.11-0.21,0.17-0.31c0.09,0.09,0.24,0.16,0.27,0.27c0.06,0.22,0.07,0.46,0.11,0.7
		c0.13,0.9,0.65,1.16,1.55,0.99c0.34-0.07,0.41-0.35,0.18-0.63c-0.07-0.09-0.16-0.2-0.16-0.3C35.39,5.47,35.35,4.98,34.73,4.65z
		 M25.49,2.65c-0.67,0.13-1.48,0.28-2.3,0.46c-0.11,0.02-0.23,0.2-0.26,0.32c-0.01,0.09,0.12,0.21,0.2,0.32
		C23.22,3.88,23.38,4,23.4,4.14c0.11,0.71,0.19,1.42,0.26,2.14c0.01,0.12-0.05,0.25-0.07,0.37c-0.02,0.17-0.11,0.43-0.05,0.48
		c0.12,0.1,0.34,0.12,0.51,0.09c0.64-0.11,1.27-0.22,1.9-0.37c0.25-0.06,0.51-0.16,0.72-0.3c0.71-0.49,0.68-1.68-0.05-2.02
		c-0.27-0.13-0.27-0.24-0.15-0.49C26.81,3.36,26.37,2.65,25.49,2.65z M39.99,54.42c0.06-0.14,0.09-0.24,0.13-0.33
		c0.21-0.55-0.08-1.13-0.64-1.25c-0.18-0.04-0.4-0.05-0.56,0.01c-0.68,0.25-1.36,0.53-2.03,0.8c-0.08,0.03-0.15,0.09-0.2,0.15
		c-0.21,0.2-0.16,0.38,0.08,0.53c0.15,0.09,0.31,0.23,0.38,0.39c0.19,0.45,0.37,0.91,0.5,1.38c0.06,0.22,0.05,0.48,0.01,0.72
		c-0.05,0.3,0.03,0.46,0.33,0.44c0.54-0.04,1.03-0.24,1.44-0.59c0.18-0.15,0.15-0.38-0.06-0.47c-0.26-0.11-0.37-0.31-0.44-0.55
		c-0.03-0.11,0.01-0.25,0.01-0.37c0.12,0.04,0.27,0.05,0.36,0.13c0.17,0.17,0.29,0.4,0.46,0.57c0.46,0.51,1.35,0.43,1.73-0.15
		c0.15-0.23,0.08-0.41-0.19-0.51c-0.09-0.04-0.21-0.08-0.26-0.16C40.79,54.77,40.54,54.43,39.99,54.42z M9.14,45.91
		c0.12,0.02,0.19,0.03,0.26,0.04c0.65,0.1,1.14-0.35,1.04-1.01c-0.04-0.28-0.15-0.56-0.29-0.8c-0.29-0.48-0.62-0.93-0.95-1.4
		c-0.1-0.14-0.2-0.28-0.33-0.38c-0.22-0.17-0.38-0.07-0.45,0.2c-0.04,0.18-0.13,0.39-0.26,0.51c-0.38,0.33-0.78,0.62-1.2,0.89
		c-0.15,0.1-0.35,0.15-0.53,0.15c-0.36-0.01-0.54,0.15-0.38,0.47c0.22,0.45,0.52,0.87,0.83,1.27c0.16,0.21,0.36,0.09,0.47-0.17
		c0.09-0.21,0.25-0.41,0.4-0.58c0.06-0.07,0.2-0.05,0.31-0.07c0.01,0.12,0.06,0.27,0.02,0.35c-0.11,0.21-0.27,0.38-0.4,0.57
		c-0.42,0.59-0.17,1.52,0.48,1.8c0.18,0.08,0.41,0.08,0.41-0.16c0.01-0.33,0.22-0.51,0.36-0.76c0.11-0.18,0.14-0.41,0.19-0.63
		C9.15,46.12,9.14,46.02,9.14,45.91z M16.33,51.41c0.01-0.67-0.13-1.11-0.49-1.4c-0.64-0.53-1.32-1.02-2-1.51
		c-0.08-0.06-0.27-0.06-0.34-0.01c-0.07,0.05-0.06,0.22-0.09,0.34c-0.04,0.18-0.02,0.39-0.11,0.53c-0.3,0.47-0.63,0.91-0.95,1.37
		c-0.13,0.18-0.27,0.3-0.53,0.29c-0.24-0.01-0.36,0.21-0.23,0.43c0.06,0.11,0.18,0.21,0.29,0.3c0.46,0.34,0.93,0.67,1.38,1.02
		c0.58,0.45,1.21,0.69,1.91,0.32C15.91,52.7,16.27,52.05,16.33,51.41z M48.54,14.41c0.11,0.37,0.17,0.75,0.32,1.1
		c0.35,0.85,1.44,1.63,2.33,1.14c0.06-0.04,0.16,0,0.25-0.01c0.15-0.01,0.38,0.03,0.41-0.04c0.08-0.14,0.11-0.37,0.05-0.51
		c-0.21-0.51-0.55-0.95-1.01-1.25c-0.12-0.08-0.36-0.1-0.45-0.02c-0.09,0.08-0.05,0.3-0.07,0.46c-0.02,0.13,0.01,0.33-0.06,0.37
		c-0.18,0.12-0.32-0.02-0.4-0.19c-0.05-0.11-0.07-0.22-0.08-0.34c-0.01-0.61,0.29-1.06,0.73-1.43c0.24-0.2,0.53-0.32,0.85-0.15
		c0.33,0.18,0.39,0.49,0.39,0.82c0,0.2-0.04,0.41-0.02,0.61c0.02,0.31,0.25,0.5,0.51,0.44c0.36-0.07,0.52-0.34,0.62-0.66
		c0.09-0.27,0.06-0.52-0.18-0.73c-0.1-0.08-0.17-0.21-0.23-0.33c-0.37-0.71-0.86-1.28-1.7-1.41C49.62,12.09,48.59,13.09,48.54,14.41
		z M29.26,6.47c0-0.02,0-0.04,0-0.05c0.46,0,0.91,0.02,1.37-0.01c0.14-0.01,0.34-0.12,0.4-0.24c0.12-0.27,0.22-0.56,0.25-0.86
		c0.01-0.14-0.15-0.3-0.23-0.44c-0.12,0.09-0.27,0.15-0.34,0.27C30.54,5.42,30.34,5.62,30,5.68C29.33,5.78,29.21,5.69,29.22,5
		c0-0.13,0.11-0.26,0.17-0.39c0.1,0.1,0.2,0.2,0.3,0.31c0.08,0.08,0.15,0.22,0.23,0.22c0.08,0,0.23-0.12,0.23-0.21
		c0.05-0.4,0.1-0.8,0.08-1.2c-0.01-0.16-0.2-0.31-0.32-0.46c-0.1,0.14-0.2,0.27-0.3,0.4c-0.01,0.02-0.01,0.05-0.02,0.06
		c-0.09,0.05-0.19,0.14-0.28,0.14c-0.07-0.01-0.17-0.12-0.19-0.2c-0.03-0.14-0.01-0.3-0.01-0.45c-0.01-0.23,0.11-0.33,0.32-0.35
		c0.39-0.04,0.76-0.04,1.02,0.35c0.05,0.08,0.22,0.14,0.3,0.11c0.09-0.04,0.22-0.18,0.22-0.27c-0.01-0.25-0.05-0.5-0.11-0.75
		c-0.06-0.21-0.24-0.26-0.46-0.24c-0.51,0.05-1.03,0.08-1.55,0.12c-0.38,0.02-0.76,0.02-1.14,0.07c-0.11,0.01-0.24,0.15-0.27,0.25
		c-0.03,0.08,0.07,0.22,0.13,0.33c0.08,0.14,0.23,0.28,0.24,0.42c0.04,0.75,0.05,1.5,0.04,2.24c0,0.11-0.09,0.23-0.14,0.34
		c-0.06,0.14-0.2,0.33-0.16,0.4c0.08,0.11,0.27,0.19,0.41,0.2C28.39,6.48,28.83,6.47,29.26,6.47z M29.7,54.61
		c-1.2,0.04-2.01,0.88-1.98,2.05c0.04,1.12,0.92,1.92,2.09,1.89c1.16-0.03,2-0.88,1.97-1.99C31.76,55.43,30.84,54.57,29.7,54.61z
		 M35.3,54.04c-1.24,0-2.15,0.84-2.15,1.99c0,1.15,0.8,1.96,1.94,1.96c1.16,0.01,2.12-0.89,2.12-1.98
		C37.21,54.91,36.37,54.04,35.3,54.04z M11.07,50.33c0.88,0.01,1.39-0.3,1.72-0.91c0.67-1.24-0.04-2.87-1.39-3.21
		c-0.65-0.16-1.24-0.02-1.71,0.49c-0.59,0.64-0.74,1.38-0.39,2.19C9.67,49.75,10.31,50.27,11.07,50.33z M45.87,11.66
		c-0.03-0.27,0.07-0.38,0.23-0.25c0.26,0.2,0.48,0.44,0.7,0.69c0.03,0.03-0.04,0.24-0.09,0.25c-0.41,0.11-0.51,0.35-0.21,0.69
		c0.32,0.35,0.68,0.67,1.04,0.99c0.09,0.08,0.23,0.12,0.34,0.13c0.22,0.01,0.31-0.11,0.3-0.34c-0.01-0.28-0.02-0.57,0.04-0.85
		c0.18-0.87,0.4-1.73,0.57-2.6c0.05-0.28,0.01-0.61-0.09-0.88c-0.2-0.51-0.73-0.57-1.1-0.17c-0.14,0.15-0.29,0.33-0.47,0.43
		c-0.54,0.31-1.1,0.6-1.66,0.86c-0.16,0.08-0.37,0.05-0.55,0.08c-0.12,0.02-0.31,0.01-0.34,0.07c-0.05,0.12-0.08,0.33,0,0.41
		c0.27,0.3,0.55,0.59,0.88,0.82C45.69,12.15,45.9,11.96,45.87,11.66z M8.4,20.22c-0.05-0.09-0.09-0.25-0.19-0.32
		c-0.07-0.04-0.23,0.06-0.34,0.09c-0.13,0.04-0.26,0.1-0.39,0.11c-0.67,0.04-1.34,0.02-2,0.09c-0.44,0.05-0.91,0.14-1.3,0.34
		c-0.5,0.27-0.43,1.01,0.05,1.3c0.19,0.11,0.39,0.23,0.53,0.4c0.43,0.49,0.83,0.99,1.23,1.51c0.12,0.16,0.15,0.39,0.23,0.59
		c0.04,0.1,0.1,0.25,0.17,0.27c0.1,0.02,0.29-0.04,0.32-0.12c0.18-0.4,0.35-0.8,0.44-1.22c0.06-0.3-0.13-0.4-0.41-0.28
		C6.68,23,6.56,23.03,6.53,23c-0.05-0.04-0.08-0.17-0.05-0.23c0.11-0.3,0.23-0.6,0.37-0.89c0.03-0.06,0.13-0.11,0.2-0.11
		c0.04,0,0.09,0.11,0.11,0.17c0.13,0.31,0.36,0.37,0.53,0.09C8.03,21.49,8.27,20.91,8.4,20.22z M21.74,53.27
		c-0.88,0-1.6,0.51-1.84,1.3c-0.26,0.86,0.02,1.69,0.79,2.28c0.19,0.15,0.32,0.32,0.23,0.54c-0.04,0.08-0.26,0.11-0.4,0.12
		c-0.27,0.03-0.37,0.21-0.23,0.44c0.15,0.24,0.75,0.46,1,0.34c0.33-0.15,0.2-0.45,0.19-0.7c0-0.02-0.01-0.04-0.01-0.07
		c-0.04-0.19,0.02-0.28,0.23-0.27c0.25,0.01,0.48-0.02,0.73-0.02c0.31-0.01,0.53-0.17,0.64-0.44c0.05-0.12,0.06-0.31,0.01-0.41
		c-0.04-0.07-0.24-0.08-0.36-0.07c-0.98,0.16-1.61-0.51-1.39-1.5c0.09-0.41,0.29-0.64,0.55-0.66c0.3-0.02,0.62,0.22,0.76,0.59
		c0.06,0.16,0.09,0.33,0.16,0.49c0.12,0.28,0.44,0.38,0.69,0.2c0.31-0.22,0.32-0.56,0.3-0.9c-0.01-0.28-0.14-0.48-0.42-0.57
		c-0.15-0.05-0.28-0.15-0.4-0.25C22.6,53.42,22.19,53.27,21.74,53.27z M40.66,53.18c-0.05,1.3,1.28,2.13,2.31,1.82
		c1.09-0.33,1.68-1.05,1.62-2.16c-0.01-0.09,0.06-0.2,0.08-0.3c0.02-0.13,0.06-0.3,0-0.38c-0.08-0.09-0.28-0.17-0.37-0.12
		c-0.37,0.15-0.72,0.34-1.06,0.56c-0.15,0.09-0.29,0.26-0.36,0.43c-0.12,0.27,0.06,0.46,0.36,0.42c0.1-0.01,0.21,0.05,0.31,0.08
		c-0.06,0.12-0.11,0.28-0.2,0.34c-0.1,0.07-0.27,0.07-0.4,0.04c-0.53-0.12-1.01-0.67-1.09-1.22c-0.08-0.5,0.26-0.88,0.75-0.84
		c0.18,0.01,0.35,0.08,0.53,0.12c0.3,0.07,0.55-0.05,0.63-0.28c0.09-0.25-0.06-0.63-0.33-0.81c-0.25-0.16-0.49-0.24-0.75,0
		c-0.11,0.1-0.27,0.16-0.42,0.21C41.3,51.38,40.66,52.23,40.66,53.18z M43.64,8.87c0.21,0.12,0.39,0.24,0.58,0.33
		c0.5,0.21,1,0.25,1.43-0.12c0.42-0.37,0.55-0.85,0.4-1.4c-0.13-0.46-0.44-0.77-0.84-1c-0.53-0.3-1.07-0.6-1.62-0.88
		c-0.12-0.06-0.29-0.01-0.43-0.02c0,0.15,0,0.3,0.01,0.44c0.01,0.16,0.08,0.35,0.02,0.48c-0.29,0.63-0.61,1.25-0.94,1.86
		c-0.06,0.12-0.23,0.21-0.36,0.27c-0.26,0.1-0.36,0.29-0.18,0.51c0.37,0.44,0.84,0.75,1.41,0.85c0.27,0.05,0.43-0.14,0.32-0.39
		C43.29,9.44,43.44,9.18,43.64,8.87z M17.98,55.61c0.58,0.01,0.96-0.15,1.2-0.58c0.26-0.46,0.48-0.93,0.74-1.38
		c0.08-0.13,0.23-0.25,0.37-0.31c0.3-0.12,0.38-0.35,0.12-0.54c-0.29-0.21-0.61-0.37-0.93-0.52c-0.09-0.04-0.26,0.02-0.33,0.09
		c-0.05,0.05-0.01,0.21,0,0.32c0.01,0.13,0.1,0.29,0.05,0.39c-0.21,0.48-0.45,0.95-0.7,1.41c-0.13,0.24-0.37,0.3-0.64,0.22
		c-0.51-0.14-0.76-0.56-0.57-1.06c0.14-0.37,0.33-0.72,0.54-1.05c0.09-0.15,0.26-0.27,0.42-0.34c0.25-0.11,0.35-0.32,0.15-0.52
		c-0.39-0.41-0.88-0.68-1.42-0.79c-0.29-0.06-0.39,0.11-0.37,0.4c0.01,0.23-0.02,0.49-0.1,0.7c-0.16,0.41-0.39,0.79-0.56,1.19
		c-0.2,0.46-0.12,0.89,0.16,1.28C16.6,55.18,17.28,55.52,17.98,55.61z M38.01,7.8c0.22-0.11,0.43-0.15,0.53-0.27
		c0.15-0.18-0.03-0.34-0.12-0.51c-0.08-0.14-0.11-0.33-0.07-0.48c0.11-0.53,0.25-1.06,0.39-1.59c0.04-0.12,0.13-0.22,0.2-0.34
		c0.08,0.11,0.16,0.22,0.23,0.34C39.2,5,39.18,5.08,39.22,5.11c0.14,0.11,0.29,0.3,0.43,0.3c0.14,0,0.34-0.18,0.4-0.32
		c0.15-0.37,0.09-0.77-0.12-1.11c-0.07-0.12-0.23-0.2-0.37-0.24c-0.65-0.2-1.31-0.33-1.94-0.56c-0.63-0.22-0.84-0.2-1.23,0.35
		c-0.24,0.34-0.27,0.67-0.09,0.85c0.18,0.18,0.43,0.12,0.79-0.15c0.08-0.05,0.18-0.07,0.27-0.09c0.02,0.09,0.06,0.19,0.04,0.27
		c-0.18,0.63-0.37,1.25-0.57,1.87c-0.03,0.09-0.16,0.15-0.24,0.22c-0.11,0.09-0.32,0.18-0.32,0.27c0,0.14,0.11,0.35,0.23,0.41
		C36.98,7.4,37.5,7.59,38.01,7.8z M6.33,26.17c-0.01-0.01-0.03-0.01-0.04-0.02c-0.01-0.11-0.01-0.22-0.04-0.32
		c-0.06-0.19-0.3-0.27-0.4-0.11C5.62,26.11,5.32,26,5.02,25.89c-0.11-0.04-0.25-0.16-0.26-0.25c-0.02-0.2,0.15-0.24,0.32-0.27
		c0.13-0.02,0.33-0.11,0.34-0.19c0.02-0.13-0.06-0.34-0.16-0.4c-0.28-0.16-0.59-0.27-0.9-0.37c-0.2-0.07-0.42-0.07-0.53,0.16
		c-0.11,0.21,0.04,0.35,0.19,0.49c0.16,0.15,0.15,0.36-0.04,0.41c-0.15,0.05-0.37-0.03-0.53-0.12c-0.09-0.05-0.15-0.24-0.13-0.34
		c0.06-0.41,0.22-0.77,0.62-0.98c0.28-0.14,0.32-0.38,0.13-0.57c-0.22-0.22-0.5-0.21-0.78-0.15c-0.23,0.05-0.33,0.22-0.39,0.45
		c-0.22,0.88-0.44,1.75-0.67,2.61c-0.03,0.1-0.08,0.21-0.06,0.31c0.02,0.13,0.07,0.28,0.16,0.35c0.06,0.05,0.22-0.03,0.34-0.05
		c0.17-0.04,0.35-0.14,0.5-0.09c0.58,0.16,1.16,0.35,1.72,0.56c0.13,0.05,0.25,0.18,0.33,0.31c0.09,0.14,0.11,0.38,0.32,0.32
		c0.15-0.04,0.32-0.2,0.36-0.34C6.07,27.23,6.19,26.7,6.33,26.17z M47.03,51.33c0,0.17-0.01,0.26,0,0.35
		c0.02,0.24,0.18,0.38,0.36,0.24c0.49-0.37,0.95-0.77,1.4-1.18c0.06-0.05,0.05-0.26,0-0.35c-0.04-0.07-0.19-0.07-0.3-0.09
		c-0.16-0.04-0.33-0.04-0.48-0.11c-0.6-0.28-1.17-0.59-1.77-0.85c-0.32-0.14-0.66-0.27-1-0.28c-0.6-0.03-0.91,0.57-0.63,1.1
		c0.15,0.29,0.31,0.6,0.37,0.91c0.13,0.72,0.5,1.4,0.24,2.17c-0.06,0.2,0.17,0.38,0.34,0.26c0.33-0.24,0.65-0.5,0.92-0.8
		c0.18-0.2,0.05-0.4-0.23-0.43c-0.18-0.02-0.26-0.12-0.16-0.24C46.33,51.72,46.6,51.46,47.03,51.33z M27.1,58.51
		c0.01-0.01,0.01-0.02,0.01-0.04c0.06,0,0.13,0.02,0.19-0.01c0.13-0.07,0.3-0.12,0.37-0.24c0.04-0.07-0.11-0.24-0.16-0.36
		c-0.08-0.16-0.18-0.31-0.23-0.48c-0.24-0.77-0.44-1.56-0.71-2.33c-0.09-0.26-0.27-0.51-0.48-0.69c-0.34-0.29-0.86-0.15-0.96,0.25
		c-0.22,0.9-0.82,1.56-1.3,2.3c-0.08,0.11-0.23,0.17-0.34,0.27c-0.09,0.08-0.25,0.18-0.25,0.27c0.01,0.12,0.12,0.29,0.23,0.33
		c0.3,0.09,0.62,0.15,0.93,0.17c0.38,0.02,0.47-0.19,0.29-0.52c-0.04-0.06-0.07-0.17-0.04-0.2c0.05-0.05,0.15-0.09,0.22-0.08
		c0.27,0.04,0.54,0.09,0.81,0.17c0.18,0.05,0.21,0.15,0.05,0.29c-0.29,0.24-0.24,0.5,0.12,0.6C26.24,58.32,26.67,58.41,27.1,58.51z
		 M55.72,38.21c0.15,0.14,0.28,0.26,0.41,0.38c0.13-0.16,0.3-0.3,0.37-0.48c0.15-0.37,0.25-0.75,0.35-1.13
		c0.04-0.15,0.04-0.33,0-0.47c-0.05-0.22-0.22-0.25-0.41-0.12c-0.15,0.11-0.32,0.2-0.5,0.24c-0.64,0.12-1.3,0.2-1.94,0.32
		c-0.3,0.06-0.6,0.15-0.87,0.28c-0.31,0.15-0.46,0.43-0.44,0.79c0.02,0.34,0.24,0.49,0.51,0.62c0.23,0.11,0.46,0.27,0.65,0.45
		c0.35,0.33,0.69,0.66,1.01,1.02c0.13,0.14,0.19,0.35,0.29,0.52c0.06,0.11,0.18,0.3,0.23,0.28c0.12-0.03,0.27-0.13,0.33-0.24
		c0.12-0.28,0.22-0.59,0.27-0.89c0.02-0.15-0.08-0.31-0.12-0.47c-0.13,0.04-0.26,0.09-0.39,0.13c-0.03,0.01-0.06,0.01-0.09,0.01
		C55.23,39.15,55.45,38.41,55.72,38.21z M51.14,41.66c-0.01,1.21,0.44,1.95,1.17,2.21c0.74,0.27,1.58-0.02,2.13-0.73
		c0.42-0.54,0.49-1.17,0.51-1.82c0.01-0.12-0.07-0.28-0.16-0.37c-0.14-0.12-0.32-0.19-0.49-0.28c-0.05,0.16-0.11,0.31-0.16,0.47
		c-0.01,0.03,0.01,0.07,0,0.09c-0.04,0.47-0.19,0.85-0.64,1.06c-0.46,0.21-0.88,0.09-1.25-0.18c-0.33-0.24-0.36-0.57-0.09-0.89
		c0.2-0.25,0.47-0.37,0.8-0.38c0.41-0.01,0.6-0.28,0.5-0.67c-0.09-0.36-0.4-0.44-0.71-0.5c-0.27-0.05-0.53-0.02-0.67,0.3
		c-0.05,0.12-0.14,0.24-0.24,0.33C51.35,40.76,51.15,41.32,51.14,41.66z M8.49,41.83c-0.04-0.18-0.05-0.37-0.12-0.53
		c-0.34-0.71-0.71-1.41-1.08-2.11c-0.05-0.09-0.22-0.17-0.3-0.15c-0.08,0.02-0.16,0.19-0.16,0.3c-0.01,0.2-0.05,0.35-0.24,0.45
		c-0.51,0.27-1.02,0.56-1.54,0.83c-0.11,0.05-0.25,0.07-0.36,0.04c-0.4-0.11-0.58,0.03-0.44,0.43c0.14,0.41,0.35,0.8,0.57,1.18
		c0.06,0.11,0.26,0.21,0.39,0.21c0.08-0.01,0.15-0.21,0.22-0.34c0.04-0.07,0.07-0.16,0.12-0.22c0.28-0.29,0.41-0.26,0.6,0.09
		c0.11,0.21,0.25,0.43,0.4,0.61C6.88,43,7.38,43.1,7.82,42.91C8.23,42.74,8.47,42.35,8.49,41.83z M53.15,20.01
		c-0.01,0.02-0.02,0.04-0.03,0.06c-0.03,0-0.06,0.01-0.09,0.01c-0.31,0.01-0.59-0.21-0.69-0.52c-0.09-0.3,0.13-0.42,0.33-0.55
		c0.44-0.29,0.89-0.58,1.33-0.87c0.19-0.12,0.36-0.18,0.58-0.05c0.2,0.12,0.35,0.02,0.38-0.21c0.02-0.11,0.02-0.25-0.04-0.34
		c-0.26-0.49-0.53-0.96-0.83-1.43c-0.06-0.09-0.26-0.15-0.38-0.13c-0.07,0.01-0.11,0.22-0.16,0.34c-0.07,0.15-0.1,0.37-0.22,0.46
		c-0.5,0.37-1.03,0.72-1.56,1.04c-0.13,0.08-0.33,0.05-0.51,0.06c-0.12,0.01-0.32-0.06-0.33-0.02c-0.06,0.12-0.08,0.28-0.05,0.41
		c0.02,0.12,0.1,0.23,0.16,0.35c0.34,0.69,0.68,1.37,1.03,2.06c0.05,0.1,0.13,0.21,0.22,0.25c0.29,0.14,0.89,0.01,1.09-0.25
		c0.09-0.12,0.13-0.32,0.1-0.46C53.48,20.11,53.27,20.07,53.15,20.01z M15.68,11.46c-0.05-0.47-0.12-0.83-0.43-1.07
		c-0.09-0.07-0.28-0.11-0.37-0.06c-0.08,0.04-0.11,0.22-0.12,0.35c-0.01,0.18,0.08,0.39,0.01,0.53c-0.09,0.2-0.26,0.4-0.45,0.49
		c-0.09,0.04-0.33-0.13-0.44-0.26c-0.36-0.44-0.69-0.89-1.01-1.35c-0.09-0.14-0.07-0.35-0.11-0.53c-0.02-0.13-0.02-0.31-0.1-0.37
		c-0.08-0.07-0.29-0.06-0.37,0c-0.33,0.23-0.64,0.49-0.93,0.76c-0.16,0.15-0.29,0.35-0.37,0.55c-0.12,0.31,0.04,0.49,0.36,0.4
		c0.2-0.05,0.31,0,0.43,0.16c0.34,0.46,0.69,0.89,1.03,1.34c0.2,0.26,0.38,0.51,0.23,0.88c-0.03,0.07,0.03,0.23,0.09,0.27
		c0.07,0.04,0.2,0.01,0.29-0.02c0.06-0.02,0.12-0.09,0.18-0.14c0.61-0.52,1.23-1.04,1.84-1.57C15.58,11.72,15.64,11.54,15.68,11.46z
		 M8.97,12.92c0.1,0.07,0.22,0.22,0.32,0.21c0.36-0.07,0.58,0.12,0.8,0.35c0.31,0.32,0.62,0.64,0.93,0.96
		c0.18,0.2,0.33,0.4,0.33,0.7c0,0.24,0.2,0.37,0.39,0.25c0.57-0.35,0.97-0.86,1.18-1.49c0.09-0.26-0.07-0.37-0.34-0.4
		c-0.18-0.01-0.4-0.07-0.53-0.18c-0.41-0.37-0.79-0.77-1.16-1.18c-0.12-0.13-0.17-0.33-0.24-0.5c-0.05-0.14-0.08-0.4-0.13-0.41
		c-0.15-0.02-0.38,0.02-0.48,0.12c-0.34,0.4-0.65,0.83-0.96,1.26C9.03,12.68,9.02,12.76,8.97,12.92z M41.08,4.54
		c-0.34-0.02-0.44,0.14-0.36,0.49c0.05,0.21,0.08,0.46,0.01,0.65c-0.22,0.6-0.47,1.19-0.73,1.78c-0.04,0.09-0.15,0.18-0.25,0.24
		c-0.35,0.2-0.41,0.47-0.08,0.67c0.43,0.26,0.9,0.47,1.38,0.62c0.36,0.11,0.49-0.13,0.39-0.5c-0.05-0.17-0.09-0.39-0.03-0.55
		c0.2-0.59,0.44-1.16,0.69-1.73c0.06-0.14,0.21-0.27,0.35-0.34c0.32-0.15,0.4-0.43,0.12-0.66C42.14,4.85,41.64,4.62,41.08,4.54z
		 M3.83,31.39c-0.56,0-1.02,0.46-1,1.02c0.01,0.54,0.46,1,1,1.01c0.52,0.01,0.98-0.47,0.99-1.01C4.81,31.86,4.36,31.39,3.83,31.39z
		 M55.33,33.41c0.56,0,0.96-0.44,0.96-1.05c0-0.54-0.44-0.96-0.98-0.96c-0.55,0-0.98,0.44-0.99,1
		C54.32,32.96,54.76,33.41,55.33,33.41z M26.46,54.21c0.4-0.01,0.59-0.18,0.63-0.44c0.02-0.15-0.06-0.35-0.18-0.46
		c-0.06-0.06-0.27,0.04-0.41,0.05c-0.1,0.01-0.21,0.05-0.29,0.02c-0.15-0.06-0.26-0.18-0.41-0.24c-0.17-0.07-0.38-0.14-0.54-0.09
		c-0.13,0.04-0.27,0.23-0.31,0.38c-0.04,0.14,0.02,0.35,0.12,0.45c0.06,0.07,0.27-0.04,0.42-0.04c0.13,0,0.27,0.02,0.39,0.08
		C26.12,54.01,26.33,54.14,26.46,54.21z M44.89,48.08c-0.79,0.02-0.97,0.18-1.13,0.95c-0.04,0.21-0.15,0.49,0.13,0.59
		c0.28,0.1,0.37-0.19,0.44-0.39c0.12-0.3,0.31-0.47,0.62-0.53c0.21-0.04,0.5-0.07,0.47-0.37C45.38,47.99,45.07,48.11,44.89,48.08z
		 M9.78,10.86c-0.12-0.17-0.23-0.44-0.3-0.43c-0.2,0.03-0.4,0.15-0.55,0.29c-0.15,0.14-0.29,0.31-0.18,0.57
		c0.05,0.12,0.05,0.27,0.09,0.39c0.04,0.11,0.08,0.28,0.15,0.31c0.09,0.02,0.26-0.05,0.31-0.14C9.47,11.55,9.6,11.23,9.78,10.86z"/>
	<path class="st0" d="M56.26,57.71c-1.98,0.08-3.8-1.72-3.7-3.95c0.08-1.84,1.65-3.62,3.83-3.57c1.92,0.04,3.62,1.72,3.61,3.84
		C59.99,55.98,58.3,57.82,56.26,57.71z M54.64,56.34c0-1.53,0-3.05,0-4.65c0.8,0.05,1.59,0.07,2.37,0.17
		c0.48,0.06,0.82,0.4,0.92,0.91c0.1,0.53-0.02,1-0.44,1.36c-0.09,0.08-0.18,0.14-0.3,0.23c0.4,0.6,0.79,1.19,1.18,1.79
		c1.21-1.11,1.22-3.06,0.05-4.31c-1.12-1.19-3.12-1.2-4.28-0.01c-1.2,1.23-1.16,3.22,0.09,4.41c1.16,1.09,3,0.98,3.85,0.14
		c-0.23,0-0.43-0.01-0.62,0.01c-0.21,0.02-0.34-0.05-0.44-0.25c-0.23-0.44-0.47-0.86-0.74-1.28c-0.06-0.09-0.22-0.12-0.33-0.18
		c-0.04,0.1-0.11,0.2-0.11,0.3c-0.01,0.46-0.01,0.92-0.01,1.39C55.41,56.34,55.04,56.34,54.64,56.34z M55.84,53.2
		c0,0.56,0.1,0.65,0.54,0.51c0.28-0.09,0.42-0.35,0.36-0.66c-0.05-0.28-0.32-0.44-0.69-0.41c-0.37,0.04-0.15,0.33-0.2,0.5
		C55.83,53.16,55.84,53.18,55.84,53.2z"/>
	<path class="st0" d="M51.36,30.12c0,11.93-9.48,21.61-21.27,21.64C18.16,51.8,8.73,42.06,8.68,30.24
		C8.62,18.19,18.23,8.53,29.93,8.49C41.79,8.44,51.37,18.19,51.36,30.12z M30.26,35.5L30.26,35.5c-5.15,0-10.31,0-15.46,0
		c-0.46,0-0.46,0.01-0.46,0.47c0.03,1.48,0.29,2.93,0.82,4.31c1.33,3.46,3.74,5.95,6.94,7.67c1.95,1.05,4.05,1.67,6.26,1.89
		c3.25,0.33,6.37-0.12,9.34-1.52c2.38-1.12,4.39-2.69,5.95-4.83c1.59-2.18,2.47-4.63,2.54-7.35c0.02-0.66,0.12-0.63-0.63-0.63
		C40.47,35.5,35.37,35.5,30.26,35.5z M27.85,34.85c0.02-0.03,0.04-0.07,0.05-0.09c-2.54-3.81-5.08-7.61-7.61-11.42
		c0.04-0.03,0.08-0.06,0.12-0.09c2.88,3.67,5.76,7.35,8.68,11.07c0.06-0.14,0.08-0.17,0.09-0.21c0.29-1.66,0.97-3.14,1.92-4.51
		c0.57-0.82,1.18-1.63,1.98-2.24c0.22-0.17,0.35-0.35,0.43-0.61c0.35-1.25,0.69-2.5,1.07-3.74c0.05-0.17,0.2-0.35,0.36-0.43
		c0.44-0.24,0.7-0.59,0.74-1.08c0.05-0.57-0.25-1.04-0.81-1.29c-0.4-0.18-1-0.05-1.32,0.28c-0.4,0.41-0.52,0.98-0.26,1.47
		c0.12,0.23,0.11,0.41-0.02,0.63c-0.72,1.22-1.42,2.45-2.14,3.68c-0.21,0.35-0.25,0.35-0.48,0c-0.66-0.98-1.42-1.87-2.3-2.65
		c-1.58-1.41-3.38-2.44-5.39-3.1c-1.85-0.6-3.75-0.87-5.69-0.85c-0.24,0-0.34,0.09-0.37,0.33c-0.12,1-0.28,2-0.36,3
		c-0.17,2.3,0.2,4.51,1.1,6.63c0.79,1.87,1.96,3.47,3.44,4.84c0.29,0.27,0.6,0.41,1.02,0.41c1.81-0.02,3.62-0.01,5.43-0.01
		C27.63,34.85,27.74,34.85,27.85,34.85z M33.17,34.79c2.56,0,5.02,0.01,7.48-0.01c0.16,0,0.36-0.09,0.47-0.22
		c0.49-0.56,1-1.11,1.41-1.73c1.52-2.27,2.03-4.79,1.76-7.5c-0.02-0.19-0.09-0.25-0.28-0.26c-2.4-0.04-4.77,0.05-7.04,1.01
		c-1.52,0.65-2.89,1.52-4.04,2.71c-1.1,1.14-1.94,2.46-2.46,3.97c-0.2,0.56-0.32,1.15-0.45,1.74c-0.02,0.08,0.07,0.26,0.11,0.26
		c0.55,0,1.11,0.14,1.62-0.25c0.48-0.38,1.01-0.7,1.51-1.06c1.41-0.99,2.81-1.98,4.21-2.98c1.21-0.86,2.42-1.72,3.64-2.57
		c0.15-0.11,0.33-0.18,0.49-0.27c0.03,0.04,0.06,0.09,0.09,0.13C38.86,30.1,36.05,32.42,33.17,34.79z"/>
	<path class="st0" d="M54.88,26.06c0.12-0.26-0.02-1.15-0.19-1.3c-0.13-0.11-0.22-0.08-0.29,0.09c-0.05,0.11-0.17,0.28-0.22,0.26
		c-0.13-0.04-0.3-0.13-0.33-0.24c-0.12-0.41-0.2-0.85-0.3-1.27c-0.03-0.12-0.06-0.26-0.14-0.35c-0.42-0.48-0.68-1.04-0.78-1.66
		c-0.06-0.37,0.1-0.48,0.46-0.39c0.12,0.03,0.29,0.04,0.4-0.01c0.53-0.24,1.06-0.49,1.56-0.79c0.18-0.1,0.3-0.32,0.39-0.51
		c0.14-0.32,0.3-0.37,0.53-0.11c0.4,0.46,0.64,1.01,0.76,1.6c0.08,0.35-0.15,0.5-0.48,0.4c-0.18-0.05-0.41-0.05-0.57,0.03
		c-0.48,0.22-0.95,0.47-1.41,0.73c-0.13,0.07-0.26,0.2-0.33,0.33c-0.17,0.35,0.05,0.79,0.5,0.86c0.87,0.14,1.73,0.42,2.63,0.2
		c0.44-0.11,0.83,0.27,0.77,0.76c-0.03,0.27-0.14,0.58-0.32,0.78c-0.6,0.68-1.24,1.31-1.85,1.98c-0.16,0.17-0.25,0.4-0.39,0.6
		c-0.05,0.08-0.14,0.22-0.2,0.21c-0.12-0.01-0.29-0.08-0.33-0.17c-0.15-0.33-0.27-0.67-0.38-1.02c-0.07-0.24-0.12-0.5-0.13-0.76
		c-0.01-0.14,0.07-0.31,0.16-0.41c0.04-0.04,0.23,0.07,0.36,0.11C54.81,26.03,54.84,26.04,54.88,26.06z M55.76,25.4
		c0.19-0.17,0.49-0.27,0.41-0.56c-0.02-0.08-0.4-0.17-0.5-0.09C55.42,24.94,55.68,25.17,55.76,25.4z"/>
	<path class="st0" d="M17.66,9.58c0.56-0.79,0.3-1.68,0.32-2.51C17.98,6.71,17.89,6.34,17.8,6c-0.09-0.32-0.06-0.6,0.18-0.83
		c0.22-0.22,0.59-0.28,0.89-0.1c0.37,0.22,0.72,0.48,1.06,0.76c0.4,0.33,0.76,0.72,1.16,1.04c0.2,0.17,0.46,0.28,0.7,0.39
		c0.2,0.09,0.29,0.26,0.15,0.46C21.82,7.86,21.67,8,21.51,8.1c-0.33,0.2-0.67,0.37-1.02,0.51c-0.15,0.06-0.36,0.04-0.5-0.04
		c-0.06-0.03-0.04-0.28-0.01-0.43c0.04-0.19-0.06-0.27-0.19-0.22c-0.31,0.12-0.62,0.27-0.9,0.46c-0.15,0.1-0.13,0.25,0.09,0.31
		c0.33,0.09,0.4,0.34,0.13,0.57c-0.38,0.34-0.81,0.58-1.35,0.55c-0.25,0.59-0.76,0.92-1.3,1.21c-0.13,0.08-0.36,0.08-0.5,0.02
		c-0.07-0.03-0.05-0.28-0.08-0.43c-0.04-0.18-0.04-0.37-0.12-0.52c-0.26-0.49-0.53-0.98-0.85-1.43c-0.12-0.17-0.34-0.3-0.54-0.38
		c-0.23-0.1-0.35-0.24-0.22-0.46C14.5,7.26,15,6.85,15.64,6.67c0.25-0.07,0.44,0.12,0.34,0.37c-0.11,0.29-0.04,0.53,0.1,0.76
		c0.28,0.48,0.57,0.96,0.86,1.43C17.13,9.5,17.13,9.49,17.66,9.58z M18.58,7.11c0.09,0.12,0.21,0.32,0.24,0.31
		c0.16-0.07,0.29-0.18,0.44-0.28c-0.16-0.12-0.32-0.25-0.47-0.38C18.73,6.85,18.67,6.96,18.58,7.11z"/>
	<path class="st0" d="M48.89,45.93c-0.38,0.1-0.55-0.12-0.37-0.43c0.19-0.31,0.47-0.56,0.72-0.84c0.09-0.11,0.19-0.21,0.26-0.33
		c0.28-0.44,0.54-0.89,0.83-1.31c0.06-0.09,0.26-0.16,0.36-0.13c0.09,0.03,0.13,0.21,0.2,0.32c0.1,0.17,0.17,0.37,0.32,0.49
		c0.39,0.32,0.79,0.62,1.2,0.89c0.13,0.08,0.34,0.08,0.51,0.07c0.26-0.01,0.41,0.09,0.35,0.35c-0.13,0.59-0.46,1.08-0.9,1.48
		c-0.2,0.18-0.39,0.08-0.47-0.18c-0.06-0.17-0.15-0.36-0.28-0.47c-0.4-0.33-0.82-0.64-1.24-0.95c-0.2-0.14-0.44-0.21-0.61-0.01
		c-0.19,0.22-0.07,0.45,0.11,0.63c0.46,0.44,0.93,0.87,1.39,1.31c0.19,0.19,0.47,0.37,0.37,0.69c-0.1,0.32-0.42,0.28-0.68,0.32
		c-0.58,0.1-1.17,0.18-1.76,0.27c-0.09,0.02-0.25,0.08-0.26,0.13c-0.01,0.09,0.05,0.22,0.12,0.3c0.19,0.2,0.39,0.38,0.71,0.33
		c0.25-0.05,0.4,0.14,0.32,0.4c-0.12,0.42-0.39,0.74-0.75,0.95c-0.25,0.14-0.41,0.01-0.48-0.27c-0.05-0.21-0.14-0.45-0.28-0.61
		c-0.27-0.31-0.6-0.58-0.91-0.85c-0.2-0.17-0.43-0.28-0.73-0.22c-0.27,0.06-0.39-0.1-0.34-0.38c0.09-0.45,0.67-0.99,1.11-1.06
		c0.51-0.08,1.02-0.17,1.53-0.26c0.09-0.02,0.16-0.08,0.25-0.12c-0.05-0.08-0.08-0.2-0.16-0.25C49.22,46.08,49.05,46.01,48.89,45.93
		z"/>
	<path class="st0" d="M9.04,16.25c0.18,0.33,0.35,0.66,0.52,0.99c0.08,0.14,0.16,0.28,0.21,0.43c0.09,0.28-0.03,0.41-0.32,0.37
		c-0.4-0.07-0.79-0.14-1.18-0.21c-0.07-0.01-0.14,0-0.22,0c0.12,0.37,0.61,0.68,0.97,0.63c0.24-0.04,0.41,0.1,0.32,0.32
		C9.2,19.13,9,19.48,8.76,19.78c-0.16,0.21-0.36,0.09-0.43-0.15c-0.06-0.21-0.16-0.45-0.32-0.59c-0.42-0.38-0.87-0.75-1.34-1.08
		c-0.15-0.11-0.39-0.12-0.58-0.1c-0.29,0.02-0.48-0.09-0.39-0.36c0.14-0.4,0.36-0.79,0.59-1.15c0.06-0.09,0.29-0.12,0.43-0.11
		c0.39,0.02,0.78,0.07,1.17,0.11c0.27,0.02,0.34-0.07,0.23-0.31c-0.14-0.31-0.3-0.62-0.45-0.92c-0.29-0.56-0.06-1.33,0.48-1.65
		c0.19-0.11,0.41-0.11,0.47,0.13c0.11,0.49,0.48,0.74,0.83,1.01c0.28,0.22,0.58,0.44,0.89,0.62c0.15,0.09,0.35,0.13,0.53,0.13
		c0.29,0,0.44,0.1,0.38,0.38c-0.13,0.57-0.46,1.04-0.88,1.41c-0.19,0.17-0.37,0.08-0.44-0.2c-0.11-0.44-0.44-0.61-0.77-0.8
		C9.11,16.19,9.07,16.22,9.04,16.25z"/>
	<path class="st0" d="M34.73,4.65c0.62,0.34,0.66,0.82,0.68,1.33c0.01,0.1,0.09,0.21,0.16,0.3c0.23,0.27,0.16,0.56-0.18,0.63
		c-0.89,0.17-1.41-0.09-1.55-0.99c-0.04-0.23-0.04-0.47-0.11-0.7c-0.04-0.11-0.18-0.18-0.27-0.27c-0.06,0.1-0.15,0.2-0.17,0.31
		c-0.06,0.28-0.06,0.56,0.15,0.82c0.16,0.21,0.05,0.47-0.22,0.5c-0.52,0.07-1.04,0.02-1.52-0.22c-0.29-0.14-0.29-0.38-0.09-0.63
		c0.13-0.16,0.27-0.36,0.3-0.56c0.1-0.57,0.18-1.15,0.21-1.72c0.01-0.21-0.09-0.44-0.19-0.64c-0.13-0.24-0.07-0.5,0.2-0.55
		c0.16-0.03,0.34-0.02,0.5-0.01c0.51,0.06,1.03,0.11,1.53,0.21c0.27,0.05,0.57,0.14,0.79,0.3C35.6,3.17,35.6,4.01,35,4.49
		C34.95,4.55,34.88,4.57,34.73,4.65z M33.98,3.62c-0.01-0.07,0.01-0.14-0.02-0.18c-0.08-0.1-0.17-0.2-0.25-0.29
		c-0.07,0.09-0.16,0.18-0.2,0.28c-0.05,0.11-0.08,0.23-0.06,0.34c0.02,0.12,0.08,0.25,0.13,0.37c0.12-0.09,0.25-0.16,0.34-0.27
		C33.98,3.82,33.97,3.7,33.98,3.62z"/>
	<path class="st0" d="M25.49,2.65c0.88,0.01,1.32,0.72,1,1.39c-0.12,0.25-0.12,0.35,0.15,0.49c0.72,0.34,0.75,1.54,0.05,2.02
		c-0.21,0.15-0.47,0.25-0.72,0.3c-0.63,0.15-1.26,0.27-1.9,0.37c-0.17,0.03-0.4,0.01-0.51-0.09c-0.07-0.05,0.02-0.31,0.05-0.48
		c0.02-0.12,0.08-0.25,0.07-0.37c-0.08-0.72-0.15-1.43-0.26-2.14C23.39,4,23.23,3.88,23.14,3.75c-0.08-0.11-0.22-0.22-0.2-0.32
		c0.02-0.12,0.15-0.3,0.26-0.32C24.01,2.93,24.82,2.77,25.49,2.65z M25,5.41c0.05,0.24,0.07,0.44,0.14,0.63
		c0.03,0.08,0.15,0.17,0.23,0.17c0.08,0,0.19-0.08,0.25-0.16c0.12-0.2,0.05-0.63-0.13-0.77c-0.08-0.06-0.22-0.09-0.32-0.08
		C25.09,5.22,25.05,5.34,25,5.41z M25.31,4.07c-0.07-0.17-0.12-0.34-0.21-0.49c-0.04-0.06-0.18-0.11-0.24-0.09
		c-0.06,0.02-0.11,0.15-0.1,0.24c0.01,0.2,0.04,0.4,0.09,0.6c0.05,0.19,0.19,0.2,0.3,0.07C25.23,4.31,25.25,4.19,25.31,4.07z"/>
	<path class="st0" d="M39.99,54.42c0.55,0.01,0.8,0.35,1.03,0.74c0.05,0.08,0.16,0.13,0.26,0.16c0.27,0.09,0.34,0.28,0.19,0.51
		c-0.38,0.59-1.27,0.67-1.73,0.15c-0.16-0.18-0.29-0.4-0.46-0.57c-0.08-0.08-0.23-0.09-0.36-0.13c-0.01,0.12-0.05,0.26-0.01,0.37
		c0.06,0.24,0.18,0.44,0.44,0.55c0.22,0.09,0.24,0.31,0.06,0.47c-0.41,0.35-0.9,0.55-1.44,0.59c-0.3,0.02-0.37-0.14-0.33-0.44
		c0.04-0.23,0.05-0.49-0.01-0.72c-0.13-0.47-0.31-0.93-0.5-1.38c-0.07-0.16-0.23-0.3-0.38-0.39c-0.25-0.15-0.29-0.33-0.08-0.53
		c0.06-0.06,0.13-0.12,0.2-0.15c0.68-0.27,1.35-0.56,2.03-0.8c0.17-0.06,0.38-0.05,0.56-0.01c0.56,0.11,0.85,0.7,0.64,1.25
		C40.09,54.18,40.05,54.28,39.99,54.42z M38.94,54.34c-0.08-0.18-0.1-0.33-0.18-0.43c-0.07-0.08-0.2-0.1-0.32-0.15
		c-0.03,0.11-0.08,0.22-0.08,0.33c-0.01,0.09,0.02,0.2,0.06,0.28c0.06,0.09,0.15,0.17,0.23,0.25
		C38.75,54.53,38.85,54.43,38.94,54.34z"/>
	<path class="st0" d="M9.14,45.91c0,0.11,0.02,0.21-0.01,0.3c-0.05,0.21-0.09,0.44-0.19,0.63c-0.14,0.24-0.35,0.43-0.36,0.76
		c0,0.24-0.23,0.24-0.41,0.16c-0.65-0.28-0.9-1.22-0.48-1.8c0.13-0.19,0.3-0.37,0.4-0.57c0.05-0.09-0.01-0.24-0.02-0.35
		c-0.11,0.02-0.25,0.01-0.31,0.07c-0.16,0.17-0.31,0.37-0.4,0.58c-0.11,0.25-0.3,0.37-0.47,0.17c-0.32-0.4-0.61-0.82-0.83-1.27
		c-0.16-0.33,0.02-0.47,0.38-0.47c0.18,0,0.38-0.05,0.53-0.15c0.41-0.28,0.82-0.57,1.2-0.89c0.13-0.11,0.22-0.33,0.26-0.51
		c0.06-0.27,0.23-0.37,0.45-0.2c0.13,0.1,0.24,0.24,0.33,0.38c0.33,0.46,0.66,0.92,0.95,1.4c0.15,0.24,0.25,0.53,0.29,0.8
		c0.09,0.66-0.4,1.11-1.04,1.01C9.32,45.94,9.25,45.93,9.14,45.91z M9.38,44.25c-0.02-0.04-0.11-0.17-0.12-0.16
		c-0.22,0.11-0.44,0.22-0.65,0.36c-0.02,0.01,0.05,0.15,0.08,0.23c0.01,0.02,0.04,0.02,0.05,0.04C8.98,44.82,9.37,44.58,9.38,44.25z
		"/>
	<path class="st0" d="M16.33,51.41c-0.06,0.63-0.43,1.28-1.17,1.67c-0.71,0.37-1.32,0.13-1.91-0.32c-0.46-0.35-0.92-0.68-1.38-1.02
		c-0.11-0.08-0.22-0.18-0.29-0.3c-0.12-0.21-0.01-0.43,0.23-0.43c0.25,0.01,0.4-0.11,0.53-0.29c0.32-0.46,0.65-0.9,0.95-1.37
		c0.09-0.14,0.08-0.35,0.11-0.53c0.02-0.12,0.02-0.28,0.09-0.34c0.08-0.06,0.26-0.05,0.34,0.01c0.68,0.49,1.36,0.98,2,1.51
		C16.2,50.31,16.35,50.75,16.33,51.41z M15.11,50.54c-0.07-0.13-0.15-0.32-0.27-0.48c-0.11-0.14-0.26-0.15-0.37,0.02
		c-0.36,0.54-0.72,1.08-1.07,1.62c-0.15,0.22-0.05,0.41,0.17,0.48c0.18,0.05,0.43,0.07,0.57-0.02
		C14.67,51.79,14.97,51.27,15.11,50.54z"/>
	<path class="st0" d="M48.54,14.41c0.05-1.31,1.09-2.31,2.27-2.14c0.83,0.12,1.32,0.69,1.7,1.41c0.06,0.12,0.13,0.25,0.23,0.33
		c0.24,0.21,0.26,0.46,0.18,0.73c-0.1,0.32-0.27,0.59-0.62,0.66c-0.26,0.05-0.48-0.14-0.51-0.44c-0.02-0.2,0.02-0.41,0.02-0.61
		c0-0.34-0.06-0.64-0.39-0.82c-0.32-0.17-0.61-0.05-0.85,0.15c-0.44,0.37-0.74,0.82-0.73,1.43c0,0.11,0.03,0.24,0.08,0.34
		c0.08,0.17,0.22,0.31,0.4,0.19c0.07-0.05,0.05-0.24,0.06-0.37c0.02-0.16-0.02-0.38,0.07-0.46c0.09-0.07,0.33-0.05,0.45,0.02
		c0.46,0.3,0.8,0.73,1.01,1.25c0.06,0.14,0.03,0.37-0.05,0.51c-0.04,0.07-0.27,0.04-0.41,0.04c-0.08,0.01-0.18-0.03-0.25,0.01
		c-0.89,0.5-1.99-0.28-2.33-1.14C48.71,15.16,48.64,14.77,48.54,14.41z"/>
	<path class="st0" d="M29.26,6.47c-0.43,0-0.87,0.02-1.3-0.01c-0.15-0.01-0.33-0.08-0.41-0.2c-0.04-0.06,0.1-0.26,0.16-0.4
		c0.05-0.11,0.14-0.23,0.14-0.34c0-0.75-0.01-1.5-0.04-2.24c-0.01-0.14-0.16-0.28-0.24-0.42c-0.06-0.11-0.15-0.24-0.13-0.33
		c0.04-0.11,0.17-0.24,0.27-0.25c0.38-0.05,0.76-0.05,1.14-0.07c0.52-0.04,1.03-0.07,1.55-0.12c0.22-0.02,0.4,0.02,0.46,0.24
		c0.07,0.24,0.11,0.5,0.11,0.75c0,0.09-0.12,0.23-0.22,0.27c-0.08,0.03-0.25-0.04-0.3-0.11c-0.26-0.38-0.63-0.38-1.02-0.35
		c-0.21,0.02-0.33,0.12-0.32,0.35c0.01,0.15-0.02,0.31,0.01,0.45c0.02,0.08,0.12,0.2,0.19,0.2c0.09,0.01,0.19-0.08,0.28-0.14
		c0.01-0.01,0.01-0.04,0.02-0.06c0.1-0.14,0.2-0.27,0.3-0.4c0.11,0.15,0.31,0.3,0.32,0.46c0.02,0.4-0.03,0.8-0.08,1.2
		c-0.01,0.08-0.15,0.21-0.23,0.21c-0.08,0-0.15-0.14-0.23-0.22c-0.1-0.1-0.2-0.21-0.3-0.31c-0.06,0.13-0.17,0.26-0.17,0.39
		c-0.01,0.69,0.11,0.78,0.78,0.67c0.34-0.05,0.53-0.26,0.69-0.54c0.06-0.12,0.22-0.18,0.34-0.27c0.08,0.15,0.25,0.3,0.23,0.44
		c-0.03,0.29-0.12,0.59-0.25,0.86c-0.06,0.12-0.26,0.22-0.4,0.24c-0.46,0.03-0.91,0.01-1.37,0.01C29.26,6.43,29.26,6.45,29.26,6.47z
		"/>
	<path class="st0" d="M29.7,54.61c1.14-0.04,2.07,0.82,2.09,1.95c0.03,1.11-0.82,1.96-1.97,1.99c-1.17,0.03-2.07-0.77-2.09-1.89
		C27.68,55.48,28.5,54.64,29.7,54.61z M30.42,57.02c-0.13-0.39-0.24-0.79-0.4-1.17c-0.1-0.24-0.3-0.46-0.6-0.35
		c-0.27,0.1-0.37,0.37-0.31,0.63c0.09,0.39,0.22,0.77,0.36,1.15c0.09,0.24,0.27,0.4,0.54,0.34C30.32,57.56,30.34,57.3,30.42,57.02z"
		/>
	<path class="st0" d="M35.3,54.04c1.07,0,1.91,0.88,1.91,1.98c0,1.09-0.96,1.99-2.12,1.98c-1.14-0.01-1.94-0.82-1.94-1.96
		C33.14,54.87,34.05,54.03,35.3,54.04z M34.43,55.38c0.12,0.64,0.34,1.15,0.78,1.53c0.1,0.09,0.33,0.09,0.47,0.05
		c0.1-0.04,0.2-0.24,0.2-0.36c-0.03-0.6-0.28-1.11-0.72-1.51c-0.11-0.09-0.34-0.14-0.46-0.08C34.56,55.07,34.5,55.28,34.43,55.38z"
		/>
	<path class="st0" d="M11.07,50.33c-0.76-0.05-1.41-0.57-1.78-1.43c-0.35-0.81-0.2-1.56,0.39-2.19c0.47-0.51,1.06-0.65,1.71-0.49
		c1.35,0.34,2.05,1.97,1.39,3.21C12.46,50.03,11.96,50.33,11.07,50.33z M11.82,47.8c0-0.5-0.29-0.72-0.61-0.55
		c-0.37,0.2-0.88,1.21-0.82,1.63c0.05,0.34,0.36,0.51,0.62,0.3C11.47,48.81,11.75,48.32,11.82,47.8z"/>
	<path class="st0" d="M45.87,11.66c0.03,0.31-0.18,0.49-0.42,0.32c-0.33-0.22-0.61-0.52-0.88-0.82c-0.07-0.08-0.05-0.3,0-0.41
		c0.03-0.07,0.22-0.05,0.34-0.07c0.19-0.03,0.39-0.01,0.55-0.08c0.57-0.27,1.12-0.56,1.66-0.86c0.18-0.1,0.33-0.27,0.47-0.43
		c0.37-0.4,0.9-0.34,1.1,0.17c0.1,0.27,0.14,0.6,0.09,0.88c-0.16,0.88-0.39,1.73-0.57,2.6c-0.05,0.27-0.05,0.56-0.04,0.85
		c0.01,0.24-0.08,0.36-0.3,0.34c-0.12-0.01-0.26-0.05-0.34-0.13c-0.36-0.32-0.72-0.63-1.04-0.99c-0.3-0.33-0.2-0.57,0.21-0.69
		c0.05-0.01,0.12-0.22,0.09-0.25c-0.22-0.24-0.44-0.49-0.7-0.69C45.94,11.27,45.84,11.38,45.87,11.66z M47.26,11.34
		c0.05-0.18,0.11-0.28,0.11-0.39c0.01-0.14-0.02-0.28-0.04-0.42c-0.16,0.07-0.33,0.11-0.47,0.2c-0.04,0.02-0.05,0.18-0.01,0.24
		C46.96,11.09,47.09,11.18,47.26,11.34z"/>
	<path class="st0" d="M8.4,20.22c-0.12,0.7-0.37,1.28-0.71,1.81c-0.18,0.28-0.4,0.22-0.53-0.09c-0.03-0.07-0.08-0.17-0.11-0.17
		c-0.07,0.01-0.18,0.05-0.2,0.11c-0.13,0.29-0.26,0.59-0.37,0.89c-0.02,0.07,0,0.19,0.05,0.23c0.04,0.04,0.15,0.01,0.22-0.02
		c0.28-0.11,0.48-0.01,0.41,0.28c-0.09,0.42-0.27,0.82-0.44,1.22c-0.04,0.08-0.22,0.14-0.32,0.12c-0.07-0.01-0.13-0.17-0.17-0.27
		c-0.08-0.2-0.11-0.42-0.23-0.59c-0.39-0.52-0.8-1.02-1.23-1.51c-0.14-0.17-0.34-0.28-0.53-0.4c-0.48-0.3-0.55-1.04-0.05-1.3
		c0.39-0.21,0.85-0.3,1.3-0.34c0.66-0.07,1.33-0.06,2-0.09c0.13-0.01,0.26-0.07,0.39-0.11c0.12-0.04,0.27-0.14,0.34-0.09
		C8.31,19.96,8.35,20.13,8.4,20.22z M5.83,22.26c0.08-0.21,0.16-0.41,0.23-0.6C6.04,21.62,6.02,21.59,6,21.56
		c-0.22,0.05-0.43,0.09-0.64,0.14c0.12,0.18,0.24,0.35,0.36,0.52C5.72,22.23,5.75,22.23,5.83,22.26z"/>
	<path class="st0" d="M21.74,53.27c0.46,0.01,0.87,0.15,1.23,0.44c0.12,0.09,0.26,0.2,0.4,0.25c0.28,0.1,0.41,0.29,0.42,0.57
		c0.02,0.34,0,0.67-0.3,0.9c-0.24,0.18-0.57,0.08-0.69-0.2c-0.06-0.16-0.1-0.33-0.16-0.49c-0.13-0.37-0.45-0.6-0.76-0.59
		c-0.27,0.02-0.46,0.25-0.55,0.66c-0.22,0.99,0.41,1.66,1.39,1.5c0.12-0.02,0.32-0.01,0.36,0.07c0.06,0.11,0.04,0.29-0.01,0.41
		c-0.12,0.27-0.33,0.44-0.64,0.44c-0.25,0.01-0.48,0.03-0.73,0.02c-0.21-0.01-0.27,0.08-0.23,0.27c0.01,0.02,0.01,0.04,0.01,0.07
		c0.01,0.25,0.14,0.56-0.19,0.7c-0.25,0.11-0.85-0.11-1-0.34c-0.15-0.23-0.04-0.41,0.23-0.44c0.14-0.01,0.36-0.04,0.4-0.12
		c0.09-0.21-0.03-0.39-0.23-0.54c-0.78-0.6-1.06-1.42-0.79-2.28C20.13,53.78,20.86,53.27,21.74,53.27z"/>
	<path class="st0" d="M40.66,53.18c0-0.95,0.64-1.8,1.58-2.1c0.15-0.05,0.31-0.11,0.42-0.21c0.26-0.24,0.51-0.17,0.75,0
		c0.27,0.18,0.42,0.56,0.33,0.81c-0.08,0.24-0.33,0.35-0.63,0.28c-0.18-0.04-0.34-0.11-0.53-0.12c-0.49-0.04-0.82,0.34-0.75,0.84
		c0.08,0.54,0.57,1.09,1.09,1.22c0.13,0.03,0.29,0.03,0.4-0.04c0.1-0.07,0.14-0.22,0.2-0.34c-0.11-0.03-0.21-0.09-0.31-0.08
		c-0.29,0.04-0.47-0.14-0.36-0.42c0.07-0.17,0.21-0.33,0.36-0.43c0.34-0.21,0.69-0.4,1.06-0.56c0.1-0.04,0.3,0.04,0.37,0.12
		c0.06,0.08,0.02,0.25,0,0.38c-0.01,0.1-0.09,0.2-0.08,0.3c0.07,1.11-0.53,1.83-1.62,2.16C41.94,55.31,40.61,54.48,40.66,53.18z"/>
	<path class="st0" d="M43.64,8.87c-0.2,0.31-0.34,0.57-0.2,0.92c0.11,0.25-0.05,0.44-0.32,0.39c-0.57-0.1-1.04-0.41-1.41-0.85
		c-0.18-0.22-0.08-0.41,0.18-0.51c0.13-0.05,0.3-0.14,0.36-0.27c0.33-0.61,0.65-1.22,0.94-1.86c0.06-0.13-0.01-0.32-0.02-0.48
		c-0.01-0.15-0.01-0.3-0.01-0.44c0.15,0,0.32-0.04,0.43,0.02c0.55,0.28,1.09,0.57,1.62,0.88c0.4,0.22,0.71,0.54,0.84,1
		c0.15,0.54,0.02,1.03-0.4,1.4c-0.43,0.38-0.94,0.33-1.43,0.12C44.02,9.11,43.85,8.99,43.64,8.87z M44.95,7.68
		c-0.02-0.01-0.04-0.03-0.06-0.04c-0.01-0.04,0-0.09-0.02-0.12c-0.09-0.11-0.18-0.21-0.27-0.33c-0.08,0.08-0.19,0.15-0.25,0.24
		c-0.09,0.14-0.18,0.3-0.23,0.46C44.09,8,44.09,8.21,44.15,8.24c0.11,0.07,0.33,0.08,0.4,0.01C44.72,8.1,44.82,7.88,44.95,7.68z"/>
	<path class="st0" d="M17.98,55.61c-0.7-0.09-1.38-0.43-1.86-1.09c-0.28-0.38-0.36-0.82-0.16-1.28c0.18-0.4,0.4-0.78,0.56-1.19
		c0.08-0.21,0.11-0.47,0.1-0.7c-0.02-0.29,0.08-0.46,0.37-0.4c0.55,0.11,1.03,0.38,1.42,0.79c0.2,0.2,0.1,0.41-0.15,0.52
		c-0.16,0.07-0.33,0.19-0.42,0.34c-0.2,0.34-0.4,0.69-0.54,1.05c-0.19,0.5,0.06,0.92,0.57,1.06c0.27,0.07,0.5,0.02,0.64-0.22
		c0.25-0.46,0.48-0.93,0.7-1.41c0.05-0.1-0.04-0.26-0.05-0.39c-0.01-0.11-0.05-0.27,0-0.32c0.07-0.07,0.25-0.13,0.33-0.09
		c0.33,0.15,0.65,0.31,0.93,0.52c0.26,0.19,0.17,0.42-0.12,0.54c-0.14,0.06-0.29,0.18-0.37,0.31c-0.26,0.45-0.48,0.93-0.74,1.38
		C18.93,55.46,18.55,55.62,17.98,55.61z"/>
	<path class="st0" d="M38.01,7.8c-0.51-0.21-1.02-0.39-1.51-0.63c-0.12-0.06-0.23-0.27-0.23-0.41c0-0.09,0.21-0.17,0.32-0.27
		c0.09-0.07,0.21-0.13,0.24-0.22c0.2-0.62,0.39-1.24,0.57-1.87c0.02-0.08-0.03-0.18-0.04-0.27c-0.09,0.03-0.2,0.04-0.27,0.09
		c-0.36,0.28-0.61,0.33-0.79,0.15c-0.19-0.18-0.15-0.51,0.09-0.85c0.39-0.56,0.6-0.59,1.23-0.35c0.63,0.23,1.3,0.36,1.94,0.56
		c0.14,0.04,0.3,0.13,0.37,0.24c0.21,0.34,0.27,0.73,0.12,1.11c-0.06,0.15-0.26,0.32-0.4,0.32c-0.14,0-0.29-0.18-0.43-0.3
		C39.17,5.07,39.18,5,39.16,4.95C39.08,4.84,39,4.73,38.92,4.61c-0.07,0.11-0.17,0.21-0.2,0.34C38.58,5.47,38.44,6,38.33,6.53
		c-0.03,0.15-0.01,0.35,0.07,0.48c0.09,0.17,0.27,0.33,0.12,0.51C38.43,7.65,38.22,7.69,38.01,7.8z"/>
	<path class="st0" d="M47.03,51.33c-0.43,0.14-0.7,0.39-0.94,0.68c-0.11,0.12-0.02,0.22,0.16,0.24c0.28,0.03,0.4,0.23,0.23,0.43
		c-0.27,0.31-0.59,0.57-0.92,0.8c-0.17,0.12-0.4-0.07-0.34-0.26c0.26-0.77-0.11-1.46-0.24-2.17c-0.06-0.32-0.22-0.63-0.37-0.91
		c-0.28-0.53,0.03-1.13,0.63-1.1c0.34,0.02,0.68,0.14,1,0.28c0.6,0.26,1.18,0.57,1.77,0.85c0.15,0.07,0.32,0.07,0.48,0.11
		c0.11,0.02,0.26,0.03,0.3,0.09c0.05,0.09,0.06,0.3,0,0.35c-0.45,0.41-0.91,0.82-1.4,1.18c-0.18,0.13-0.34-0.01-0.36-0.24
		C47.02,51.59,47.03,51.5,47.03,51.33z M45.51,50.73c0.12,0.18,0.21,0.31,0.3,0.45c0.12-0.12,0.25-0.24,0.37-0.35
		c-0.15-0.09-0.28-0.19-0.43-0.25C45.71,50.56,45.62,50.66,45.51,50.73z"/>
	<path class="st0" d="M27.1,58.51c-0.43-0.1-0.87-0.18-1.29-0.31c-0.36-0.1-0.4-0.35-0.12-0.6c0.16-0.14,0.13-0.24-0.05-0.29
		c-0.26-0.07-0.54-0.12-0.81-0.17c-0.07-0.01-0.17,0.03-0.22,0.08c-0.03,0.03,0.01,0.14,0.04,0.2c0.19,0.33,0.09,0.54-0.29,0.52
		c-0.32-0.02-0.63-0.08-0.93-0.17c-0.11-0.03-0.22-0.21-0.23-0.33c-0.01-0.08,0.15-0.19,0.25-0.27c0.11-0.09,0.27-0.15,0.34-0.27
		c0.48-0.73,1.09-1.4,1.3-2.3c0.1-0.4,0.62-0.54,0.96-0.25c0.21,0.18,0.4,0.43,0.48,0.69c0.26,0.77,0.47,1.56,0.71,2.33
		c0.05,0.17,0.15,0.32,0.23,0.48c0.06,0.12,0.2,0.29,0.16,0.36c-0.06,0.11-0.23,0.17-0.37,0.24c-0.05,0.02-0.12,0.01-0.19,0.01
		C27.1,58.48,27.1,58.49,27.1,58.51z M25.75,56.52c-0.11-0.3-0.19-0.5-0.27-0.7c-0.04,0-0.07,0-0.11-0.01
		c-0.11,0.17-0.22,0.33-0.36,0.56C25.27,56.43,25.45,56.47,25.75,56.52z"/>
	<path class="st0" d="M55.72,38.21c-0.27,0.21-0.49,0.93-0.34,1.23c0.03,0,0.06,0,0.09-0.01c0.13-0.04,0.26-0.08,0.39-0.13
		c0.04,0.16,0.14,0.33,0.12,0.47c-0.05,0.3-0.15,0.6-0.27,0.89c-0.05,0.11-0.2,0.22-0.33,0.24c-0.05,0.01-0.16-0.18-0.23-0.28
		c-0.1-0.17-0.16-0.38-0.29-0.52c-0.32-0.35-0.66-0.7-1.01-1.02c-0.19-0.18-0.41-0.34-0.65-0.45c-0.27-0.14-0.5-0.28-0.51-0.62
		c-0.02-0.36,0.13-0.64,0.44-0.79c0.27-0.13,0.57-0.22,0.87-0.28c0.64-0.12,1.3-0.2,1.94-0.32c0.18-0.03,0.34-0.13,0.5-0.24
		c0.19-0.13,0.36-0.11,0.41,0.12c0.04,0.15,0.04,0.33,0,0.47c-0.1,0.38-0.2,0.77-0.35,1.13c-0.07,0.18-0.25,0.32-0.37,0.48
		C56,38.47,55.87,38.35,55.72,38.21z M54.5,38.82c0.06-0.01,0.11-0.02,0.17-0.03c0.03-0.2,0.06-0.4,0.09-0.6
		c-0.19,0.04-0.37,0.08-0.56,0.12C54.3,38.48,54.4,38.65,54.5,38.82z"/>
	<path class="st0" d="M51.14,41.66c0.01-0.34,0.22-0.91,0.71-1.35c0.1-0.09,0.18-0.21,0.24-0.33c0.14-0.31,0.39-0.34,0.67-0.3
		c0.31,0.05,0.61,0.14,0.71,0.5c0.11,0.39-0.09,0.66-0.5,0.67c-0.33,0.01-0.6,0.13-0.8,0.38c-0.26,0.32-0.24,0.64,0.09,0.89
		c0.38,0.28,0.8,0.39,1.25,0.18c0.45-0.21,0.61-0.6,0.64-1.06c0-0.03-0.01-0.07,0-0.09c0.05-0.16,0.11-0.31,0.16-0.47
		c0.16,0.09,0.35,0.16,0.49,0.28c0.09,0.08,0.16,0.24,0.16,0.37c-0.02,0.64-0.09,1.28-0.51,1.82c-0.55,0.71-1.39,1-2.13,0.73
		C51.58,43.61,51.12,42.87,51.14,41.66z"/>
	<path class="st0" d="M8.49,41.83c-0.03,0.52-0.27,0.92-0.68,1.08C7.37,43.1,6.87,43,6.53,42.62c-0.16-0.18-0.29-0.4-0.4-0.61
		c-0.19-0.35-0.32-0.38-0.6-0.09c-0.06,0.06-0.08,0.15-0.12,0.22c-0.07,0.12-0.15,0.33-0.22,0.34c-0.13,0.01-0.32-0.09-0.39-0.21
		c-0.22-0.38-0.43-0.77-0.57-1.18c-0.14-0.4,0.04-0.54,0.44-0.43c0.11,0.03,0.26,0.01,0.36-0.04c0.52-0.27,1.03-0.56,1.54-0.83
		c0.19-0.1,0.23-0.25,0.24-0.45c0.01-0.11,0.09-0.27,0.16-0.3c0.09-0.02,0.26,0.07,0.3,0.15c0.37,0.7,0.74,1.4,1.08,2.11
		C8.45,41.46,8.45,41.65,8.49,41.83z M7.58,41.22c0-0.26-0.12-0.34-0.36-0.23c-0.15,0.07-0.29,0.14-0.41,0.23
		c-0.08,0.06-0.17,0.18-0.16,0.27c0.01,0.09,0.12,0.21,0.21,0.24C7.16,41.86,7.58,41.55,7.58,41.22z"/>
	<path class="st0" d="M53.15,20.01c0.12,0.06,0.32,0.11,0.34,0.19c0.03,0.14-0.01,0.34-0.1,0.46c-0.19,0.26-0.8,0.4-1.09,0.25
		c-0.09-0.05-0.17-0.15-0.22-0.25c-0.35-0.69-0.69-1.37-1.03-2.06c-0.06-0.11-0.14-0.22-0.16-0.35c-0.02-0.14,0-0.29,0.05-0.41
		c0.02-0.04,0.22,0.02,0.33,0.02c0.17-0.01,0.37,0.02,0.51-0.06c0.53-0.33,1.06-0.67,1.56-1.04c0.12-0.09,0.15-0.3,0.22-0.46
		c0.05-0.12,0.09-0.32,0.16-0.34c0.12-0.02,0.32,0.04,0.38,0.13c0.3,0.46,0.57,0.95,0.83,1.43c0.05,0.09,0.05,0.23,0.04,0.34
		c-0.03,0.22-0.18,0.34-0.38,0.21c-0.22-0.14-0.4-0.08-0.58,0.05c-0.44,0.29-0.89,0.57-1.33,0.87c-0.19,0.13-0.42,0.24-0.33,0.55
		c0.1,0.31,0.38,0.53,0.69,0.52c0.03,0,0.06-0.01,0.09-0.01C53.13,20.04,53.14,20.03,53.15,20.01z"/>
	<path class="st0" d="M15.68,11.46c-0.05,0.08-0.11,0.26-0.22,0.37c-0.6,0.53-1.23,1.05-1.84,1.57c-0.06,0.05-0.11,0.11-0.18,0.14
		c-0.09,0.03-0.23,0.07-0.29,0.02c-0.06-0.04-0.12-0.2-0.09-0.27c0.15-0.36-0.04-0.62-0.23-0.88c-0.34-0.44-0.69-0.89-1.03-1.34
		c-0.12-0.16-0.23-0.21-0.43-0.16c-0.32,0.08-0.48-0.09-0.36-0.4c0.08-0.2,0.21-0.4,0.37-0.55c0.29-0.28,0.6-0.53,0.93-0.76
		c0.09-0.07,0.29-0.07,0.37,0c0.08,0.06,0.08,0.24,0.1,0.37c0.04,0.18,0.02,0.39,0.11,0.53c0.32,0.47,0.65,0.92,1.01,1.35
		c0.11,0.13,0.35,0.3,0.44,0.26c0.19-0.09,0.36-0.29,0.45-0.49c0.06-0.14-0.02-0.35-0.01-0.53c0.01-0.12,0.04-0.31,0.12-0.35
		c0.09-0.05,0.28-0.01,0.37,0.06C15.57,10.63,15.64,10.99,15.68,11.46z"/>
	<path class="st0" d="M8.97,12.92c0.05-0.16,0.05-0.24,0.09-0.3c0.32-0.43,0.62-0.86,0.96-1.26c0.09-0.11,0.32-0.15,0.48-0.12
		c0.06,0.01,0.08,0.27,0.13,0.41c0.07,0.17,0.12,0.37,0.24,0.5c0.37,0.41,0.75,0.81,1.16,1.18c0.13,0.12,0.35,0.17,0.53,0.18
		c0.27,0.02,0.43,0.14,0.34,0.4c-0.21,0.64-0.61,1.14-1.18,1.49c-0.19,0.12-0.4-0.01-0.39-0.25c0.01-0.3-0.15-0.51-0.33-0.7
		c-0.3-0.33-0.62-0.64-0.93-0.96c-0.22-0.22-0.44-0.41-0.8-0.35C9.2,13.15,9.07,12.99,8.97,12.92z"/>
	<path class="st0" d="M41.08,4.54c0.56,0.08,1.06,0.31,1.49,0.66c0.27,0.23,0.2,0.51-0.12,0.66c-0.14,0.07-0.29,0.2-0.35,0.34
		c-0.25,0.57-0.49,1.14-0.69,1.73c-0.06,0.16-0.02,0.38,0.03,0.55c0.11,0.37-0.03,0.6-0.39,0.5c-0.48-0.14-0.95-0.35-1.38-0.62
		c-0.34-0.21-0.27-0.49,0.08-0.67c0.1-0.05,0.2-0.14,0.25-0.24c0.26-0.59,0.51-1.18,0.73-1.78c0.07-0.19,0.04-0.44-0.01-0.65
		C40.64,4.68,40.74,4.52,41.08,4.54z"/>
	<path class="st0" d="M55.33,33.41c-0.57,0-1.02-0.45-1-1.01c0.01-0.56,0.44-0.99,0.99-1c0.54,0,0.97,0.43,0.98,0.96
		C56.29,32.96,55.89,33.41,55.33,33.41z"/>
	<path class="st0" d="M26.46,54.21c-0.13-0.07-0.34-0.2-0.57-0.3c-0.12-0.05-0.26-0.07-0.39-0.08c-0.15,0-0.35,0.1-0.42,0.04
		c-0.1-0.09-0.16-0.31-0.12-0.45c0.04-0.15,0.18-0.34,0.31-0.38c0.16-0.05,0.36,0.04,0.54,0.09c0.15,0.05,0.26,0.18,0.41,0.24
		c0.08,0.04,0.19,0,0.29-0.02c0.15-0.02,0.35-0.12,0.41-0.05c0.11,0.1,0.2,0.31,0.18,0.46C27.05,54.02,26.87,54.2,26.46,54.21z"/>
	<path class="st0" d="M44.89,48.08c0.18,0.03,0.49-0.09,0.53,0.25c0.03,0.3-0.25,0.33-0.47,0.37c-0.3,0.07-0.5,0.23-0.62,0.53
		c-0.08,0.2-0.16,0.49-0.44,0.39c-0.27-0.1-0.17-0.38-0.13-0.59C43.92,48.25,44.1,48.09,44.89,48.08z"/>
	<path class="st0" d="M9.78,10.86c-0.18,0.37-0.31,0.69-0.48,0.98c-0.05,0.09-0.22,0.17-0.31,0.14c-0.07-0.02-0.11-0.2-0.15-0.31
		c-0.04-0.13-0.04-0.27-0.09-0.39c-0.12-0.25,0.03-0.43,0.18-0.57c0.15-0.14,0.36-0.26,0.55-0.29C9.55,10.42,9.66,10.69,9.78,10.86z
		"/>
	<g>
		<path class="st2" d="M30.34,49.73c-0.64,0-1.3-0.04-1.97-0.1c-2.21-0.22-4.28-0.85-6.18-1.87c-1.61-0.87-3-1.92-4.12-3.14
			c-1.17-1.27-2.09-2.76-2.73-4.42c-0.5-1.31-0.78-2.73-0.81-4.24c0-0.08-0.01-0.2,0-0.25c0.06-0.01,0.17-0.01,0.25-0.01
			c3.26,0,15.26,0,15.26,0h0.2h7.67c2.54,0,5.09,0,7.63,0h0.13c0.1,0,0.24,0,0.3,0.01c0,0.05,0,0.13-0.01,0.2
			c0,0.06-0.01,0.13-0.01,0.21c-0.07,2.61-0.92,5.05-2.5,7.23c-1.47,2.02-3.45,3.63-5.88,4.77C35.36,49.19,32.91,49.73,30.34,49.73z
			"/>
		<path class="st3" d="M23.7,35.92h3.29h2.88l0,0h0.41h3.72h3.72c2.62,0,5.24,0,7.87,0h0.01h0.07h0.06c0.02,0,0.06,0,0.09,0
			c0,0.06-0.01,0.13-0.01,0.21c-0.04,1.3-0.26,2.56-0.68,3.75c-0.41,1.17-1.01,2.3-1.78,3.37c-0.74,1.02-1.62,1.93-2.6,2.73
			c-0.95,0.76-2.02,1.43-3.2,1.98c-2.24,1.05-4.66,1.59-7.19,1.59c-0.64,0-1.29-0.04-1.94-0.1c-2.18-0.22-4.23-0.84-6.1-1.85
			c-1.59-0.86-2.96-1.9-4.07-3.1c-1.16-1.25-2.05-2.72-2.69-4.35c-0.5-1.28-0.76-2.69-0.79-4.16c0-0.01,0-0.03,0-0.05
			c0.02,0,0.03,0,0.05,0C17.77,35.92,20.73,35.92,23.7,35.92 M23.7,35.5c-2.96,0-5.93,0-8.9,0c-0.46,0-0.46,0.01-0.46,0.47
			c0.03,1.48,0.29,2.93,0.82,4.31c1.33,3.46,3.74,5.95,6.94,7.67c1.95,1.05,4.05,1.67,6.26,1.89c0.67,0.07,1.33,0.1,1.98,0.1
			c2.54,0,5-0.51,7.36-1.62c2.38-1.12,4.39-2.69,5.95-4.83c1.59-2.18,2.47-4.63,2.54-7.35c0.02-0.62,0.11-0.63-0.5-0.63
			c-0.04,0-0.08,0-0.13,0h-0.01c-2.62,0-5.24,0-7.87,0c-2.48,0-4.96,0-7.44,0l0,0C28.07,35.5,25.89,35.5,23.7,35.5L23.7,35.5z"/>
	</g>
	<g>
		<path class="st4" d="M27.85,34.85c-0.11,0-0.22,0-0.34,0c-1.81,0-3.62-0.01-5.43,0.01c-0.42,0.01-0.72-0.13-1.02-0.41
			c-1.48-1.37-2.65-2.97-3.44-4.84c-0.9-2.12-1.27-4.33-1.1-6.63c0.08-1.01,0.24-2,0.36-3c0.03-0.24,0.12-0.33,0.37-0.33
			c1.94-0.02,3.83,0.25,5.69,0.85c2.01,0.66,3.81,1.69,5.39,3.1c0.88,0.78,1.63,1.67,2.3,2.65c0.24,0.35,0.27,0.35,0.48,0
			c0.72-1.22,1.42-2.45,2.14-3.68c0.12-0.21,0.14-0.39,0.02-0.63c-0.26-0.5-0.15-1.06,0.26-1.47c0.33-0.34,0.92-0.46,1.32-0.28
			c0.55,0.25,0.86,0.72,0.81,1.29c-0.05,0.5-0.3,0.85-0.74,1.08c-0.15,0.08-0.31,0.27-0.36,0.43c-0.37,1.24-0.72,2.49-1.07,3.74
			c-0.07,0.26-0.21,0.44-0.43,0.61c-0.79,0.62-1.4,1.42-1.98,2.24c-0.95,1.37-1.63,2.85-1.92,4.51c-0.01,0.04-0.03,0.08-0.09,0.21
			c-2.92-3.72-5.79-7.39-8.68-11.07c-0.04,0.03-0.08,0.06-0.12,0.09c2.54,3.81,5.08,7.61,7.61,11.42
			C27.89,34.79,27.87,34.82,27.85,34.85z"/>
	</g>
	<g>
		<path class="st5" d="M35.67,21.49c-0.05,0.5-0.3,0.85-0.74,1.09c-0.15,0.08-0.31,0.26-0.36,0.43c-0.37,1.24-0.72,2.49-1.07,3.74
			c-0.07,0.26-0.21,0.44-0.43,0.61c-0.37,0.29-0.71,0.63-1.02,0.98c-0.37-0.7-0.94-1.46-1.23-1.83c0.09,0.07,0.16-0.01,0.29-0.24
			c0.72-1.22,1.42-2.45,2.14-3.68c0.12-0.21,0.14-0.39,0.02-0.62c-0.26-0.5-0.15-1.06,0.26-1.47c0.33-0.34,0.92-0.46,1.32-0.28
			C35.41,20.46,35.71,20.92,35.67,21.49z"/>
	</g>
	<path class="st6" d="M33.17,34.79c2.88-2.38,5.69-4.7,8.5-7.02c-0.03-0.04-0.06-0.09-0.09-0.13c-0.16,0.09-0.34,0.16-0.49,0.27
		c-1.21,0.85-2.42,1.72-3.64,2.57c-1.4,0.99-2.81,1.98-4.21,2.98c-0.5,0.35-1.03,0.69-1.51,1.06c-0.5,0.39-1.07,0.25-1.62,0.25
		c-0.04,0-0.13-0.18-0.11-0.26c0.13-0.59,0.25-1.18,0.45-1.74c0.53-1.5,1.36-2.83,2.46-3.97c1.16-1.19,2.52-2.06,4.04-2.71
		c2.26-0.97,4.64-1.06,7.04-1.01c0.19,0.01,0.26,0.07,0.28,0.26c0.27,2.71-0.24,5.23-1.76,7.5c-0.41,0.62-0.92,1.17-1.41,1.73
		c-0.11,0.12-0.31,0.21-0.47,0.22C38.19,34.8,35.73,34.79,33.17,34.79z"/>
	<path class="st1" d="M55.76,25.4c-0.09-0.23-0.34-0.46-0.09-0.65c0.09-0.08,0.47,0.01,0.5,0.09C56.25,25.14,55.95,25.23,55.76,25.4
		z"/>
	<path class="st1" d="M18.58,7.11c0.09-0.15,0.15-0.25,0.2-0.36C18.95,6.87,19.1,7,19.26,7.13c-0.15,0.1-0.28,0.22-0.44,0.28
		C18.79,7.43,18.68,7.23,18.58,7.11z"/>
	<path class="st1" d="M33.98,3.62c-0.02,0.08-0.01,0.2-0.06,0.26c-0.09,0.11-0.23,0.18-0.34,0.27c-0.05-0.12-0.12-0.24-0.13-0.37
		c-0.01-0.11,0.02-0.24,0.06-0.34c0.05-0.1,0.13-0.19,0.2-0.28c0.09,0.09,0.18,0.18,0.25,0.29C34,3.49,33.98,3.55,33.98,3.62z"/>
	<path class="st1" d="M25,5.41c0.05-0.07,0.09-0.19,0.16-0.21c0.1-0.02,0.23,0.01,0.32,0.08c0.18,0.14,0.26,0.58,0.13,0.77
		c-0.05,0.08-0.16,0.16-0.25,0.16c-0.08,0-0.2-0.09-0.23-0.17C25.07,5.85,25.05,5.65,25,5.41z"/>
	<path class="st1" d="M25.31,4.07c-0.06,0.12-0.08,0.24-0.15,0.33c-0.12,0.13-0.26,0.12-0.3-0.07c-0.05-0.2-0.08-0.4-0.09-0.6
		c-0.01-0.08,0.04-0.21,0.1-0.24c0.06-0.02,0.2,0.03,0.24,0.09C25.18,3.72,25.24,3.9,25.31,4.07z"/>
	<path class="st1" d="M38.94,54.34c-0.09,0.09-0.19,0.2-0.29,0.29c-0.08-0.08-0.18-0.16-0.23-0.25c-0.05-0.08-0.07-0.18-0.06-0.28
		c0.01-0.11,0.05-0.22,0.08-0.33c0.11,0.05,0.25,0.07,0.32,0.15C38.84,54.01,38.87,54.15,38.94,54.34z"/>
	<path class="st1" d="M9.38,44.25c-0.01,0.33-0.4,0.57-0.64,0.46c-0.02-0.01-0.05-0.02-0.05-0.04c-0.03-0.08-0.09-0.22-0.08-0.23
		c0.2-0.14,0.42-0.25,0.65-0.36C9.28,44.08,9.36,44.22,9.38,44.25z"/>
	<path class="st1" d="M15.11,50.54c-0.14,0.73-0.44,1.25-0.97,1.61c-0.14,0.09-0.39,0.08-0.57,0.02c-0.22-0.06-0.32-0.25-0.17-0.48
		c0.36-0.54,0.71-1.08,1.07-1.62c0.11-0.16,0.26-0.15,0.37-0.02C14.96,50.22,15.04,50.41,15.11,50.54z"/>
	<path class="st1" d="M30.42,57.02c-0.08,0.28-0.11,0.54-0.4,0.61c-0.27,0.06-0.45-0.11-0.54-0.34c-0.14-0.38-0.27-0.76-0.36-1.15
		c-0.06-0.27,0.04-0.54,0.31-0.63c0.3-0.11,0.49,0.11,0.6,0.35C30.19,56.24,30.29,56.63,30.42,57.02z"/>
	<path class="st1" d="M34.43,55.38c0.07-0.11,0.13-0.31,0.27-0.38c0.12-0.05,0.36-0.01,0.46,0.08c0.44,0.4,0.69,0.91,0.72,1.51
		c0.01,0.12-0.1,0.32-0.2,0.36c-0.13,0.05-0.36,0.04-0.47-0.05C34.77,56.54,34.55,56.03,34.43,55.38z"/>
	<path class="st1" d="M11.82,47.8c-0.06,0.51-0.35,1.01-0.81,1.38c-0.26,0.21-0.57,0.05-0.62-0.3c-0.06-0.43,0.44-1.43,0.82-1.63
		C11.52,47.08,11.82,47.3,11.82,47.8z"/>
	<path class="st1" d="M47.26,11.34c-0.18-0.16-0.3-0.25-0.4-0.37c-0.04-0.05-0.04-0.21,0.01-0.24c0.15-0.09,0.31-0.14,0.47-0.2
		c0.01,0.14,0.04,0.28,0.04,0.42C47.37,11.06,47.31,11.17,47.26,11.34z"/>
	<path class="st1" d="M44.95,7.68c-0.13,0.2-0.23,0.42-0.4,0.58c-0.07,0.07-0.29,0.05-0.4-0.01C44.09,8.21,44.09,8,44.12,7.89
		c0.05-0.16,0.13-0.31,0.23-0.46c0.06-0.09,0.16-0.16,0.25-0.24c0.09,0.11,0.19,0.21,0.27,0.33c0.02,0.03,0.01,0.08,0.02,0.12
		C44.91,7.65,44.93,7.67,44.95,7.68z"/>
	<path class="st1" d="M45.51,50.73c0.11-0.08,0.2-0.17,0.24-0.16c0.15,0.07,0.29,0.17,0.43,0.25c-0.12,0.12-0.25,0.24-0.37,0.35
		C45.72,51.05,45.63,50.92,45.51,50.73z"/>
	<path class="st1" d="M25.75,56.52c-0.29-0.06-0.48-0.09-0.74-0.15c0.15-0.23,0.26-0.4,0.36-0.56c0.04,0,0.07,0,0.11,0.01
		C25.56,56.02,25.63,56.22,25.75,56.52z"/>
	<path class="st1" d="M54.5,38.82c-0.1-0.17-0.2-0.34-0.3-0.51c0.19-0.04,0.37-0.08,0.56-0.12c-0.03,0.2-0.06,0.4-0.09,0.6
		C54.61,38.8,54.55,38.81,54.5,38.82z"/>
	<path class="st1" d="M7.58,41.22c0,0.33-0.42,0.64-0.72,0.51c-0.09-0.04-0.2-0.15-0.21-0.24c-0.01-0.08,0.08-0.21,0.16-0.27
		c0.12-0.09,0.27-0.17,0.41-0.23C7.46,40.87,7.58,40.96,7.58,41.22z"/>
</g>
</svg>
