<?xml version="1.0" encoding="utf-8"?>
<!-- Generator: Adobe Illustrator 24.0.1, SVG Export Plug-In . SVG Version: 6.00 Build 0)  -->
<svg version="1.1" id="Camada_1" xmlns="http://www.w3.org/2000/svg" xmlns:xlink="http://www.w3.org/1999/xlink" x="0px" y="0px"
	 viewBox="0 0 1028.2 1014" style="enable-background:new 0 0 1028.2 1014;" xml:space="preserve">
<style type="text/css">
	.st0{fill:#FFFFFF;}
	.st1{fill:#066C44;}
	.st2{fill:#A2604A;}
	.st3{fill:#89513E;}
	.st4{fill:#076C44;}
	.st5{fill:#966553;}
	.st6{fill:#00A956;}
</style>
<g>
	<path class="st0" d="M108.5,442.2c-2.3,8.9-4.3,17.9-7.2,26.7c-0.8,2.4-3.7,5-6.2,5.7c-3.6,1-4-3-5.5-5.4c-1.3-2.1-3.4-4.5-5.7-5.3
		c-9.7-3.5-19.5-6.7-29.5-9.4c-2.5-0.7-5.7,1-8.6,1.6c-2,0.4-4.7,1.7-5.8,0.9c-1.6-1.1-2.4-3.8-2.7-6c-0.3-1.7,0.6-3.5,1-5.3
		c3.8-14.7,7.7-29.4,11.4-44.2c1-3.9,2.7-6.8,6.7-7.6c4.7-1,9.5-1.2,13.3,2.5c3.2,3.2,2.6,7.3-2.2,9.7c-7,3.5-9.7,9.6-10.7,16.6
		c-0.3,1.9,0.9,5,2.3,5.8c2.6,1.5,6.4,2.8,9,2c3.1-1,3.4-4.5,0.6-7c-2.5-2.3-5-4.7-3.2-8.3c1.9-3.8,5.7-3.8,9.1-2.7
		c5.3,1.7,10.6,3.5,15.4,6.2c1.8,1,3.1,4.6,2.8,6.8c-0.2,1.3-3.6,2.9-5.8,3.2c-3,0.5-5.8,1.2-5.5,4.5c0.2,1.6,2.6,3.7,4.5,4.3
		c5.1,1.8,10.3,3.7,14.3-2.7c1.6-2.6,5.8-1.3,6.8,1.8c0.5,1.7,0.4,3.6,0.6,5.4C108,442.1,108.2,442.1,108.5,442.2z"/>
	<path class="st0" d="M65.6,530.4c9.1,0,16.9,7.9,16.8,17.1c-0.1,9.2-8.1,17.3-16.9,17.1c-9.2-0.1-16.9-7.8-17.1-17
		C48.3,538.2,56,530.4,65.6,530.4z"/>
	<path class="st1" d="M100,376c-1.5-0.5-1.9-0.5-2.1-0.7c-2.1-2.9-4.1-5.9-6.2-8.8c3.7-0.8,7.4-1.6,11-2.3c0.4,0.5,0.8,1.1,1.2,1.6
		C102.7,369.1,101.4,372.4,100,376z"/>
	<path class="st1" d="M1027.3,502.8c0.3,23.7-1,47.5-4.3,72.3c-2.7,20.4-7.1,40.7-12,60.7c-8.1,33-20.5,64.5-35.7,94.9
		c-17.5,35-38.5,67.7-63.8,97.6c-27.2,32.2-57.4,61.3-91.7,86c-24.3,17.5-49.6,33.3-76.5,46.5c-32.5,16-66.3,28.4-101.4,37.1
		c-60,15-120.8,19.8-182.3,13.3c-40.9-4.3-80.9-13.1-119.6-27c-35.8-12.9-70.2-29.2-102.5-49.8c-37.8-24.1-72.1-52.5-102.8-84.9
		c-14.5-15.3-27.3-32.4-40-49.4c-19.1-25.6-35.1-53.2-48.4-82.3c-14.1-30.9-25.2-62.8-33-95.9C3.8,581.3-0.6,540.1,0.1,498.4
		c0.7-45.3,7.8-89.8,20.6-133.3c10.6-36.2,25-70.7,43.5-103.4c25.8-45.5,57.1-86.8,95.6-122.4c48-44.4,102.1-79,163.1-102.9
		c35.2-13.8,71.4-24.2,108.8-29.9C467.2,1.1,503-1.8,539,0.6c41.7,2.8,82.9,8.8,123,20.9c34.6,10.5,68,24,99.7,41.4
		c57.8,31.7,108,72.8,150.1,123.6c29.2,35.2,53.3,73.6,72.1,115.3c17.8,39.5,30.7,80.6,36.9,123.5
		C1024.7,451.8,1027,477.3,1027.3,502.8z M880.2,509c0.2-201.8-164-366.6-367.2-365.8C312.3,144,147.7,307.2,148.7,511
		c1,199.9,162.5,364.5,367,363.9C717.7,874.3,880.1,710.8,880.2,509z M940.5,440.3c-0.9-0.3-1.3-0.5-1.8-0.7
		c-2.1-0.7-5.4-2.5-6.1-1.8c-1.6,1.7-2.9,4.6-2.8,7c0.1,4.3,0.9,8.7,2.2,12.8c1.8,5.9,3.9,11.7,6.5,17.2c0.8,1.6,3.7,2.7,5.7,2.9
		c1,0.1,2.4-2.2,3.4-3.6c2.3-3.3,3.9-7.2,6.6-10.1c10.5-11.3,21.6-21.9,31.7-33.4c3-3.4,4.8-8.6,5.4-13.2c1-8.4-5.8-14.7-13.2-12.9
		c-15.5,3.8-30.2-1-45.1-3.3c-7.7-1.2-11.5-8.6-8.6-14.6c1.1-2.3,3.3-4.3,5.6-5.6c7.9-4.4,15.9-8.7,24.1-12.4
		c2.8-1.3,6.8-1.4,9.8-0.5c5.7,1.7,9.4-0.8,8.2-6.8c-2.1-10-6.1-19.3-13-27.1c-3.9-4.4-6.7-3.5-9.1,1.9c-1.5,3.3-3.7,7-6.7,8.7
		c-8.6,5-17.7,9.1-26.7,13.3c-1.9,0.9-4.6,0.7-6.8,0.2c-6.1-1.5-8.8,0.3-7.8,6.6c1.8,10.5,6.2,19.9,13.4,28c1.4,1.5,1.9,3.9,2.4,5.9
		c1.7,7.1,3,14.4,5.1,21.4c0.6,1.8,3.5,3.5,5.7,4c0.8,0.2,2.9-2.7,3.7-4.4c1.2-2.8,2.8-3.2,5-1.5
		C940.3,420.9,942.6,435.9,940.5,440.3z M302.7,161.7c-9.1-1.5-9.3-1.4-12-5.8c-5-7.9-9.9-16-14.7-24.1c-2.3-4-3.5-8-1.7-12.9
		c1.6-4.1-1.6-7.5-5.9-6.2c-11.1,3.1-19.6,10.1-25.6,19.7c-2.3,3.6-0.1,6.1,3.8,7.8c3.4,1.5,7.3,3.6,9.3,6.5
		c5.3,7.7,10,16,14.5,24.2c1.4,2.6,1.5,5.8,2.1,8.8c0.5,2.5,0.1,6.7,1.3,7.2c2.5,1,6.2,0.9,8.6-0.4c9.1-5,17.9-10.5,22.2-20.5
		c9.3,0.4,16.7-3.7,23.2-9.3c4.5-3.9,3.4-8.1-2.3-9.7c-3.8-1.1-4.1-3.7-1.6-5.3c4.8-3.1,10.1-5.6,15.5-7.7c2.3-0.9,4,0.5,3.3,3.7
		c-0.5,2.4-0.9,6.7,0.1,7.2c2.4,1.2,6.1,1.5,8.6,0.6c6-2.4,11.9-5.4,17.5-8.7c2.7-1.6,5.3-3.9,7.2-6.5c2.4-3.4,0.8-6.3-2.6-7.7
		c-4.2-1.8-8.5-3.8-12-6.6c-6.9-5.6-13.1-12-19.9-17.6c-5.7-4.7-11.8-9-18.1-12.8c-5.1-3.1-11.4-2-15.2,1.7c-4,4-4.4,8.6-3,14
		c1.6,5.9,3.2,12.1,3.1,18.1C307.8,133.3,312.3,148.2,302.7,161.7z M837.9,776.1c2.7,1.5,5.5,2.7,8,4.5c1.3,0.9,1.8,2.8,2.7,4.2
		c-1.4,0.7-2.7,1.9-4.2,2.1c-8.7,1.6-17.5,3.1-26.3,4.4c-7.7,1.1-17.7,10.3-19.1,17.9c-0.9,4.7,1.1,7.4,5.8,6.4
		c5.1-1.1,9,0.8,12.5,3.7c5.4,4.5,10.9,9.1,15.6,14.3c2.5,2.7,3.9,6.7,4.8,10.3c1.2,4.6,4,6.9,8.2,4.6c6.4-3.5,10.9-9,12.9-16.1
		c1.3-4.5-1.2-7.6-5.5-6.8c-5.6,1-9-2-12.2-5.5c-1.2-1.3-2.2-3.5-2-5.1c0.1-0.9,2.8-2,4.4-2.2c10-1.6,20.1-3,30.1-4.6
		c4.3-0.7,9.9-0.1,11.6-5.4c1.7-5.5-3-8.5-6.3-11.7c-7.9-7.5-16-14.7-23.9-22.2c-3.1-3-5.1-6.9-1.9-10.6c2.9-3.3,7-2.3,10.4,0.1
		c7.2,5.2,14.5,10.3,21.3,16c2.3,1.9,3.8,5.1,4.8,8c1.5,4.3,4.7,6.1,8.1,3c7.5-6.8,13.1-15,15.4-25.1c1-4.4-1.5-6.1-6-5.9
		c-2.9,0.1-6.4,0.3-8.7-1.2c-7.2-4.6-14.1-9.6-20.6-15c-2.4-2-3.6-5.5-5.4-8.3c-1.1-1.9-1.9-4.9-3.5-5.4c-1.7-0.5-5,0.7-6.1,2.2
		c-5,7.2-9.5,14.8-14.2,22.2c-1.3,2-2.9,3.7-4.5,5.5c-4.1,4.7-9,8.9-12.3,14.2C828.4,774,831.4,777.8,837.9,776.1z M154.9,274.4
		c0.7-0.5,1.4-0.9,2.1-1.4c5.6,3.3,11.4,6.2,13.2,13.6c1.1,4.6,4.2,6.1,7.5,3.3c7.3-6.4,12.9-14.3,15.1-23.9
		c1.1-4.8-1.5-6.6-6.5-6.5c-3.1,0-6.5-0.7-9.1-2.2c-5.3-3.1-10.3-6.7-15.2-10.5c-5.9-4.6-12.3-8.8-14.2-17.1c-0.9-4.1-4.7-4.1-8-2.2
		c-9.3,5.3-13.1,18.4-8.3,27.9c2.6,5.2,5.4,10.3,7.7,15.6c1.9,4.2,0.6,5.7-4,5.3c-6.7-0.6-13.3-1.5-20-1.8c-2.5-0.1-6.4,0.3-7.4,1.8
		c-3.9,6.1-7.7,12.6-10.1,19.4c-1.6,4.6,1.7,6.5,6.7,6.1c3.3-0.3,7.5-0.1,10,1.7c8,5.6,15.7,11.7,22.9,18.2c2.7,2.4,4.2,6.4,5.4,10
		c1.3,4.1,4.7,6,7.4,2.5c4.1-5.1,7.4-11,9.9-17.1c1.5-3.7-1.4-6.1-5.5-5.4c-6.2,1-14.6-4.2-16.7-10.6c1.3,0,2.5-0.2,3.7,0
		c6.8,1.2,13.5,2.5,20.3,3.6c5,0.8,7-1.4,5.5-6.2c-0.8-2.5-2.3-4.9-3.6-7.3C160.8,285.6,157.8,280,154.9,274.4z M595.1,78.3
		c2.6-1.3,3.9-1.8,4.8-2.5c10.2-8,10.1-22.3-0.5-29.6c-3.9-2.6-8.9-4.1-13.5-5c-8.7-1.6-17.5-2.5-26.3-3.5c-2.8-0.3-5.9-0.4-8.6,0.1
		c-4.6,0.9-5.6,5.2-3.4,9.3c1.8,3.3,3.4,7.3,3.2,10.8c-0.6,9.7-1.9,19.5-3.6,29.1c-0.6,3.4-2.9,6.8-5.2,9.5
		c-3.5,4.2-3.5,8.1,1.5,10.6c8.2,4,17.1,4.9,26,3.8c4.6-0.6,6.6-5,3.7-8.5c-3.6-4.4-3.5-9-2.5-13.8c0.4-1.9,1.9-3.5,2.9-5.2
		c1.6,1.5,4.1,2.7,4.7,4.5c1.1,3.8,1.2,7.8,1.8,11.8c2.3,15.2,11.2,19.6,26.5,16.7c5.9-1.1,7-6,3.1-10.6c-1.2-1.5-2.7-3.3-2.8-5
		C606.4,92.3,605.8,84,595.1,78.3z M436.8,44.5c-11.4,2.2-25.4,4.7-39.4,7.8c-1.9,0.4-4,3.4-4.4,5.4c-0.2,1.6,2.1,3.6,3.4,5.4
		c1.6,2.2,4.3,4.2,4.7,6.6c1.9,12,3.2,24,4.5,36.1c0.2,2-0.9,4.2-1.2,6.3c-0.4,2.8-1.9,7.2-0.8,8.1c2.1,1.7,5.9,2,8.8,1.5
		c10.9-1.8,21.8-3.8,32.5-6.3c4.3-1,8.7-2.7,12.4-5.1c12.1-8.2,11.7-28.4-0.8-34.2c-4.7-2.2-4.6-4-2.6-8.2
		C459.5,56.6,451.9,44.5,436.8,44.5z M685.3,919.7c1-2.4,1.6-4,2.3-5.6c3.6-9.3-1.3-19.1-10.9-21.1c-3.1-0.6-6.8-0.8-9.6,0.2
		c-11.7,4.2-23.3,8.9-34.8,13.6c-1.3,0.5-2.5,1.5-3.5,2.5c-3.6,3.4-2.8,6.4,1.4,9c2.6,1.6,5.3,3.9,6.5,6.6
		c3.3,7.6,6.3,15.4,8.6,23.4c1.1,3.7,0.8,8.1,0.1,12.1c-0.8,5,0.5,7.7,5.6,7.4c9.2-0.7,17.6-4.1,24.7-10c3.1-2.6,2.6-6.5-1.1-7.9
		c-4.5-1.8-6.4-5.3-7.5-9.3c-0.5-1.9,0.1-4.2,0.2-6.3c2.1,0.7,4.7,0.8,6.1,2.2c2.9,2.9,5,6.7,7.8,9.7c7.9,8.7,23.1,7.3,29.6-2.6
		c2.6-3.9,1.3-7-3.3-8.6c-1.6-0.6-3.6-1.4-4.4-2.7C699,925.7,694.7,919.8,685.3,919.7z M156.6,775.8c2,0.3,3.2,0.5,4.4,0.7
		c11.1,1.7,19.5-5.9,17.9-17.1c-0.7-4.7-2.5-9.5-5-13.5c-5-8.1-10.7-15.8-16.3-23.6c-1.7-2.3-3.5-4.7-5.7-6.4
		c-3.8-2.9-6.5-1.2-7.7,3.3c-0.7,3.1-2.2,6.6-4.5,8.6c-6.5,5.5-13.4,10.5-20.5,15.1c-2.5,1.7-6,2.6-9,2.6c-6.2-0.1-9.2,2.5-6.5,7.9
		c3.8,7.6,8.9,14.7,14.3,21.4c2.8,3.5,6.2,1.5,8-2.8c1.5-3.6,4.2-6.9,6.8-9.8c1-1.1,3.5-0.8,5.3-1.2c0.2,2,1.1,4.5,0.3,6
		c-1.8,3.5-4.6,6.5-6.9,9.7c-7.2,9.9-2.9,25.7,8.3,30.5c3.1,1.3,7.1,1.4,7.1-2.7c0.1-5.6,3.7-8.7,6.1-12.8c1.8-3.1,2.4-7,3.3-10.6
		C156.9,779.4,156.6,777.7,156.6,775.8z M279.9,868.9c0.2-11.3-2.3-18.7-8.4-23.7c-11-9-22.7-17.3-34.3-25.6c-1.4-1-4.6-1-5.9-0.1
		c-1.2,0.9-1.1,3.7-1.6,5.7c-0.6,3-0.3,6.6-1.9,9c-5.1,7.9-10.8,15.4-16.3,23.1c-2.2,3.1-4.7,5.1-9,4.9c-4.1-0.2-6.1,3.5-3.9,7.2
		c1.1,1.9,3,3.6,4.9,5c7.8,5.8,15.9,11.4,23.7,17.3c10,7.6,20.7,11.6,32.8,5.4C272.6,890.6,278.9,879.6,279.9,868.9z M831.8,243.3
		c1.8,6.2,2.9,12.7,5.4,18.6c6,14.4,24.7,27.6,40,19.2c1.1-0.6,2.8,0,4.2-0.1c2.5-0.1,6.5,0.5,7.1-0.7c1.3-2.3,1.8-6.2,0.8-8.6
		c-3.6-8.7-9.4-16-17.3-21.1c-2-1.3-6.2-1.7-7.7-0.4c-1.5,1.3-0.9,5.1-1.2,7.8c-0.3,2.2,0.1,5.5-1.1,6.3c-3.1,2-5.5-0.3-6.8-3.2
		c-0.8-1.8-1.2-3.8-1.3-5.8c-0.2-10.3,5-18,12.5-24.2c4.1-3.4,9.1-5.4,14.6-2.5c5.6,3,6.7,8.2,6.7,13.8c0,3.4-0.7,6.9-0.4,10.3
		c0.4,5.3,4.2,8.4,8.7,7.5c6.1-1.2,8.9-5.8,10.7-11.2c1.5-4.6,1.1-8.8-3-12.3c-1.7-1.4-2.9-3.6-4-5.6c-6.4-12-14.8-21.7-29.1-23.8
		C850.4,204.2,832.7,221.1,831.8,243.3z M501.5,109.1c0-0.3,0-0.6,0-0.9c7.8,0,15.6,0.3,23.4-0.2c2.4-0.2,5.8-2,6.8-4
		c2.1-4.5,3.7-9.5,4.2-14.5c0.2-2.3-2.6-5-4-7.5c-2,1.5-4.7,2.5-5.8,4.5c-2.8,4.8-6.1,8.2-11.9,9.2c-11.5,1.8-13.6,0.3-13.4-11.4
		c0-2.2,1.9-4.4,2.9-6.6c1.7,1.7,3.5,3.4,5.2,5.2c1.3,1.3,2.5,3.7,3.9,3.8c1.4,0,3.9-2.1,4-3.5c0.9-6.7,1.7-13.6,1.3-20.3
		c-0.2-2.7-3.5-5.2-5.4-7.8c-1.7,2.3-3.4,4.5-5.1,6.8c-0.2,0.3-0.1,0.9-0.3,1c-1.6,0.9-3.2,2.4-4.8,2.3c-1.2-0.1-2.9-2-3.2-3.4
		c-0.5-2.4-0.1-5-0.2-7.6c-0.2-3.9,1.9-5.6,5.5-5.9c6.7-0.6,13.1-0.6,17.5,5.9c0.9,1.3,3.7,2.3,5.1,1.9c1.6-0.6,3.7-3,3.7-4.5
		c-0.1-4.2-0.8-8.5-1.9-12.6c-1-3.6-4.1-4.4-7.8-4.1c-8.8,0.9-17.7,1.4-26.5,2c-6.5,0.4-13.1,0.4-19.5,1.2c-1.8,0.2-4.1,2.5-4.7,4.3
		c-0.5,1.4,1.2,3.7,2.2,5.5c1.3,2.4,4,4.7,4.1,7.1c0.6,12.6,0.8,25.3,0.7,37.9c0,1.9-1.6,3.9-2.4,5.8c-1,2.3-3.4,5.6-2.7,6.7
		c1.4,1.9,4.6,3.2,7.1,3.3C486.6,109.3,494.1,109.1,501.5,109.1z M508.9,922.9c-20.5,0.6-34.5,14.8-33.9,34.6
		c0.6,19,15.8,32.5,35.9,32c19.8-0.5,34.3-14.9,33.8-33.6C544.3,936.8,528.5,922.3,508.9,922.9z M605,913.2
		c-21.3,0-36.9,14.2-36.9,33.7c0,19.4,13.7,33.1,33.3,33.2c19.9,0.1,36.4-15,36.4-33.5C637.7,928,623.3,913.2,605,913.2z
		 M189.8,850.5c15.1,0.1,23.8-5.1,29.4-15.3c11.4-21-0.6-48.6-23.8-54.3c-11.2-2.7-21.3-0.3-29.3,8.3c-10.1,10.9-12.7,23.4-6.7,37.1
		C165.7,840.8,176.7,849.6,189.8,850.5z M786,196.9c-0.5-4.6,1.2-6.5,4-4.3c4.4,3.4,8.2,7.5,12,11.7c0.5,0.5-0.7,4-1.6,4.2
		c-7.1,1.9-8.8,6-3.6,11.6c5.5,6,11.7,11.3,17.8,16.7c1.5,1.3,3.9,2.1,5.9,2.2c3.8,0.2,5.3-1.8,5.1-5.8c-0.2-4.8-0.3-9.7,0.6-14.3
		c3-14.7,6.9-29.3,9.7-44c0.9-4.7,0.2-10.3-1.5-14.8c-3.4-8.7-12.5-9.7-18.8-2.9c-2.4,2.6-5,5.5-8,7.2c-9.3,5.2-18.9,10.1-28.5,14.6
		c-2.7,1.3-6.3,0.9-9.4,1.4c-2,0.3-5.3,0.2-5.8,1.2c-0.9,2-1.3,5.6,0,7c4.6,5,9.4,10,15,13.8C783,205.1,786.5,202,786,196.9z
		 M143.9,341.5c-0.8-1.5-1.5-4.3-3.3-5.4c-1.2-0.7-3.9,1-5.9,1.6c-2.2,0.7-4.4,1.7-6.6,1.8c-11.4,0.6-22.9,0.4-34.2,1.6
		c-7.6,0.8-15.6,2.3-22.2,5.8c-8.5,4.5-7.4,17,0.9,21.9c3.2,1.9,6.7,3.9,9.1,6.7c7.3,8.3,14.3,16.8,21,25.6c2.1,2.7,2.6,6.6,4,9.9
		c0.7,1.7,1.7,4.3,2.9,4.5c1.7,0.3,4.9-0.7,5.5-2c3-6.7,6-13.5,7.6-20.6c1.1-5-2.2-6.7-7-4.8c-1.2,0.5-3.2,1-3.8,0.4
		c-0.8-0.7-1.3-2.8-0.9-3.9c1.9-5.1,4-10.1,6.4-15c0.5-1,2.3-1.8,3.5-1.9c0.6,0,1.5,1.8,1.9,2.8c2.2,5.3,6.1,6.2,9.1,1.6
		C137.6,363,141.8,353.2,143.9,341.5z M372.5,900.2c-15,0-27.5,8.7-31.6,21.9c-4.5,14.6,0.3,28.5,13.6,38.6c3.3,2.5,5.4,5.4,3.9,9.1
		c-0.6,1.4-4.4,1.8-6.8,2c-4.6,0.5-6.4,3.6-3.9,7.5c2.5,4,12.9,7.7,17.2,5.8c5.7-2.6,3.4-7.6,3.2-11.9c0-0.4-0.1-0.7-0.2-1.1
		c-0.7-3.2,0.3-4.7,3.9-4.6c4.2,0.2,8.3-0.3,12.5-0.3c5.3-0.1,9-2.8,11-7.4c0.9-2,1.1-5.2,0.2-6.9c-0.7-1.2-4.1-1.4-6.2-1.1
		c-16.8,2.7-27.6-8.7-23.8-25.3c1.6-7,4.9-10.8,9.5-11.2c5.2-0.4,10.7,3.7,13,9.9c1,2.7,1.6,5.6,2.7,8.3c2,4.7,7.6,6.4,11.8,3.4
		c5.3-3.8,5.5-9.4,5.2-15.2c-0.2-4.8-2.4-8.1-7.2-9.7c-2.5-0.9-4.8-2.6-6.9-4.2C387.3,902.8,380.3,900.3,372.5,900.2z M696.8,898.7
		c-0.9,22,22,36,39.6,30.8c18.7-5.6,28.8-17.8,27.7-36.5c-0.1-1.6,1.1-3.3,1.4-5c0.3-2.2,1.1-5.1,0-6.4c-1.3-1.5-4.8-2.8-6.4-2.1
		c-6.3,2.6-12.4,5.8-18.2,9.4c-2.6,1.6-4.9,4.4-6.2,7.3c-2,4.6,1.1,7.7,6.1,7.1c1.7-0.2,3.6,0.8,5.3,1.3c-1.1,2-1.8,4.7-3.5,5.7
		c-1.7,1.1-4.6,1.1-6.8,0.6c-9-2.1-17.3-11.4-18.7-20.6c-1.3-8.4,4.4-14.8,12.8-14.2c3,0.2,6,1.4,9,2.1c5.1,1.2,9.4-0.8,10.8-4.8
		c1.5-4.2-1.1-10.7-5.7-13.7c-4.2-2.7-8.4-4-12.9,0c-1.9,1.7-4.6,2.7-7.2,3.5C707.8,868.3,696.8,882.6,696.8,898.7z M747.8,149.7
		c3.6,2,6.6,4.1,9.9,5.5c8.5,3.6,17.1,4.3,24.5-2.1c7.2-6.2,9.5-14.4,6.9-23.6c-2.2-7.7-7.6-13.1-14.4-16.9
		c-9.1-5.1-18.3-10.2-27.7-14.9c-2-1-4.9-0.2-7.4-0.3c0,2.5,0,5,0.1,7.5c0.1,2.7,1.4,5.9,0.4,8.1c-5,10.6-10.4,21.1-16.1,31.4
		c-1.1,2-3.9,3.6-6.2,4.5c-4.4,1.7-6.1,4.9-3,8.6c6.4,7.5,14.4,12.6,24.2,14.3c4.6,0.8,7.3-2.3,5.5-6.6
		C741.9,159.3,744.4,154.9,747.8,149.7z M308.1,939.8c9.9,0.2,16.4-2.6,20.5-9.8c4.4-7.7,8.2-15.8,12.7-23.4
		c1.3-2.2,3.9-4.2,6.3-5.2c5.1-2,6.5-5.9,2.1-9.1c-4.9-3.6-10.5-6.3-16-8.8c-1.5-0.7-4.5,0.3-5.7,1.5c-0.9,0.9-0.2,3.6,0,5.4
		c0.2,2.2,1.7,4.9,0.9,6.6c-3.6,8.1-7.7,16-12,23.8c-2.3,4.1-6.3,5.1-10.9,3.8c-8.8-2.4-13-9.4-9.8-17.9c2.4-6.2,5.7-12.2,9.2-17.8
		c1.5-2.5,4.5-4.5,7.2-5.7c4.3-1.9,6-5.4,2.6-8.8c-6.7-6.9-15-11.5-24.4-13.4c-4.9-1-6.6,1.8-6.4,6.7c0.2,3.9-0.3,8.2-1.7,11.8
		c-2.7,6.9-6.6,13.3-9.6,20.1c-3.4,7.7-2,15.1,2.8,21.6C284.5,932.6,296.1,938.3,308.1,939.8z M651.3,131.6c3.8-1.8,7.3-2.5,9.1-4.6
		c2.6-3-0.5-5.7-2.1-8.6c-1.3-2.3-1.8-5.6-1.2-8.1c1.9-9,4.2-18,6.7-26.8c0.6-2,2.3-3.8,3.4-5.7c1.4,1.9,2.8,3.8,4,5.8
		c0.5,0.7,0.3,2,0.9,2.5c2.4,1.9,5,5,7.4,5s5.8-3,6.8-5.4c2.6-6.3,1.6-13-2-18.7c-1.2-2-4-3.4-6.4-4.1c-11.1-3.3-22.5-5.6-33.3-9.4
		s-14.4-3.4-21,6c-4.1,5.8-4.7,11.3-1.5,14.4c3.1,3,7.3,2.1,13.5-2.5c1.3-0.9,3.1-1.1,4.7-1.6c0.3,1.5,1.1,3.2,0.7,4.5
		c-3.1,10.6-6.3,21.2-9.7,31.6c-0.5,1.6-2.7,2.6-4.1,3.8c-1.9,1.5-5.5,3-5.5,4.5c0,2.4,1.8,5.9,3.9,6.9
		C633.8,124.9,642.6,128.1,651.3,131.6z M108.5,442.2c-0.2-0.1-0.5-0.2-0.7-0.3c-0.2-1.8-0.1-3.7-0.6-5.4c-1-3.2-5.2-4.5-6.8-1.8
		c-4,6.5-9.2,4.5-14.3,2.7c-1.8-0.6-4.3-2.7-4.5-4.3c-0.3-3.3,2.5-4,5.5-4.5c2.2-0.4,5.6-1.9,5.8-3.2c0.3-2.2-1-5.8-2.8-6.8
		c-4.8-2.7-10.1-4.5-15.4-6.2c-3.4-1.1-7.2-1.1-9.1,2.7c-1.8,3.6,0.7,6,3.2,8.3c2.8,2.5,2.5,6.1-0.6,7c-2.6,0.8-6.3-0.5-9-2
		c-1.5-0.8-2.6-4-2.3-5.8c1-7,3.7-13,10.7-16.6c4.8-2.4,5.4-6.5,2.2-9.7c-3.8-3.7-8.5-3.5-13.3-2.5c-4,0.9-5.7,3.8-6.7,7.6
		c-3.7,14.8-7.6,29.5-11.4,44.2c-0.5,1.7-1.3,3.6-1,5.3c0.4,2.2,1.2,4.8,2.7,6c1.1,0.8,3.8-0.5,5.8-0.9c2.9-0.6,6-2.3,8.6-1.6
		c10,2.7,19.8,5.9,29.5,9.4c2.3,0.8,4.3,3.1,5.7,5.3c1.5,2.4,1.9,6.4,5.5,5.4c2.5-0.7,5.4-3.3,6.2-5.7
		C104.1,460.1,106.1,451.1,108.5,442.2z M805.9,867.5c0,2.8-0.1,4.4,0,6c0.3,4,3.1,6.4,6.1,4.1c8.4-6.2,16.2-13,24-20
		c1.1-0.9,0.9-4.4,0-6c-0.6-1.1-3.3-1.2-5.1-1.6c-2.7-0.6-5.7-0.7-8.2-1.9c-10.2-4.7-20.1-10-30.4-14.4c-5.4-2.3-11.3-4.5-17.1-4.8
		c-10.3-0.5-15.6,9.7-10.8,18.6c2.6,4.9,5.3,10.1,6.3,15.4c2.3,12.1,8.5,23.7,4.1,36.7c-1.1,3.3,2.9,6.4,5.8,4.4
		c5.7-4,11.2-8.5,15.8-13.6c3-3.4,0.9-6.8-3.9-7.3c-3.1-0.3-4.5-2-2.7-4.1C793.9,874.1,798.6,869.7,805.9,867.5z M464.4,988.8
		c0.1-0.2,0.1-0.4,0.2-0.6c1.1,0,2.3,0.4,3.2-0.1c2.3-1.1,5.2-2.1,6.3-4c0.6-1.1-1.8-4-2.8-6.1c-1.3-2.7-3.1-5.3-4-8.1
		c-4.1-13.1-7.6-26.4-12.1-39.4c-1.5-4.4-4.7-8.7-8.3-11.7c-5.9-4.9-14.8-2.5-16.5,4.3c-3.7,15.2-14,26.4-22.3,38.8
		c-1.3,1.9-4,2.9-5.9,4.5c-1.6,1.4-4.3,3.1-4.2,4.5c0.2,2,2.1,4.9,3.9,5.5c5.1,1.6,10.6,2.6,15.9,2.9c6.5,0.3,8.1-3.2,4.9-8.8
		c-0.6-1-1.2-2.9-0.7-3.3c0.8-0.9,2.5-1.6,3.7-1.4c4.6,0.7,9.3,1.6,13.8,2.8c3.1,0.9,3.6,2.6,0.8,4.9c-4.9,4-4.1,8.4,2,10.1
		C449.6,985.6,457,987.1,464.4,988.8z M954.9,645.7c2.6,2.4,4.8,4.4,7,6.4c2.2-2.7,5.2-5,6.4-8.1c2.5-6.2,4.3-12.7,6-19.1
		c0.6-2.5,0.6-5.5,0-8c-0.9-3.8-3.8-4.2-7-2c-2.5,1.8-5.5,3.4-8.5,4c-11,2-22.2,3.3-33.2,5.4c-5.1,1-10.2,2.6-14.9,4.8
		c-5.3,2.5-7.9,7.2-7.6,13.3c0.3,5.8,4.1,8.2,8.8,10.5c4,1.9,7.8,4.6,11.1,7.6c6,5.5,11.8,11.2,17.3,17.3c2.2,2.4,3.2,5.9,4.9,8.8
		c1.1,1.8,3,5,3.9,4.8c2.1-0.5,4.7-2.2,5.6-4.1c2.1-4.8,3.7-9.9,4.6-15c0.4-2.5-1.3-5.3-2-8c-2.2,0.7-4.4,1.5-6.7,2.2
		c-0.5,0.2-1,0.1-1.5,0.2C946.5,661.5,950.2,649.1,954.9,645.7z M876.3,704c-0.2,20.4,7.6,32.9,20.1,37.4c12.7,4.6,27-0.3,36.5-12.3
		c7.2-9.1,8.4-19.8,8.8-30.7c0.1-2.1-1.2-4.8-2.8-6.2c-2.4-2.1-5.5-3.2-8.4-4.8c-0.9,2.7-1.8,5.3-2.7,8c-0.2,0.5,0.1,1.1,0,1.6
		c-0.6,7.9-3.3,14.4-11,17.9c-7.8,3.5-15,1.6-21.5-3.1c-5.7-4.1-6.1-9.6-1.6-15c3.5-4.3,8-6.3,13.7-6.5c7-0.2,10.3-4.8,8.6-11.3
		c-1.6-6.1-6.8-7.5-12.2-8.4c-4.7-0.8-9-0.3-11.4,5c-0.9,2.1-2.4,4.1-4.1,5.6C880,688.7,876.5,698.2,876.3,704z M145.6,706.9
		c-0.7-3-0.8-6.2-2.1-8.9c-5.9-12-12.1-23.9-18.5-35.6c-0.8-1.5-3.8-2.9-5.2-2.6c-1.3,0.4-2.7,3.2-2.8,5c-0.2,3.4-0.9,5.9-4.1,7.6
		c-8.8,4.6-17.5,9.5-26.4,14c-1.8,0.9-4.3,1.2-6.2,0.7c-6.9-1.8-9.9,0.5-7.5,7.3c2.4,6.9,6,13.5,9.7,19.9c1.1,1.9,4.4,3.6,6.6,3.5
		c1.4-0.1,2.6-3.6,3.8-5.7c0.7-1.2,1.2-2.7,2.1-3.7c4.8-4.9,7-4.4,10.2,1.6c1.9,3.6,4.2,7.3,6.9,10.3c5.8,6.3,14.4,8,21.9,4.9
		C141,722.3,145.1,715.7,145.6,706.9z M910.8,338c-0.2,0.3-0.3,0.6-0.5,1c-0.5,0-1.1,0.1-1.6,0.1c-5.3,0.1-10.1-3.5-11.8-8.8
		c-1.6-5.1,2.3-7.1,5.6-9.3c7.6-4.9,15.2-9.8,22.8-14.7c3.2-2.1,6.2-3.1,10-0.8c3.5,2.1,6,0.3,6.5-3.6c0.3-1.9,0.3-4.2-0.6-5.8
		c-4.5-8.2-9.1-16.3-14.2-24.2c-1-1.6-4.5-2.6-6.5-2.2c-1.2,0.2-1.8,3.7-2.7,5.7c-1.2,2.6-1.7,6.2-3.7,7.7
		c-8.6,6.3-17.6,12.1-26.7,17.6c-2.3,1.4-5.7,0.9-8.7,1c-2,0.1-5.4-1-5.7-0.3c-1,2-1.3,4.7-0.9,7c0.3,2,1.7,3.9,2.7,5.9
		c5.9,11.6,11.7,23.2,17.7,34.8c0.9,1.7,2.2,3.5,3.8,4.2c4.9,2.3,15.3,0.1,18.6-4.3c1.5-2,2.3-5.4,1.7-7.7
		C916.4,339.7,912.9,339,910.8,338z M268.8,193.5c-0.8-7.9-2-14-7.3-18.1c-1.5-1.2-4.8-1.8-6.3-1c-1.4,0.7-1.8,3.8-2,5.9
		c-0.2,3,1.3,6.6,0.1,9c-1.6,3.3-4.5,6.7-7.7,8.2c-1.5,0.7-5.7-2.2-7.5-4.4c-6.1-7.4-11.9-15-17.3-22.9c-1.6-2.3-1.2-6-1.8-9
		c-0.4-2.2-0.4-5.2-1.7-6.2c-1.4-1.1-4.9-1-6.4,0c-5.6,3.9-11,8.2-15.9,12.9c-2.7,2.5-4.9,5.9-6.3,9.3c-2.1,5.3,0.6,8.2,6.1,6.7
		c3.4-0.9,5.3,0,7.4,2.7c5.8,7.7,11.8,15.1,17.7,22.6c3.4,4.4,6.5,8.7,4,14.8c-0.5,1.2,0.5,3.9,1.6,4.6c1.2,0.7,3.4,0.1,5-0.3
		c1.1-0.3,2-1.5,3-2.3c10.5-8.8,21.1-17.5,31.5-26.6C267,197.9,268,194.9,268.8,193.5z M153.8,218.2c1.7,1.1,3.8,3.8,5.5,3.5
		c6.2-1.1,10,2.1,13.7,5.9c5.3,5.4,10.7,10.8,15.9,16.3c3.1,3.3,5.7,6.8,5.6,11.9c0,4.1,3.5,6.2,6.7,4.3
		c9.7-5.9,16.6-14.5,20.2-25.2c1.5-4.4-1.2-6.3-5.9-6.7c-3.1-0.2-6.9-1.1-9.1-3.1c-7-6.2-13.6-13-19.9-19.9c-2-2.2-2.9-5.6-4.1-8.5
		c-0.9-2.3-1.3-6.7-2.3-6.9c-2.6-0.4-6.5,0.3-8.2,2.1c-5.9,6.7-11.1,14.1-16.5,21.3C154.7,214.1,154.6,215.5,153.8,218.2z M704,76.5
		c-5.8-0.4-7.5,2.3-6.2,8.2c0.8,3.5,1.3,7.7,0.2,11c-3.7,10.2-8.1,20.1-12.5,30.1c-0.7,1.6-2.5,3.1-4.2,4c-6,3.3-7.1,7.9-1.4,11.4
		c7.3,4.4,15.4,8,23.6,10.4c6.1,1.8,8.4-2.2,6.6-8.4c-0.9-2.9-1.5-6.6-0.5-9.3c3.5-9.9,7.6-19.6,11.9-29.2c1.1-2.4,3.6-4.6,6-5.7
		c5.5-2.6,6.9-7.3,2.1-11.2C722.1,81.7,713.6,77.8,704,76.5z M65.6,530.4c-9.6,0-17.4,7.8-17.2,17.3c0.2,9.2,7.9,16.9,17.1,17
		c8.9,0.1,16.8-8,16.9-17.1C82.5,538.3,74.7,530.4,65.6,530.4z M948.2,564.5c9.6,0,16.5-7.4,16.5-17.7c0-9.1-7.5-16.3-16.8-16.3
		c-9.4,0-16.8,7.4-16.9,16.9C930.8,556.9,938.4,564.5,948.2,564.5z M453.5,916.1c6.9-0.2,10.1-3,10.8-7.4c0.4-2.5-1.1-6-3-7.8
		c-1.1-1-4.6,0.6-7.1,0.9c-1.7,0.2-3.6,0.8-5,0.3c-2.5-1-4.5-3.1-7-4.1c-2.9-1.1-6.5-2.4-9.2-1.6c-2.3,0.6-4.7,3.9-5.3,6.4
		c-0.6,2.3,0.4,6,2.1,7.6c1.1,1.1,4.7-0.6,7.2-0.6c2.3,0,4.7,0.4,6.7,1.3C447.6,912.8,451.3,914.9,453.5,916.1z M769.3,812.5
		c-13.5,0.3-16.7,3-19.3,16.1c-0.7,3.6-2.6,8.3,2.2,10s6.3-3.2,7.6-6.6c2-5,5.3-7.9,10.6-8.9c3.6-0.7,8.5-1.2,8-6.2
		C777.7,811,772.4,813,769.3,812.5z M167.6,183.4c-2-2.9-4-7.5-5.2-7.3c-3.4,0.5-6.9,2.6-9.5,4.9c-2.6,2.3-5,5.3-3,9.6
		c0.9,2,0.9,4.5,1.6,6.6c0.6,1.9,1.3,4.8,2.6,5.2c1.5,0.4,4.5-0.9,5.3-2.4C162.3,195,164.6,189.6,167.6,183.4z"/>
	<path class="st0" d="M964.1,975.4c-33.9,1.4-65.1-29.1-63.4-66.7c1.4-31.1,28.2-61.2,65.7-60.4c32.9,0.7,62,29,61.8,64.9
		C1028,946,999.1,977.1,964.1,975.4z M936.4,952.2c0-25.9,0-51.5,0-78.6c13.7,0.9,27.2,1.1,40.6,2.8c8.3,1,14.1,6.7,15.7,15.3
		c1.7,8.9-0.4,16.9-7.6,23c-1.5,1.3-3.1,2.4-5.1,3.9c6.9,10.2,13.6,20.2,20.3,30.2c20.8-18.7,20.9-51.7,0.8-72.8
		c-19.2-20.2-53.5-20.3-73.4-0.2c-20.6,20.8-19.9,54.5,1.6,74.5c19.9,18.5,51.4,16.5,66,2.3c-4,0-7.4-0.2-10.7,0.1
		c-3.6,0.3-5.8-0.8-7.6-4.2c-3.9-7.4-8.1-14.6-12.6-21.6c-1-1.6-3.7-2.1-5.6-3c-0.7,1.7-1.8,3.3-1.9,5c-0.2,7.7-0.1,15.5-0.1,23.5
		C949.6,952.2,943.2,952.2,936.4,952.2z M956.9,899.1c0,9.4,1.7,11,9.3,8.6c4.8-1.5,7.2-6,6.2-11.2c-0.9-4.8-5.5-7.5-11.9-6.9
		c-6.3,0.6-2.5,5.5-3.5,8.4C956.8,898.4,956.9,898.8,956.9,899.1z"/>
	<path class="st0" d="M880.2,509c0,201.7-162.4,365.3-364.5,365.8c-204.5,0.6-366-164-367-363.9c-1-203.7,163.7-367,364.3-367.7
		C716.1,142.4,880.4,307.2,880.2,509z M518.6,599.9L518.6,599.9c-88.3,0-176.7,0-265,0c-7.8,0-7.9,0.2-7.8,7.9
		c0.5,25.1,4.9,49.5,14,72.8c22.8,58.5,64.1,100.5,119,129.7c33.5,17.8,69.4,28.2,107.2,32c55.7,5.5,109.2-2.1,160.1-25.7
		c40.7-18.9,75.2-45.4,102-81.7c27.2-36.9,42.3-78.2,43.6-124.2c0.3-11.1,2-10.7-10.8-10.7C693.5,599.9,606.1,599.9,518.6,599.9z
		 M477.3,588.9c0.3-0.5,0.6-1.1,0.9-1.6c-43.5-64.4-87-128.7-130.4-193.1c0.7-0.5,1.4-1,2.1-1.5c49.3,62.1,98.7,124.2,148.7,187.2
		c1-2.3,1.4-2.9,1.5-3.6c5-28,16.6-53.1,32.9-76.2c9.8-13.9,20.2-27.5,33.9-37.9c3.7-2.8,6-5.9,7.3-10.3c6-21.1,11.9-42.2,18.3-63.2
		c0.9-2.8,3.5-5.9,6.2-7.3c7.5-4.1,12-10,12.7-18.3c0.9-9.7-4.3-17.6-13.8-21.8c-6.9-3-17.1-0.9-22.7,4.8c-6.9,7-8.9,16.5-4.4,24.9
		c2.1,3.9,1.8,6.9-0.3,10.6c-12.3,20.7-24.4,41.5-36.7,62.2c-3.6,6-4.2,6-8.3,0c-11.3-16.5-24.4-31.6-39.4-44.8
		c-27.1-23.9-57.9-41.3-92.4-52.4c-31.7-10.2-64.2-14.7-97.5-14.4c-4.1,0-5.8,1.6-6.3,5.6c-2,16.9-4.8,33.8-6.1,50.7
		c-2.9,38.8,3.5,76.3,18.9,112c13.6,31.6,33.6,58.6,59,81.8c5,4.6,10.3,7,17.4,6.9c31-0.4,62-0.2,93-0.1
		C473.5,588.9,475.4,588.9,477.3,588.9z M568.5,587.9c43.8,0,86,0.1,128.2-0.2c2.7,0,6.2-1.6,8-3.7c8.4-9.5,17.1-18.8,24.2-29.2
		c26-38.4,34.8-81,30.1-126.8c-0.3-3.2-1.6-4.3-4.8-4.4c-41.1-0.7-81.8,0.8-120.7,17.1c-26.1,11-49.5,25.7-69.3,45.8
		c-18.9,19.2-33.2,41.6-42.2,67.1c-3.4,9.5-5.4,19.5-7.7,29.4c-0.3,1.3,1.2,4.4,1.9,4.4c9.4,0,19.1,2.4,27.7-4.3
		c8.3-6.4,17.3-11.9,25.9-17.9c24.1-16.7,48.1-33.5,72.1-50.3c20.8-14.5,41.5-29,62.3-43.5c2.6-1.8,5.6-3,8.4-4.5
		c0.5,0.7,1,1.5,1.5,2.2C666,508.5,617.8,547.8,568.5,587.9z"/>
	<path class="st0" d="M940.5,440.3c2.1-4.4-0.3-19.4-3.3-21.9c-2.2-1.8-3.7-1.3-5,1.5c-0.8,1.8-2.9,4.7-3.7,4.4
		c-2.2-0.6-5.1-2.2-5.7-4c-2.1-7-3.4-14.3-5.1-21.4c-0.5-2.1-1.1-4.4-2.4-5.9c-7.2-8.1-11.7-17.5-13.4-28c-1.1-6.3,1.7-8.1,7.8-6.6
		c2.1,0.5,4.9,0.7,6.8-0.2c9.1-4.1,18.1-8.3,26.7-13.3c3-1.7,5.2-5.4,6.7-8.7c2.4-5.4,5.1-6.3,9.1-1.9c6.9,7.8,10.9,17.1,13,27.1
		c1.3,6-2.5,8.5-8.2,6.8c-3-0.9-7-0.8-9.8,0.5c-8.3,3.7-16.2,8-24.1,12.4c-2.2,1.2-4.5,3.3-5.6,5.6c-2.9,5.9,0.9,13.4,8.6,14.6
		c14.9,2.3,29.6,7.1,45.1,3.3c7.5-1.8,14.2,4.5,13.2,12.9c-0.5,4.6-2.4,9.8-5.4,13.2c-10.2,11.5-21.3,22.2-31.7,33.4
		c-2.7,2.9-4.3,6.8-6.6,10.1c-0.9,1.4-2.4,3.7-3.4,3.6c-2.1-0.2-5-1.3-5.7-2.9c-2.6-5.5-4.7-11.3-6.5-17.2c-1.2-4.1-2-8.5-2.2-12.8
		c-0.1-2.4,1.2-5.3,2.8-7c0.7-0.7,4,1.1,6.1,1.8C939.2,439.8,939.7,440,940.5,440.3z M955.6,429.1c3.2-2.8,8.4-4.5,7-9.5
		c-0.4-1.3-6.9-2.8-8.5-1.6C949.8,421.4,954.1,425.2,955.6,429.1z"/>
	<path class="st0" d="M302.7,161.7c9.6-13.4,5.1-28.4,5.4-42.5c0.1-6-1.5-12.2-3.1-18.1c-1.5-5.4-1.1-10.1,3-14
		c3.8-3.7,10.1-4.7,15.2-1.7c6.3,3.8,12.4,8.1,18.1,12.8c6.9,5.6,13,12.1,19.9,17.6c3.5,2.8,7.8,4.8,12,6.6c3.4,1.5,5,4.4,2.6,7.7
		c-1.8,2.6-4.4,4.9-7.2,6.5c-5.6,3.3-11.4,6.3-17.5,8.7c-2.5,1-6.1,0.6-8.6-0.6c-1-0.5-0.6-4.8-0.1-7.2c0.7-3.2-1-4.6-3.3-3.7
		c-5.3,2.1-10.7,4.5-15.5,7.7c-2.6,1.7-2.2,4.3,1.6,5.3c5.7,1.6,6.8,5.8,2.3,9.7c-6.5,5.7-13.9,9.8-23.2,9.3
		c-4.3,10-13.1,15.6-22.2,20.5c-2.3,1.3-6.1,1.3-8.6,0.4c-1.2-0.5-0.8-4.7-1.3-7.2c-0.6-3-0.7-6.2-2.1-8.8
		c-4.5-8.3-9.1-16.5-14.5-24.2c-2-2.9-5.8-5.1-9.3-6.5c-3.9-1.7-6-4.1-3.8-7.8c6-9.7,14.5-16.6,25.6-19.7c4.3-1.2,7.5,2.1,5.9,6.2
		c-1.8,4.9-0.6,8.9,1.7,12.9c4.8,8.1,9.7,16.2,14.7,24.1C293.5,160.3,293.6,160.1,302.7,161.7z M318.5,119.9
		c1.6,2.1,3.6,5.4,4.1,5.2c2.7-1.1,5-3.1,7.5-4.8c-2.7-2.1-5.4-4.3-8.1-6.4C321,115.6,320,117.4,318.5,119.9z"/>
	<path class="st0" d="M837.9,776.1c-6.5,1.7-9.5-2.1-6.3-7.3s8.1-9.5,12.3-14.2c1.6-1.8,3.2-3.5,4.5-5.5c4.8-7.4,9.2-15,14.2-22.2
		c1.1-1.5,4.4-2.7,6.1-2.2c1.6,0.5,2.3,3.5,3.5,5.4c1.7,2.8,2.9,6.3,5.4,8.3c6.6,5.4,13.5,10.4,20.6,15c2.2,1.4,5.8,1.3,8.7,1.2
		c4.5-0.2,7,1.5,6,5.9c-2.2,10-7.9,18.3-15.4,25.1c-3.4,3.1-6.6,1.3-8.1-3c-1-2.9-2.5-6.1-4.8-8c-6.8-5.6-14.1-10.8-21.3-16
		c-3.4-2.4-7.5-3.5-10.4-0.1c-3.2,3.7-1.2,7.6,1.9,10.6c7.9,7.5,16,14.7,23.9,22.2c3.3,3.2,8,6.2,6.3,11.7
		c-1.7,5.4-7.2,4.7-11.6,5.4c-10,1.7-20.1,3-30.1,4.6c-1.6,0.3-4.3,1.3-4.4,2.2c-0.2,1.6,0.8,3.8,2,5.1c3.2,3.4,6.6,6.5,12.2,5.5
		c4.3-0.8,6.8,2.3,5.5,6.8c-2,7.1-6.6,12.5-12.9,16.1c-4.2,2.3-7,0.1-8.2-4.6c-0.9-3.6-2.4-7.6-4.8-10.3
		c-4.7-5.2-10.2-9.8-15.6-14.3c-3.5-2.9-7.4-4.8-12.5-3.7c-4.7,1-6.7-1.7-5.8-6.4c1.5-7.6,11.5-16.8,19.1-17.9
		c8.8-1.3,17.5-2.8,26.3-4.4c1.5-0.3,2.8-1.4,4.2-2.1c-0.9-1.4-1.4-3.3-2.7-4.2C843.4,778.8,840.6,777.5,837.9,776.1z"/>
	<path class="st0" d="M154.9,274.4c3,5.6,6,11.2,8.9,16.8c1.3,2.4,2.7,4.7,3.6,7.3c1.5,4.8-0.5,7-5.5,6.2
		c-6.8-1.1-13.6-2.4-20.3-3.6c-1.2-0.2-2.4,0-3.7,0c2.1,6.3,10.4,11.5,16.7,10.6c4.1-0.6,7.1,1.7,5.5,5.4c-2.5,6-5.8,12-9.9,17.1
		c-2.8,3.5-6.2,1.6-7.4-2.5c-1.1-3.6-2.7-7.6-5.4-10c-7.2-6.5-14.9-12.6-22.9-18.2c-2.6-1.8-6.7-2-10-1.7c-5,0.4-8.3-1.5-6.7-6.1
		c2.4-6.8,6.2-13.3,10.1-19.4c1-1.6,4.9-2,7.4-1.8c6.7,0.3,13.3,1.2,20,1.8c4.6,0.4,5.9-1.1,4-5.3c-2.4-5.3-5.1-10.4-7.7-15.6
		c-4.9-9.5-1.1-22.5,8.3-27.9c3.3-1.9,7.1-1.9,8,2.2c1.9,8.3,8.3,12.5,14.2,17.1c4.8,3.8,9.9,7.4,15.2,10.5c2.6,1.5,6,2.2,9.1,2.2
		c5,0,7.6,1.7,6.5,6.5c-2.2,9.6-7.8,17.5-15.1,23.9c-3.2,2.8-6.4,1.3-7.5-3.3c-1.8-7.4-7.6-10.3-13.2-13.6
		C156.2,273.5,155.5,274,154.9,274.4z"/>
	<path class="st0" d="M595.1,78.3c10.6,5.7,11.3,13.9,11.7,22.4c0.1,1.7,1.6,3.5,2.8,5c3.9,4.6,2.8,9.5-3.1,10.6
		c-15.3,2.8-24.1-1.5-26.5-16.7c-0.6-3.9-0.6-8-1.8-11.8c-0.6-1.8-3.1-3-4.7-4.5c-1,1.7-2.5,3.4-2.9,5.2c-1,4.8-1.1,9.4,2.5,13.8
		c2.8,3.5,0.8,8-3.7,8.5c-8.9,1.1-17.8,0.3-26-3.8c-5-2.4-5-6.4-1.5-10.6c2.3-2.7,4.6-6.1,5.2-9.5c1.7-9.6,3-19.4,3.6-29.1
		c0.2-3.6-1.5-7.5-3.2-10.8c-2.2-4.1-1.2-8.4,3.4-9.3c2.8-0.5,5.8-0.4,8.6-0.1c8.8,1,17.6,1.9,26.3,3.5c4.7,0.9,9.7,2.3,13.5,5
		c10.7,7.3,10.7,21.5,0.5,29.6C599,76.6,597.7,77,595.1,78.3z M582.4,61c-0.1-1.2,0.1-2.3-0.3-3c-1.3-1.7-2.9-3.3-4.3-4.9
		c-1.2,1.6-2.7,3-3.5,4.7c-0.8,1.8-1.3,3.9-1,5.8c0.3,2.1,1.4,4.2,2.2,6.2c2-1.5,4.3-2.7,5.9-4.5C582.4,64.4,582.2,62.3,582.4,61z"
		/>
	<path class="st0" d="M436.8,44.5c15.1,0.1,22.7,12.2,17.2,23.5c-2,4.2-2.1,6,2.6,8.2c12.4,5.8,12.9,26,0.8,34.2
		c-3.6,2.5-8.1,4.2-12.4,5.1c-10.8,2.5-21.6,4.5-32.5,6.3c-2.9,0.5-6.8,0.1-8.8-1.5c-1.2-0.9,0.3-5.3,0.8-8.1
		c0.3-2.1,1.4-4.3,1.2-6.3c-1.3-12.1-2.6-24.1-4.5-36.1c-0.4-2.4-3.1-4.4-4.7-6.6c-1.3-1.8-3.7-3.8-3.4-5.4c0.3-2.1,2.5-5,4.4-5.4
		C411.4,49.2,425.4,46.6,436.8,44.5z M428.5,91.2c0.8,4.1,1.2,7.5,2.4,10.7c0.5,1.3,2.6,2.8,3.9,2.8c1.4,0,3.3-1.4,4.2-2.7
		c2.1-3.3,0.8-10.7-2.3-13c-1.4-1-3.7-1.6-5.4-1.3C430,88,429.3,90.1,428.5,91.2z M433.7,68.5c-1.2-2.9-2.1-5.8-3.6-8.2
		c-0.7-1-3-1.9-4.1-1.5c-1,0.3-1.8,2.6-1.7,4c0.2,3.4,0.7,6.8,1.6,10.1c0.8,3.2,3.2,3.4,5.2,1.1C432.3,72.6,432.7,70.6,433.7,68.5z"
		/>
	<path class="st0" d="M685.3,919.7c9.4,0.1,13.7,6,17.7,12.5c0.8,1.3,2.8,2.2,4.4,2.7c4.6,1.6,5.9,4.7,3.3,8.6
		c-6.5,9.9-21.7,11.3-29.6,2.6c-2.8-3.1-4.9-6.8-7.8-9.7c-1.4-1.4-4-1.5-6.1-2.2c-0.1,2.1-0.8,4.4-0.2,6.3c1.1,4,3,7.5,7.5,9.3
		c3.7,1.5,4.1,5.3,1.1,7.9c-7.1,6-15.5,9.3-24.7,10c-5.1,0.4-6.4-2.4-5.6-7.4c0.7-3.9,0.9-8.3-0.1-12.1c-2.3-8-5.3-15.8-8.6-23.4
		c-1.2-2.7-3.9-5-6.5-6.6c-4.2-2.6-5-5.6-1.4-9c1-1,2.2-2,3.5-2.5c11.6-4.6,23.1-9.4,34.8-13.6c2.9-1,6.5-0.8,9.6-0.2
		c9.6,1.9,14.6,11.8,10.9,21.1C687,915.6,686.3,917.3,685.3,919.7z M667.3,918.3c-1.3-3-1.7-5.5-3.1-7.2c-1.2-1.4-3.5-1.7-5.4-2.5
		c-0.5,1.9-1.3,3.7-1.4,5.6c-0.1,1.5,0.3,3.4,1.1,4.7c1,1.6,2.6,2.9,4,4.3C664.1,921.5,665.7,919.9,667.3,918.3z"/>
	<path class="st0" d="M156.6,775.8c0,1.9,0.3,3.6-0.1,5c-0.9,3.6-1.5,7.5-3.3,10.6c-2.4,4.1-6,7.2-6.1,12.8c0,4.1-4,4-7.1,2.7
		c-11.2-4.8-15.5-20.6-8.3-30.5c2.3-3.2,5.1-6.2,6.9-9.7c0.8-1.5-0.2-4-0.3-6c-1.8,0.4-4.3,0.1-5.3,1.2c-2.7,2.9-5.3,6.2-6.8,9.8
		c-1.8,4.3-5.2,6.3-8,2.8c-5.4-6.7-10.5-13.8-14.3-21.4c-2.7-5.5,0.3-8,6.5-7.9c3,0,6.5-0.9,9-2.6c7.1-4.7,14-9.7,20.5-15.1
		c2.3-1.9,3.8-5.5,4.5-8.6c1.1-4.6,3.9-6.2,7.7-3.3c2.2,1.7,4.1,4.1,5.7,6.4c5.6,7.8,11.3,15.5,16.3,23.6c2.5,4,4.3,8.9,5,13.5
		c1.6,11.2-6.8,18.8-17.9,17.1C159.8,776.3,158.6,776.1,156.6,775.8z M160.8,747.8c-0.4-0.6-1.8-2.9-2.1-2.7
		c-3.8,1.8-7.5,3.8-11.1,6.1c-0.3,0.2,0.8,2.6,1.3,3.9c0.1,0.3,0.6,0.4,0.9,0.6C153.9,757.4,160.6,753.3,160.8,747.8z"/>
	<path class="st0" d="M279.9,868.9c-1.1,10.7-7.3,21.7-20,28.2c-12.1,6.2-22.7,2.2-32.8-5.4c-7.8-5.9-15.8-11.5-23.7-17.3
		c-1.9-1.4-3.8-3-4.9-5c-2.1-3.6-0.1-7.3,3.9-7.2c4.3,0.2,6.8-1.8,9-4.9c5.5-7.7,11.2-15.2,16.3-23.1c1.5-2.4,1.3-6,1.9-9
		c0.4-2,0.3-4.8,1.6-5.7c1.3-1,4.5-0.9,5.9,0.1c11.6,8.3,23.3,16.5,34.3,25.6C277.6,850.2,280.2,857.6,279.9,868.9z M258.9,854.1
		c-1.2-2.2-2.5-5.4-4.6-8.1c-1.8-2.4-4.5-2.5-6.3,0.3c-6.2,9.1-12.4,18.2-18.4,27.4c-2.5,3.8-0.8,7,2.9,8.1c3,0.8,7.4,1.1,9.7-0.4
		C251.4,875.3,256.5,866.4,258.9,854.1z"/>
	<path class="st0" d="M831.8,243.3c0.9-22.2,18.6-39.1,38.9-36.1c14.2,2.1,22.7,11.7,29.1,23.8c1.1,2,2.3,4.2,4,5.6
		c4.1,3.5,4.5,7.7,3,12.3c-1.7,5.4-4.6,10-10.7,11.2c-4.5,0.9-8.3-2.3-8.7-7.5c-0.3-3.4,0.4-6.9,0.4-10.3c0-5.7-1.1-10.9-6.7-13.8
		c-5.5-2.9-10.5-0.9-14.6,2.5c-7.5,6.2-12.7,13.9-12.5,24.2c0,1.9,0.5,4,1.3,5.8c1.3,2.9,3.7,5.2,6.8,3.2c1.2-0.8,0.8-4.1,1.1-6.3
		c0.3-2.7-0.3-6.5,1.2-7.8c1.5-1.2,5.7-0.8,7.7,0.4c7.9,5.1,13.7,12.4,17.3,21.1c1,2.4,0.5,6.3-0.8,8.6c-0.7,1.2-4.6,0.6-7.1,0.7
		c-1.4,0.1-3.1-0.5-4.2,0.1c-15.3,8.4-34.1-4.8-40-19.2C834.7,256,833.6,249.5,831.8,243.3z"/>
	<path class="st0" d="M501.5,109.1c-7.4,0-14.9,0.3-22.3-0.1c-2.5-0.1-5.7-1.4-7.1-3.3c-0.7-1,1.7-4.4,2.7-6.7
		c0.8-1.9,2.4-3.9,2.4-5.8c0-12.6-0.1-25.3-0.7-37.9c-0.1-2.4-2.8-4.7-4.1-7.1c-1-1.8-2.6-4-2.2-5.5c0.6-1.8,2.9-4.1,4.7-4.3
		c6.5-0.8,13-0.8,19.5-1.2c8.9-0.6,17.7-1.1,26.5-2c3.8-0.4,6.8,0.4,7.8,4.1c1.2,4.1,1.9,8.4,1.9,12.6c0,1.6-2.1,3.9-3.7,4.5
		c-1.4,0.5-4.2-0.6-5.1-1.9c-4.4-6.5-10.8-6.5-17.5-5.9c-3.6,0.3-5.7,2-5.5,5.9c0.1,2.5-0.3,5.2,0.2,7.6c0.3,1.4,2,3.3,3.2,3.4
		c1.6,0.1,3.2-1.4,4.8-2.3c0.2-0.1,0.1-0.7,0.3-1c1.7-2.3,3.4-4.6,5.1-6.8c1.9,2.6,5.3,5.1,5.4,7.8c0.4,6.7-0.5,13.6-1.3,20.3
		c-0.2,1.4-2.6,3.5-4,3.5c-1.3,0-2.5-2.4-3.9-3.8c-1.7-1.7-3.5-3.5-5.2-5.2c-1,2.2-2.9,4.4-2.9,6.6c-0.2,11.7,1.9,13.2,13.4,11.4
		c5.9-0.9,9.1-4.4,11.9-9.2c1.1-2,3.8-3,5.8-4.5c1.4,2.5,4.2,5.1,4,7.5c-0.5,4.9-2,10-4.2,14.5c-1,2-4.4,3.8-6.8,4
		c-7.8,0.5-15.6,0.2-23.4,0.2C501.5,108.5,501.5,108.8,501.5,109.1z"/>
	<path class="st0" d="M508.9,922.9c19.6-0.6,35.4,13.9,35.9,33c0.5,18.7-14,33.1-33.8,33.6c-20.1,0.5-35.4-13-35.9-32
		C474.4,937.7,488.4,923.5,508.9,922.9z M521.3,963.7c-2.2-6.6-4.1-13.4-6.8-19.7c-1.7-4-5.1-7.8-10.2-6c-4.6,1.7-6.3,6.2-5.3,10.7
		c1.6,6.6,3.8,13.1,6.2,19.5c1.5,4,4.6,6.8,9.2,5.8C519.6,972.8,520,968.4,521.3,963.7z"/>
	<path class="st0" d="M605,913.2c18.3,0,32.7,14.8,32.7,33.5c0,18.4-16.5,33.6-36.4,33.5c-19.5-0.1-33.3-13.8-33.3-33.2
		C568,927.3,583.6,913.1,605,913.2z M590,936c2.1,10.8,5.9,19.5,13.4,25.9c1.7,1.5,5.7,1.6,8,0.8c1.7-0.7,3.5-4,3.4-6.1
		c-0.5-10.1-4.8-18.8-12.3-25.5c-1.8-1.6-5.8-2.4-7.8-1.4C592.3,930.7,591.2,934.2,590,936z"/>
	<path class="st0" d="M189.8,850.5c-13.1-0.9-24.1-9.7-30.5-24.2c-6-13.7-3.4-26.3,6.7-37.1c8-8.6,18.2-11,29.3-8.3
		c23.2,5.7,35.2,33.3,23.8,54.3C213.6,845.5,204.9,850.6,189.8,850.5z M202.6,807.8c0-8.4-5-12.2-10.4-9.3c-6.4,3.4-15,20.5-14,27.6
		c0.8,5.8,6.2,8.6,10.6,5C196.6,824.8,201.4,816.5,202.6,807.8z"/>
	<path class="st0" d="M786,196.9c0.5,5.2-3,8.2-7.2,5.4c-5.6-3.8-10.4-8.8-15-13.8c-1.2-1.3-0.9-5,0-7c0.5-1.1,3.7-0.9,5.8-1.2
		c3.2-0.5,6.7-0.1,9.4-1.4c9.7-4.5,19.2-9.4,28.5-14.6c3.1-1.7,5.6-4.6,8-7.2c6.3-6.8,15.4-5.8,18.8,2.9c1.7,4.5,2.4,10.1,1.5,14.8
		c-2.7,14.8-6.6,29.3-9.7,44c-0.9,4.6-0.8,9.5-0.6,14.3c0.2,4-1.3,6.1-5.1,5.8c-2-0.1-4.4-0.9-5.9-2.2c-6.1-5.4-12.3-10.7-17.8-16.7
		c-5.2-5.6-3.5-9.7,3.6-11.6c0.9-0.2,2.1-3.7,1.6-4.2c-3.7-4.1-7.6-8.3-12-11.7C787.2,190.3,785.5,192.2,786,196.9z M809.9,191.5
		c0.9-3,1.8-4.8,1.9-6.6c0.1-2.3-0.3-4.7-0.6-7.1c-2.7,1.1-5.6,1.9-8.1,3.4c-0.6,0.4-0.8,3.1-0.1,4
		C804.7,187.3,806.9,188.8,809.9,191.5z"/>
	<path class="st0" d="M143.9,341.5c-2.1,11.8-6.3,21.6-12.1,30.6c-3,4.7-6.9,3.7-9.1-1.6c-0.5-1.1-1.4-2.9-1.9-2.8
		c-1.2,0.1-3,0.9-3.5,1.9c-2.3,4.9-4.5,9.9-6.4,15c-0.4,1.1,0,3.2,0.9,3.9c0.7,0.6,2.6,0.1,3.8-0.4c4.8-1.9,8.2-0.2,7,4.8
		c-1.6,7.1-4.6,13.9-7.6,20.6c-0.6,1.3-3.8,2.3-5.5,2c-1.2-0.2-2.2-2.8-2.9-4.5c-1.4-3.3-1.9-7.1-4-9.9c-6.7-8.8-13.7-17.3-21-25.6
		c-2.4-2.8-5.9-4.8-9.1-6.7c-8.3-5-9.4-17.5-0.9-21.9c6.6-3.5,14.6-5,22.2-5.8c11.3-1.2,22.8-1,34.2-1.6c2.2-0.1,4.4-1.2,6.6-1.8
		c2-0.6,4.7-2.3,5.9-1.6C142.4,337.1,143.1,340,143.9,341.5z M100,376c1.4-3.6,2.7-6.9,4-10.2c-0.4-0.5-0.8-1.1-1.2-1.6
		c-3.7,0.8-7.4,1.6-11,2.3c2,3,4.1,5.9,6.2,8.8C98.1,375.5,98.6,375.5,100,376z"/>
	<path class="st0" d="M372.5,900.2c7.9,0.1,14.9,2.6,21.1,7.4c2.1,1.6,4.4,3.4,6.9,4.2c4.8,1.7,7,4.9,7.2,9.7
		c0.3,5.7,0,11.4-5.2,15.2c-4.1,3-9.8,1.3-11.8-3.4c-1.1-2.7-1.7-5.5-2.7-8.3c-2.3-6.2-7.7-10.2-13-9.9c-4.6,0.3-7.9,4.2-9.5,11.2
		c-3.8,16.7,7,28.1,23.8,25.3c2.1-0.3,5.5-0.1,6.2,1.1c1,1.8,0.7,4.9-0.2,6.9c-2,4.6-5.7,7.4-11,7.4c-4.2,0.1-8.3,0.5-12.5,0.3
		c-3.6-0.1-4.6,1.3-3.9,4.6c0.1,0.4,0.2,0.7,0.2,1.1c0.2,4.3,2.4,9.4-3.2,11.9c-4.3,1.9-14.6-1.8-17.2-5.8c-2.5-3.9-0.7-7,3.9-7.5
		c2.4-0.2,6.2-0.6,6.8-2c1.5-3.6-0.5-6.6-3.9-9.1c-13.4-10.1-18.1-24-13.6-38.6C345,908.9,357.5,900.2,372.5,900.2z"/>
	<path class="st0" d="M696.8,898.7c0-16.1,11-30.4,27.1-35.5c2.5-0.8,5.3-1.8,7.2-3.5c4.5-4.1,8.7-2.8,12.9,0
		c4.6,3,7.2,9.5,5.7,13.7c-1.4,4.1-5.7,6-10.8,4.8c-3-0.7-5.9-1.9-9-2.1c-8.4-0.6-14.1,5.8-12.8,14.2c1.4,9.2,9.7,18.5,18.7,20.6
		c2.2,0.5,5,0.5,6.8-0.6c1.7-1.1,2.4-3.8,3.5-5.7c-1.8-0.5-3.6-1.5-5.3-1.3c-5,0.6-8.1-2.4-6.1-7.1c1.2-2.8,3.6-5.6,6.2-7.3
		c5.8-3.6,11.9-6.8,18.2-9.4c1.7-0.7,5.1,0.6,6.4,2.1c1.1,1.3,0.3,4.2,0,6.4c-0.2,1.7-1.5,3.4-1.4,5c1.2,18.7-9,30.9-27.7,36.5
		C718.8,934.7,695.9,920.7,696.8,898.7z"/>
	<path class="st0" d="M747.8,149.7c-3.4,5.2-5.9,9.6-3.4,15.6c1.8,4.2-0.9,7.4-5.5,6.6c-9.8-1.7-17.9-6.9-24.2-14.3
		c-3.1-3.7-1.4-6.9,3-8.6c2.3-0.9,5.1-2.4,6.2-4.5c5.7-10.3,11.1-20.7,16.1-31.4c1-2.2-0.2-5.4-0.4-8.1c-0.1-2.5-0.1-5-0.1-7.5
		c2.5,0,5.4-0.7,7.4,0.3c9.4,4.7,18.6,9.7,27.7,14.9c6.8,3.8,12.2,9.2,14.4,16.9c2.6,9.2,0.3,17.4-6.9,23.6
		c-7.4,6.4-16.1,5.6-24.5,2.1C754.4,153.8,751.4,151.7,747.8,149.7z M770.3,129.6c-0.3-0.2-0.7-0.5-1-0.7c-0.1-0.7,0-1.6-0.4-2.1
		c-1.5-1.9-3.1-3.6-4.7-5.5c-1.4,1.3-3.2,2.5-4.3,4c-1.6,2.4-3.1,5-3.9,7.7c-0.5,2-0.5,5.5,0.6,6.1c1.8,1.1,5.6,1.4,6.8,0.2
		C766.3,136.7,768.1,132.9,770.3,129.6z"/>
	<path class="st0" d="M308.1,939.8c-12-1.5-23.6-7.2-31.9-18.5c-4.8-6.5-6.2-13.9-2.8-21.6c3-6.8,6.8-13.2,9.6-20.1
		c1.4-3.6,1.9-7.9,1.7-11.8c-0.3-4.9,1.4-7.7,6.4-6.7c9.5,1.8,17.7,6.5,24.4,13.4c3.4,3.4,1.7,6.9-2.6,8.8c-2.7,1.2-5.7,3.2-7.2,5.7
		c-3.5,5.7-6.8,11.6-9.2,17.8c-3.3,8.5,1,15.5,9.8,17.9c4.6,1.2,8.6,0.3,10.9-3.8c4.3-7.7,8.3-15.7,12-23.8c0.8-1.7-0.7-4.4-0.9-6.6
		c-0.2-1.9-0.9-4.5,0-5.4c1.2-1.2,4.2-2.2,5.7-1.5c5.6,2.5,11.2,5.2,16,8.8c4.4,3.2,2.9,7.1-2.1,9.1c-2.4,1-5,3-6.3,5.2
		c-4.5,7.6-8.3,15.7-12.7,23.4C324.5,937.2,317.9,940,308.1,939.8z"/>
	<path class="st0" d="M651.3,131.6c-8.7-3.5-17.5-6.6-25.9-10.6c-2-1-3.9-4.5-3.9-6.9c0-1.5,3.6-2.9,5.5-4.5
		c1.5-1.2,3.6-2.2,4.1-3.8c3.5-10.5,6.7-21,9.7-31.6c0.4-1.3-0.5-3-0.7-4.5c-1.6,0.5-3.5,0.6-4.7,1.6c-6.2,4.7-10.4,5.6-13.5,2.5
		c-3.2-3.1-2.6-8.6,1.5-14.4c6.7-9.4,10.2-9.9,21-6s22.2,6.1,33.3,9.4c2.4,0.7,5.2,2.2,6.4,4.1c3.6,5.8,4.6,12.4,2,18.7
		c-1,2.5-4.4,5.4-6.8,5.4c-2.4,0-5-3.1-7.4-5c-0.6-0.5-0.4-1.8-0.9-2.5c-1.3-2-2.7-3.8-4-5.8c-1.2,1.9-2.9,3.6-3.4,5.7
		c-2.5,8.9-4.8,17.8-6.7,26.8c-0.5,2.6-0.1,5.9,1.2,8.1c1.6,2.9,4.7,5.6,2.1,8.6C658.5,129.1,655,129.8,651.3,131.6z"/>
	<path class="st0" d="M805.9,867.5c-7.3,2.3-12,6.6-16.1,11.5c-1.8,2.1-0.4,3.8,2.7,4.1c4.8,0.5,6.9,3.9,3.9,7.3
		c-4.6,5.2-10.1,9.7-15.8,13.6c-2.9,2-6.9-1.1-5.8-4.4c4.4-13-1.8-24.6-4.1-36.7c-1-5.4-3.7-10.6-6.3-15.4
		c-4.8-9,0.5-19.1,10.8-18.6c5.8,0.3,11.7,2.4,17.1,4.8c10.3,4.4,20.2,9.7,30.4,14.4c2.5,1.1,5.5,1.2,8.2,1.9
		c1.8,0.4,4.5,0.5,5.1,1.6c0.9,1.6,1,5,0,6c-7.7,7-15.6,13.8-24,20c-3,2.2-5.9-0.1-6.1-4.1C805.8,871.9,805.9,870.3,805.9,867.5z
		 M779.9,857.4c2,3,3.6,5.3,5.1,7.6c2.1-2,4.3-4,6.4-6c-2.5-1.5-4.8-3.2-7.4-4.3C783.3,854.5,781.8,856.1,779.9,857.4z"/>
	<path class="st0" d="M464.4,988.8c-7.4-1.7-14.9-3.1-22.1-5.2c-6.1-1.7-6.8-6-2-10.1c2.8-2.3,2.3-4.1-0.8-4.9
		c-4.5-1.2-9.2-2.1-13.8-2.8c-1.2-0.2-2.9,0.5-3.7,1.4c-0.5,0.5,0.1,2.3,0.7,3.3c3.2,5.6,1.6,9.1-4.9,8.8
		c-5.4-0.3-10.8-1.3-15.9-2.9c-1.8-0.5-3.8-3.5-3.9-5.5c-0.1-1.4,2.6-3.2,4.2-4.5c1.9-1.6,4.6-2.5,5.9-4.5
		c8.3-12.4,18.6-23.6,22.3-38.8c1.7-6.8,10.6-9.2,16.5-4.3c3.6,3,6.8,7.3,8.3,11.7c4.5,13,8,26.3,12.1,39.4c0.9,2.8,2.6,5.4,4,8.1
		c1,2.1,3.4,4.9,2.8,6.1c-1.1,1.9-4,2.9-6.3,4c-0.9,0.4-2.1,0.1-3.2,0.1C464.5,988.3,464.5,988.5,464.4,988.8z M441.2,955.2
		c-1.9-5.1-3.3-8.5-4.6-11.9c-0.6,0-1.2,0-1.8-0.1c-1.8,2.8-3.7,5.6-6.2,9.5C433.1,953.6,436.2,954.3,441.2,955.2z"/>
	<path class="st0" d="M954.9,645.7c-4.7,3.5-8.4,15.8-5.8,20.8c0.5,0,1,0,1.5-0.2c2.2-0.7,4.4-1.4,6.7-2.2c0.7,2.7,2.4,5.5,2,8
		c-0.9,5.1-2.5,10.2-4.6,15c-0.8,1.9-3.5,3.7-5.6,4.1c-0.9,0.2-2.8-3-3.9-4.8c-1.7-2.9-2.7-6.4-4.9-8.8c-5.5-6-11.3-11.8-17.3-17.3
		c-3.3-3-7.1-5.7-11.1-7.6c-4.7-2.3-8.6-4.7-8.8-10.5c-0.3-6.1,2.3-10.8,7.6-13.3c4.7-2.2,9.8-3.8,14.9-4.8
		c11-2.1,22.2-3.4,33.2-5.4c3-0.5,5.9-2.2,8.5-4c3.2-2.2,6.1-1.8,7,2c0.6,2.5,0.6,5.5,0,8c-1.7,6.5-3.4,13-6,19.1
		c-1.2,3-4.2,5.4-6.4,8.1C959.7,650,957.5,648,954.9,645.7z M933.9,656c1-0.2,1.9-0.4,2.9-0.5c0.5-3.4,1.1-6.8,1.6-10.2
		c-3.2,0.7-6.4,1.3-9.6,2C930.5,650.2,932.2,653.1,933.9,656z"/>
	<path class="st0" d="M876.3,704c0.2-5.8,3.7-15.4,12.2-22.8c1.7-1.5,3.1-3.6,4.1-5.6c2.4-5.2,6.6-5.7,11.4-5
		c5.3,0.8,10.5,2.3,12.2,8.4c1.8,6.6-1.6,11.1-8.6,11.3c-5.7,0.2-10.2,2.2-13.7,6.5c-4.5,5.4-4.1,10.9,1.6,15
		c6.5,4.7,13.7,6.6,21.5,3.1c7.7-3.5,10.4-10.1,11-17.9c0-0.5-0.2-1.1,0-1.6c0.9-2.7,1.8-5.3,2.7-8c2.8,1.6,6,2.7,8.4,4.8
		c1.6,1.4,2.8,4.1,2.8,6.2c-0.3,10.9-1.6,21.7-8.8,30.7c-9.5,12-23.8,16.9-36.5,12.3C883.9,737,876.1,724.5,876.3,704z"/>
	<path class="st0" d="M145.6,706.9c-0.5,8.8-4.6,15.5-11.7,18.3c-7.6,3.1-16.1,1.4-21.9-4.9c-2.8-3-5-6.7-6.9-10.3
		c-3.2-6-5.4-6.5-10.2-1.6c-1,1-1.4,2.5-2.1,3.7c-1.2,2-2.5,5.6-3.8,5.7c-2.2,0.1-5.4-1.6-6.6-3.5c-3.7-6.4-7.3-13-9.7-19.9
		c-2.4-6.8,0.6-9.1,7.5-7.3c1.9,0.5,4.4,0.2,6.2-0.7c8.9-4.5,17.6-9.4,26.4-14c3.2-1.7,3.9-4.2,4.1-7.6c0.1-1.8,1.5-4.6,2.8-5
		c1.5-0.4,4.4,1.1,5.2,2.6c6.4,11.8,12.6,23.6,18.5,35.6C144.8,700.6,144.9,703.9,145.6,706.9z M130,696.5c0-4.4-2.1-5.8-6.1-3.9
		c-2.5,1.1-5,2.3-7.1,3.9c-1.4,1-2.9,3.1-2.7,4.5c0.2,1.6,2,3.5,3.6,4.1C122.8,707.4,130,702.2,130,696.5z"/>
	<path class="st0" d="M910.8,338c2.1,1,5.5,1.8,5.9,3.2c0.5,2.4-0.2,5.7-1.7,7.7c-3.3,4.4-13.7,6.7-18.6,4.3
		c-1.6-0.8-2.9-2.6-3.8-4.2c-6-11.6-11.8-23.2-17.7-34.8c-1-1.9-2.4-3.8-2.7-5.9c-0.3-2.3,0-4.9,0.9-7c0.3-0.7,3.7,0.4,5.7,0.3
		c2.9-0.1,6.4,0.3,8.7-1c9.1-5.5,18.1-11.3,26.7-17.6c2-1.5,2.5-5.1,3.7-7.7c0.9-2,1.5-5.4,2.7-5.7c2-0.4,5.5,0.6,6.5,2.2
		c5.1,7.8,9.7,16,14.2,24.2c0.9,1.6,0.9,3.9,0.6,5.8c-0.5,3.8-3,5.7-6.5,3.6c-3.8-2.3-6.8-1.3-10,0.8c-7.6,4.9-15.2,9.7-22.8,14.7
		c-3.3,2.2-7.2,4.1-5.6,9.3c1.7,5.3,6.5,8.9,11.8,8.8c0.5,0,1.1-0.1,1.6-0.1C910.5,338.6,910.7,338.3,910.8,338z"/>
	<path class="st0" d="M268.8,193.5c-0.8,1.4-1.8,4.4-3.8,6.2c-10.3,9-21,17.8-31.5,26.6c-1,0.8-1.9,1.9-3,2.3
		c-1.6,0.5-3.9,1.1-5,0.3c-1.1-0.7-2.1-3.4-1.6-4.6c2.5-6.1-0.6-10.4-4-14.8c-5.9-7.5-11.9-15-17.7-22.6c-2-2.7-4-3.6-7.4-2.7
		c-5.5,1.4-8.2-1.5-6.1-6.7c1.4-3.4,3.6-6.8,6.3-9.3c5-4.7,10.3-9,15.9-12.9c1.5-1.1,5-1.1,6.4,0c1.4,1,1.3,4,1.7,6.2
		c0.6,3,0.3,6.6,1.8,9c5.4,7.9,11.2,15.6,17.3,22.9c1.8,2.2,6,5.1,7.5,4.4c3.2-1.6,6.1-4.9,7.7-8.2c1.1-2.4-0.3-6-0.1-9
		c0.2-2.1,0.6-5.2,2-5.9c1.5-0.8,4.8-0.2,6.3,1C266.8,179.5,268,185.6,268.8,193.5z"/>
	<path class="st0" d="M153.8,218.2c0.8-2.7,0.9-4.1,1.6-5.1c5.4-7.2,10.6-14.5,16.5-21.3c1.6-1.8,5.5-2.5,8.2-2.1
		c1.1,0.1,1.4,4.5,2.3,6.9c1.2,2.9,2.1,6.3,4.1,8.5c6.3,6.9,12.9,13.7,19.9,19.9c2.2,2,6,2.9,9.1,3.1c4.6,0.4,7.3,2.3,5.9,6.7
		c-3.6,10.8-10.5,19.3-20.2,25.2c-3.3,2-6.8-0.2-6.7-4.3c0.1-5.1-2.5-8.6-5.6-11.9c-5.2-5.5-10.6-10.9-15.9-16.3
		c-3.7-3.8-7.5-7-13.7-5.9C157.7,222,155.5,219.4,153.8,218.2z"/>
	<path class="st0" d="M704,76.5c9.6,1.3,18.1,5.2,25.6,11.2c4.7,3.9,3.4,8.6-2.1,11.2c-2.4,1.1-4.9,3.3-6,5.7
		c-4.3,9.6-8.4,19.3-11.9,29.2c-1,2.7-0.4,6.4,0.5,9.3c1.8,6.2-0.5,10.2-6.6,8.4c-8.2-2.4-16.3-5.9-23.6-10.4
		c-5.8-3.5-4.6-8.2,1.4-11.4c1.7-0.9,3.5-2.3,4.2-4c4.4-9.9,8.8-19.9,12.5-30.1c1.2-3.2,0.6-7.4-0.2-11
		C696.5,78.8,698.2,76.2,704,76.5z"/>
	<path class="st0" d="M948.2,564.5c-9.8,0-17.4-7.6-17.2-17.1s7.5-16.8,16.9-16.9c9.3,0,16.7,7.2,16.8,16.3
		C964.7,557,957.8,564.5,948.2,564.5z"/>
	<path class="st0" d="M453.5,916.1c-2.2-1.2-5.9-3.3-9.8-5c-2.1-0.9-4.5-1.2-6.7-1.3c-2.5,0-6,1.7-7.2,0.6c-1.7-1.6-2.7-5.3-2.1-7.6
		c0.6-2.5,3-5.7,5.3-6.4c2.7-0.8,6.2,0.6,9.2,1.6c2.5,0.9,4.5,3.1,7,4.1c1.4,0.6,3.3,0,5-0.3c2.5-0.3,6-2,7.1-0.9
		c1.9,1.7,3.4,5.3,3,7.8C463.6,913,460.4,915.9,453.5,916.1z"/>
	<path class="st0" d="M769.3,812.5c3.1,0.5,8.4-1.5,9,4.3c0.5,5.1-4.3,5.5-8,6.2c-5.2,1.1-8.6,3.9-10.6,8.9
		c-1.3,3.4-2.7,8.3-7.6,6.6c-4.7-1.7-2.9-6.4-2.2-10C752.6,815.4,755.8,812.7,769.3,812.5z"/>
	<path class="st0" d="M167.6,183.4c-3,6.2-5.3,11.6-8.3,16.6c-0.9,1.5-3.8,2.8-5.3,2.4c-1.2-0.3-1.9-3.3-2.6-5.2
		c-0.7-2.2-0.7-4.6-1.6-6.6c-2-4.3,0.5-7.3,3-9.6c2.6-2.4,6.2-4.4,9.5-4.9C163.6,175.9,165.6,180.5,167.6,183.4z"/>
	<g>
		<path class="st2" d="M520,840.4c-11,0-22.3-0.6-33.7-1.7c-37.8-3.7-73.4-14.4-105.9-31.6c-27.6-14.7-51.4-32.5-70.6-53.1
			c-20.1-21.5-35.8-46.6-46.8-74.7c-8.6-22.1-13.3-46.1-13.8-71.6c0-1.4-0.1-3.3,0-4.2c1-0.1,2.9-0.1,4.2-0.1
			c55.8,0,261.5,0,261.5,0h3.5h131.5c43.6,0,87.2,0,130.8,0h2.3c1.7,0,4.1,0,5.2,0.2c0,0.8,0,2.2-0.1,3.4c0,1-0.1,2.2-0.1,3.5
			c-1.2,44.2-15.7,85.3-42.9,122.2c-25.2,34.2-59.1,61.4-100.7,80.6C605.9,831.3,564,840.4,520,840.4z"/>
		<path class="st3" d="M406.1,606.9h56.3h49.3l0,0h7h63.8h63.8c44.9,0,89.8,0,134.8,0h0.1h1.2h1c0.4,0,1,0,1.6,0
			c0,1-0.1,2.2-0.1,3.5c-0.6,22-4.5,43.3-11.6,63.4c-7,19.7-17.3,38.9-30.5,56.9c-12.7,17.2-27.7,32.7-44.5,46.1
			c-16.2,12.8-34.6,24.1-54.8,33.5c-38.3,17.8-79.8,26.8-123.2,26.8c-10.9,0-22.1-0.6-33.3-1.7c-37.4-3.7-72.5-14.2-104.6-31.2
			c-27.3-14.5-50.7-32.1-69.7-52.4c-19.8-21.2-35.2-45.9-46.1-73.6c-8.5-21.7-13-45.4-13.5-70.4c0-0.2,0-0.5,0-0.8
			c0.3,0,0.5,0,0.8,0C304.5,606.9,355.3,606.9,406.1,606.9 M406.1,599.9c-50.8,0-101.6,0-152.5,0c-7.8,0-7.9,0.2-7.8,7.9
			c0.5,25.1,4.9,49.5,14,72.8c22.8,58.5,64.1,100.5,119,129.7c33.5,17.8,69.4,28.2,107.2,32c11.4,1.1,22.8,1.7,34,1.7
			c43.5,0,85.6-8.7,126.1-27.4c40.7-18.9,75.2-45.4,102-81.7c27.2-36.9,42.3-78.2,43.6-124.2c0.3-10.4,1.8-10.7-8.5-10.7
			c-0.7,0-1.4,0-2.2,0h-0.1c-44.9,0-89.8,0-134.8,0c-42.5,0-85,0-127.5,0l0,0C481.1,599.9,443.6,599.9,406.1,599.9L406.1,599.9z"/>
	</g>
	<g>
		<path class="st4" d="M477.3,588.9c-1.9,0-3.8,0-5.8,0c-31,0-62-0.2-93,0.1c-7.2,0.1-12.4-2.2-17.4-6.9
			c-25.3-23.2-45.4-50.2-59-81.8c-15.4-35.8-21.8-73.2-18.9-112c1.3-17,4.1-33.8,6.1-50.7c0.5-4,2.1-5.6,6.3-5.6
			c33.3-0.3,65.7,4.2,97.5,14.4c34.5,11.1,65.3,28.5,92.4,52.4c15,13.2,28,28.3,39.4,44.8c4.1,6,4.7,6,8.3,0
			c12.3-20.7,24.4-41.5,36.7-62.2c2.1-3.6,2.4-6.6,0.3-10.6c-4.5-8.4-2.5-17.9,4.4-24.9c5.6-5.7,15.8-7.8,22.7-4.8
			c9.5,4.2,14.7,12.1,13.8,21.8c-0.8,8.4-5.2,14.3-12.7,18.3c-2.6,1.4-5.3,4.5-6.2,7.3c-6.4,21-12.3,42.1-18.3,63.2
			c-1.2,4.4-3.6,7.5-7.3,10.3c-13.6,10.5-24,24-33.9,37.9c-16.3,23.1-27.9,48.2-32.9,76.2c-0.1,0.7-0.5,1.3-1.5,3.6
			c-50-62.9-99.3-125-148.7-187.2c-0.7,0.5-1.4,1-2.1,1.5c43.5,64.4,87,128.7,130.4,193.1C477.9,587.8,477.6,588.4,477.3,588.9z"/>
	</g>
	<g>
		<path class="st5" d="M611.2,363.1c-0.8,8.4-5.2,14.3-12.7,18.4c-2.6,1.4-5.3,4.4-6.2,7.3c-6.4,21-12.3,42.1-18.3,63.2
			c-1.2,4.4-3.6,7.4-7.3,10.3c-6.4,4.9-12.2,10.6-17.4,16.6c-6.3-11.8-16.1-24.7-21.1-31c1.6,1.2,2.7-0.1,5-4.1
			c12.3-20.7,24.4-41.5,36.7-62.2c2.1-3.6,2.4-6.6,0.3-10.5c-4.5-8.4-2.5-17.9,4.4-24.9c5.6-5.7,15.8-7.8,22.7-4.8
			C606.8,345.6,612,353.4,611.2,363.1z"/>
	</g>
	<path class="st6" d="M568.5,587.9c49.3-40.2,97.5-79.4,145.7-118.7c-0.5-0.7-1-1.5-1.5-2.2c-2.8,1.5-5.8,2.7-8.4,4.5
		c-20.8,14.4-41.5,29-62.3,43.5c-24,16.8-48.1,33.5-72.1,50.3c-8.6,6-17.6,11.6-25.9,17.9c-8.6,6.6-18.3,4.3-27.7,4.3
		c-0.7,0-2.2-3.1-1.9-4.4c2.3-9.9,4.3-19.9,7.7-29.4c9-25.4,23.3-47.9,42.2-67.1c19.8-20.1,43.2-34.8,69.3-45.8
		c38.8-16.4,79.5-17.9,120.7-17.1c3.2,0.1,4.4,1.2,4.8,4.4c4.7,45.8-4.1,88.4-30.1,126.8c-7.1,10.4-15.8,19.7-24.2,29.2
		c-1.8,2-5.3,3.6-8,3.7C654.5,588,612.3,587.9,568.5,587.9z"/>
	<path class="st1" d="M955.6,429.1c-1.5-3.9-5.8-7.7-1.5-11c1.6-1.3,8.1,0.2,8.5,1.6C964,424.7,958.8,426.3,955.6,429.1z"/>
	<path class="st1" d="M318.5,119.9c1.5-2.6,2.5-4.3,3.5-6.1c2.7,2.1,5.4,4.3,8.1,6.4c-2.5,1.7-4.8,3.7-7.5,4.8
		C322.1,125.3,320.1,122,318.5,119.9z"/>
	<path class="st1" d="M582.4,61c-0.3,1.3-0.1,3.3-1,4.4c-1.6,1.8-3.9,3.1-5.9,4.5c-0.8-2.1-2-4.1-2.2-6.2c-0.2-1.9,0.3-4,1-5.8
		c0.8-1.7,2.3-3.2,3.5-4.7c1.5,1.6,3,3.1,4.3,4.9C582.6,58.7,582.3,59.8,582.4,61z"/>
	<path class="st1" d="M428.5,91.2c0.8-1.1,1.6-3.2,2.8-3.5c1.7-0.3,4,0.2,5.4,1.3c3.1,2.3,4.4,9.8,2.3,13c-0.8,1.3-2.7,2.7-4.2,2.7
		c-1.4,0-3.4-1.5-3.9-2.8C429.7,98.7,429.3,95.2,428.5,91.2z"/>
	<path class="st1" d="M433.7,68.5c-1,2.1-1.4,4.1-2.6,5.5c-2,2.2-4.4,2-5.2-1.1c-0.9-3.3-1.4-6.7-1.6-10.1c-0.1-1.4,0.7-3.6,1.7-4
		c1.1-0.4,3.5,0.5,4.1,1.5C431.6,62.7,432.5,65.6,433.7,68.5z"/>
	<path class="st1" d="M667.3,918.3c-1.6,1.6-3.3,3.3-4.9,4.9c-1.4-1.4-3-2.7-4-4.3c-0.8-1.3-1.2-3.1-1.1-4.7
		c0.1-1.9,0.9-3.7,1.4-5.6c1.8,0.8,4.2,1.2,5.4,2.5C665.6,912.7,666.1,915.2,667.3,918.3z"/>
	<path class="st1" d="M160.8,747.8c-0.2,5.5-6.9,9.6-11,7.8c-0.3-0.1-0.8-0.3-0.9-0.6c-0.5-1.3-1.6-3.7-1.3-3.9
		c3.5-2.3,7.2-4.3,11.1-6.1C159,744.9,160.4,747.2,160.8,747.8z"/>
	<path class="st1" d="M258.9,854.1c-2.4,12.3-7.6,21.2-16.7,27.2c-2.4,1.6-6.7,1.3-9.7,0.4c-3.8-1-5.5-4.3-2.9-8.1
		c6.1-9.2,12.2-18.3,18.4-27.4c1.9-2.7,4.5-2.6,6.3-0.3C256.4,848.7,257.8,851.9,258.9,854.1z"/>
	<path class="st1" d="M521.3,963.7c-1.3,4.7-1.8,9.1-6.8,10.3c-4.6,1-7.7-1.8-9.2-5.8c-2.4-6.4-4.6-12.8-6.2-19.5
		c-1.1-4.5,0.6-9.1,5.3-10.7c5.1-1.8,8.4,1.9,10.2,6C517.3,950.4,519.1,957.1,521.3,963.7z"/>
	<path class="st1" d="M590,936c1.2-1.8,2.3-5.3,4.6-6.4c2-0.9,6.1-0.2,7.8,1.4c7.5,6.7,11.8,15.4,12.3,25.5c0.1,2.1-1.7,5.4-3.4,6.1
		c-2.3,0.9-6.2,0.7-8-0.8C595.9,955.6,592.1,946.9,590,936z"/>
	<path class="st1" d="M202.6,807.8c-1.1,8.7-6,17-13.8,23.3c-4.5,3.6-9.8,0.8-10.6-5c-1-7.2,7.6-24.2,14-27.6
		C197.5,795.6,202.5,799.4,202.6,807.8z"/>
	<path class="st1" d="M809.9,191.5c-3-2.7-5.2-4.3-6.8-6.3c-0.7-0.9-0.6-3.6,0.1-4c2.5-1.5,5.3-2.3,8.1-3.4c0.2,2.4,0.7,4.7,0.6,7.1
		C811.7,186.7,810.8,188.5,809.9,191.5z"/>
	<path class="st1" d="M770.3,129.6c-2.2,3.3-4,7.1-6.8,9.8c-1.2,1.2-5,0.9-6.8-0.2c-1.1-0.6-1.1-4.2-0.6-6.1
		c0.8-2.7,2.3-5.3,3.9-7.7c1.1-1.6,2.8-2.7,4.3-4c1.6,1.8,3.2,3.6,4.7,5.5c0.4,0.5,0.2,1.4,0.4,2.1
		C769.6,129.1,769.9,129.4,770.3,129.6z"/>
	<path class="st1" d="M779.9,857.4c1.9-1.3,3.4-2.9,4.1-2.7c2.6,1.1,5,2.8,7.4,4.3c-2.1,2-4.3,4-6.4,6
		C783.5,862.8,781.9,860.5,779.9,857.4z"/>
	<path class="st1" d="M441.2,955.2c-5-1-8.2-1.6-12.6-2.5c2.5-3.9,4.4-6.7,6.2-9.5c0.6,0,1.2,0,1.8,0.1
		C438,946.7,439.3,950.2,441.2,955.2z"/>
	<path class="st1" d="M933.9,656c-1.7-2.9-3.4-5.8-5.1-8.7c3.2-0.7,6.4-1.3,9.6-2c-0.5,3.4-1.1,6.8-1.6,10.2
		C935.8,655.6,934.8,655.8,933.9,656z"/>
	<path class="st1" d="M130,696.5c0,5.6-7.2,10.8-12.3,8.6c-1.6-0.7-3.4-2.6-3.6-4.1c-0.2-1.4,1.4-3.5,2.7-4.5
		c2.1-1.6,4.6-2.8,7.1-3.9C127.9,690.7,130,692.1,130,696.5z"/>
</g>
</svg>
